<svg xmlns="http://www.w3.org/2000/svg" xmlns:xlink="http://www.w3.org/1999/xlink" width="150.719" height="32.185" viewBox="0 0 150.719 32.185">
  <defs>
    <clipPath id="clip-path">
      <rect id="Rectangle_4" data-name="Rectangle 4" width="150.719" height="32.185" fill="none"/>
    </clipPath>
  </defs>
  <g id="Artwork_3" data-name="Artwork 3" transform="translate(-51.941 -189.588)">
    <g id="Group_4" data-name="Group 4" transform="translate(51.941 189.588)">
      <g id="Group_3" data-name="Group 3" transform="translate(0 0)" clip-path="url(#clip-path)">
        <g id="Group_2" data-name="Group 2">
          <g id="Group_1" data-name="Group 1" clip-path="url(#clip-path)">
            <path id="Path_1" data-name="Path 1" d="M51.941,189.588H67.252q0,7.655,0,15.311H51.941Z" transform="translate(-51.941 -189.588)" fill="#f05021"/>
            <path id="Path_2" data-name="Path 2" d="M235.439,189.588H250.75q0,7.655,0,15.311H235.44q0-7.656,0-15.311" transform="translate(-218.564 -189.588)" fill="#80b91c"/>
            <path id="Path_3" data-name="Path 3" d="M1510.032,244.914a6.009,6.009,0,0,1,4.826-.566c.014.945,0,1.892.006,2.838a3.156,3.156,0,0,0-2.441-.223,1.934,1.934,0,0,0-1.1,1.545,20.864,20.864,0,0,0-.062,2.479c1.615,0,3.229,0,4.844,0,.012-1.048-.013-2.1.014-3.146,1.1-.313,2.184-.663,3.276-.992.009,1.381-.013,2.763.012,4.145,1.092-.016,2.184,0,3.276-.007v2.689c-1.1-.045-2.193-.012-3.289-.016,0,1.546,0,3.092,0,4.638.017.856-.046,1.717.054,2.57a1.665,1.665,0,0,0,.715,1.32,2.467,2.467,0,0,0,2.518-.236v2.715a6.474,6.474,0,0,1-3.027.463,3.682,3.682,0,0,1-2.611-1.2,4.944,4.944,0,0,1-.935-3.16c-.008-2.372,0-4.745,0-7.118q-2.424,0-4.846,0,0,5.585,0,11.17h-3.311q0-5.584,0-11.166c-.768-.015-1.537,0-2.3-.012,0-.884.007-1.768,0-2.653.764-.017,1.529-.01,2.3,0a14.105,14.105,0,0,1,.228-3.529,4.516,4.516,0,0,1,1.868-2.549" transform="translate(-1371.962 -239.08)" fill="#777"/>
            <path id="Path_4" data-name="Path 4" d="M765.815,254.9a2.025,2.025,0,0,1,1.833.649,1.888,1.888,0,0,1,.23,2.151,2.06,2.06,0,0,1-2.2.923,1.872,1.872,0,0,1-1.538-1.845,1.917,1.917,0,0,1,1.679-1.879" transform="translate(-698.643 -248.87)" fill="#777"/>
            <path id="Path_5" data-name="Path 5" d="M506.43,259.57h4.816q2.248,5.709,4.51,11.415c.383.952.742,1.915,1.144,2.859,1.928-4.756,3.884-9.5,5.8-14.263,1.544-.025,3.089-.006,4.634-.009q-.005,9.654,0,19.308c-1.115,0-2.228.009-3.342-.006.012-4.75,0-9.5.005-14.25,0-.213-.005-.427-.02-.64a2.554,2.554,0,0,0-.174.309c-1.914,4.862-3.864,9.71-5.767,14.576-.793.029-1.586,0-2.38.015-1.974-4.862-3.924-9.735-5.888-14.6-.051-.1-.107-.2-.166-.294-.04,2.081-.006,4.164-.017,6.245q0,4.323,0,8.646c-1.051,0-2.1,0-3.152,0q0-9.656,0-19.311" transform="translate(-464.636 -253.132)" fill="#777"/>
            <path id="Path_6" data-name="Path 6" d="M832.2,315.652a9.066,9.066,0,0,1,4.919.015,3.974,3.974,0,0,1,.944.394c-.018,1.055,0,2.111-.01,3.166a5.261,5.261,0,0,0-3.779-1.161,3.889,3.889,0,0,0-2.75,1.527,5.341,5.341,0,0,0-.877,3.834,4.15,4.15,0,0,0,1.338,2.751,4.193,4.193,0,0,0,3.1.922,6.307,6.307,0,0,0,2.971-1.219c.009,1,0,2,.007,3a8.053,8.053,0,0,1-4.526.937,6.711,6.711,0,0,1-4.314-1.8,6.9,6.9,0,0,1-2-4.633,8.388,8.388,0,0,1,1.309-5.138,6.663,6.663,0,0,1,3.674-2.6" transform="translate(-755.911 -303.758)" fill="#777"/>
            <path id="Path_7" data-name="Path 7" d="M1074.74,318.889a5.855,5.855,0,0,0-2.892-2.923,8.786,8.786,0,0,0-4.74-.559,6.607,6.607,0,0,0-4.353,2.327,7.376,7.376,0,0,0-1.528,4.229,7.943,7.943,0,0,0,1.213,5.169,6.27,6.27,0,0,0,3.825,2.495,9.509,9.509,0,0,0,3.877,0,6.409,6.409,0,0,0,3.8-2.346,7.34,7.34,0,0,0,1.456-4.03,9.076,9.076,0,0,0-.658-4.365m-3.2,6.352a3.024,3.024,0,0,1-1.627,1.6,4.465,4.465,0,0,1-2.7.119,3.305,3.305,0,0,1-2.076-1.712,6.388,6.388,0,0,1-.5-3.464,4.4,4.4,0,0,1,1.279-2.887,3.463,3.463,0,0,1,2.179-.86,3.564,3.564,0,0,1,2.77.94,4.467,4.467,0,0,1,1.143,2.885,7.251,7.251,0,0,1-.466,3.382" transform="translate(-968.387 -303.75)" fill="#777"/>
            <path id="Path_8" data-name="Path 8" d="M1236.321,315.468a8.761,8.761,0,0,1,4.583.477c0,1.015,0,2.03,0,3.044a5.835,5.835,0,0,0-3.478-1.027,1.78,1.78,0,0,0-1.582.875,1.431,1.431,0,0,0,.48,1.694c.939.628,2.059.895,3.032,1.457a4.36,4.36,0,0,1,1.9,1.8,4.039,4.039,0,0,1-.862,4.659,6.334,6.334,0,0,1-4.608,1.4,9.844,9.844,0,0,1-3.367-.772c0-1.068-.006-2.134.005-3.2a7.242,7.242,0,0,0,3,1.3,3.868,3.868,0,0,0,2.285-.21,1.323,1.323,0,0,0,.4-1.881,3.982,3.982,0,0,0-1.446-.946,13.855,13.855,0,0,1-2.858-1.463,3.426,3.426,0,0,1-1.237-1.879,4.222,4.222,0,0,1,.458-3.3,4.931,4.931,0,0,1,3.295-2.024" transform="translate(-1123.864 -303.784)" fill="#777"/>
            <path id="Path_9" data-name="Path 9" d="M1361.548,319.291a5.909,5.909,0,0,0-2.844-3.219,8.576,8.576,0,0,0-4.915-.668,6.856,6.856,0,0,0-3.659,1.57,6.779,6.779,0,0,0-2.184,4.25,9.165,9.165,0,0,0,.52,4.808,6.137,6.137,0,0,0,3.364,3.264,8.9,8.9,0,0,0,4.664.394,6.468,6.468,0,0,0,4.071-2.38,7.571,7.571,0,0,0,1.5-4.714,8.817,8.817,0,0,0-.515-3.3m-2.987,4.692a4.316,4.316,0,0,1-.856,2.031,3.1,3.1,0,0,1-1.935,1.041,4.377,4.377,0,0,1-2.369-.257,3.357,3.357,0,0,1-1.746-1.827,6.574,6.574,0,0,1-.393-3.015,4.787,4.787,0,0,1,1-2.756,3.388,3.388,0,0,1,2.417-1.16,3.631,3.631,0,0,1,2.653.783,3.8,3.8,0,0,1,1.2,2.2,8.41,8.41,0,0,1,.028,2.957" transform="translate(-1228.675 -303.752)" fill="#777"/>
            <path id="Path_10" data-name="Path 10" d="M976.639,316.734a3.735,3.735,0,0,1,3.073-.259c0,1.1,0,2.209,0,3.313a3.52,3.52,0,0,0-2.238-.526,2.749,2.749,0,0,0-2.071,1.656,6.122,6.122,0,0,0-.472,2.826q0,3.309,0,6.618h-3.264q0-6.916,0-13.833c1.09-.014,2.179-.008,3.269,0,0,.792,0,1.583,0,2.376a4.24,4.24,0,0,1,1.711-2.168" transform="translate(-887.086 -304.614)" fill="#777"/>
            <path id="Path_11" data-name="Path 11" d="M767.421,319.059c1.1,0,2.2-.016,3.295.006-.013,4.61,0,9.221-.006,13.83h-3.288q0-6.917,0-13.836" transform="translate(-701.627 -307.147)" fill="#777"/>
            <path id="Path_12" data-name="Path 12" d="M51.941,373.078q7.656,0,15.311,0,0,7.655,0,15.31H51.941Z" transform="translate(-51.941 -356.205)" fill="#189dc6"/>
            <path id="Path_13" data-name="Path 13" d="M235.442,373.087q7.654,0,15.31,0V388.4H235.441q0-7.656,0-15.31" transform="translate(-218.567 -356.211)" fill="#f7b90e"/>
          </g>
        </g>
      </g>
    </g>
  </g>
</svg>
