<?xml version="1.0" encoding="UTF-8"?> <svg xmlns="http://www.w3.org/2000/svg" viewBox="0 0 950.09 208.96"> <defs> <style>.cls-1{fill:#c1e2cb;}.cls-2{fill:#1e3869;}.cls-3{fill:#fee48b;}</style> </defs> <title>1a_logo_color</title> <g id="Layer_2" data-name="Layer 2"> <g id="Layer_1-2" data-name="Layer 1"> <polygon class="cls-1" points="861.66 0 825.67 41.7 885.86 130.59 950.09 130.59 861.66 0"></polygon> <polygon class="cls-2" points="861.66 0 803.33 38.32 803.33 130.59 861.66 130.59 861.66 0"></polygon> <polygon class="cls-3" points="861.66 0 803.33 0 767.96 65.3 826.29 65.3 861.66 0"></polygon> <path class="cls-2" d="M56.78,96.94C24.41,96.94,0,121,0,152.95s24.41,56,56.78,56,56.78-24.08,56.78-56S89.14,96.94,56.78,96.94Zm0,92c-19.3,0-34.42-15.79-34.42-35.95S37.48,117,56.78,117s34.42,15.79,34.42,35.95S76.07,188.9,56.78,188.9Z"></path> <path class="cls-2" d="M165.9,129.89a33.24,33.24,0,0,0-20.16,6.64v-5.11H124.91v76H146.5V158.58c2.34-3.11,8.72-8.63,17.25-8.63a14.75,14.75,0,0,1,10.59,3.89c2.94,2.94,4.2,6.93,4.2,13.36v40.22h21.6V168.73c0-11.94-2.42-20.14-7.86-26.59A34.21,34.21,0,0,0,165.9,129.89Z"></path> <path class="cls-2" d="M247.73,129.89c-21.09,0-37,17-37,39.61,0,23.23,16.35,39.46,39.76,39.46,12.15,0,24.08-5.22,31.14-13.63l.49-.59-12.5-12.5-.59.64c-1.79,2-8.4,8.32-18.09,8.32-10,0-17.72-6.51-19.13-16h51.25l.12-.68a32.89,32.89,0,0,0,.47-5.82C283.67,147,267.88,129.89,247.73,129.89ZM232.8,159a15.4,15.4,0,0,1,14.94-11.36A14.09,14.09,0,0,1,261.49,159Z"></path> <path class="cls-2" d="M330.56,98.47l-46.69,109h23.43l10.11-23.76h42l10.11,23.76h23.43l-46.69-109Zm-4.62,65.13,12.37-28.77,12.37,28.77Z"></path> <path class="cls-2" d="M527.28,92.34a13.56,13.56,0,1,0,13.86,13.56A13.57,13.57,0,0,0,527.28,92.34Z"></path> <path class="cls-2" d="M481.37,130c0-6.67,1-9.26,2.56-11.26,2.23-2.65,5.78-4,10.55-4a24.58,24.58,0,0,1,5.76.74l.88.24L504.49,97l-.75-.19a45.6,45.6,0,0,0-12-1.41c-9.34,0-17.77,3.19-23.73,9-5.68,5.52-8.22,13.17-8.22,24.82v2.23H424.66V130c0-6.67,1-9.26,2.56-11.26,2.23-2.65,5.78-4,10.55-4a24.58,24.58,0,0,1,5.76.74l.88.24L447.77,97l-.75-.2a45.54,45.54,0,0,0-12-1.41c-9.34,0-17.76,3.19-23.72,9-5.69,5.53-8.23,13.18-8.23,24.82v2.23H383.91v18.53h19.16v57.47h21.6V149.95h35.11v57.47h21.59V149.95h35.11v57.47h21.59v-76H481.37Z"></path> <path class="cls-2" d="M594.26,129.89a33.25,33.25,0,0,0-20.16,6.64v-5.11H553.26v76h21.59V158.58c2.35-3.11,8.73-8.63,17.25-8.63a14.78,14.78,0,0,1,10.6,3.89c2.94,2.94,4.2,6.94,4.2,13.36v40.22H628.5V168.73c0-11.94-2.42-20.14-7.85-26.59A34.21,34.21,0,0,0,594.26,129.89Z"></path> <path class="cls-2" d="M652.95,92.34a13.56,13.56,0,1,0,13.86,13.56A13.57,13.57,0,0,0,652.95,92.34Z"></path> <rect class="cls-2" x="642.15" y="131.42" width="21.59" height="76"></rect> <path class="cls-2" d="M709.84,110.73H688.25v20.69h-14.8v18.53h14.8v25.22c0,10.67,1.7,17.46,5.68,22.73,5.43,7.24,14.57,11.06,26.42,11.06,4,0,10-.64,12.7-1.58l.67-.24-3.35-18.41-.85.19a48.1,48.1,0,0,1-7.94.75c-4.34,0-7.53-1.14-9.48-3.38-1.58-1.87-2.26-4.5-2.26-8.81V149.95h24.52V131.42H709.84Z"></path> <rect class="cls-2" x="745.72" y="131.42" width="21.59" height="76"></rect> <path class="cls-2" d="M756.52,119.45a13.56,13.56,0,1,0-13.86-13.56A13.57,13.57,0,0,0,756.52,119.45Z"></path> </g> </g> </svg> 