<?xml version="1.0" standalone="no"?>
<!DOCTYPE svg PUBLIC "-//W3C//DTD SVG 1.1//EN" "http://www.w3.org/Graphics/SVG/1.1/DTD/svg11.dtd" >
<svg xmlns="http://www.w3.org/2000/svg" xmlns:xlink="http://www.w3.org/1999/xlink" version="1.1">
<metadata>
Created by FontForge 20170731 at Fri May 11 15:12:44 2012
 By Aleksey,,,
(c) Copyright 2012 Hewlett-Packard Development Company, L.P.
</metadata>
<defs>
<font id="HPSimplified-Italic" horiz-adv-x="381" >
  <font-face 
    font-family="HP Simplified"
    font-weight="400"
    font-style="italic"
    font-stretch="normal"
    units-per-em="1000"
    panose-1="2 11 6 4 2 2 4 9 2 4"
    ascent="813"
    descent="-187"
    x-height="510"
    cap-height="693"
    bbox="-67 -199 1149 921"
    underline-thickness="90"
    underline-position="-235"
    slope="-11.5"
    unicode-range="U+0008-FB04"
  />
<missing-glyph horiz-adv-x="500" 
d="M50 0v750h400v-750h-400zM400 50v650h-300v-650h300z" />
    <glyph glyph-name="f_f" unicode="ff" horiz-adv-x="631" 
d="M194 434h-43q-23 0 -23 17q0 4 1 10t3 14l7 35h70l11 52q17 78 61.5 122.5t107.5 44.5q13 0 29 -3t29.5 -8t23 -13.5t9.5 -18.5q0 -6 -3 -18l-9 -29q-29 13 -60 13q-38 0 -59 -27.5t-32 -77.5l-8 -37h182l9 45q7 38 23.5 70t40 55t54 36t66.5 13q18 0 36.5 -3t34 -9
t25.5 -14.5t10 -18.5q0 -6 -3 -18l-9 -30q-16 6 -35 10t-42 4q-47 0 -69 -27.5t-33 -75.5l-8 -37h90q23 0 23 -17q0 -4 -1 -10t-3 -14l-7 -35h-116l-65 -342q-7 -38 -21.5 -84.5t-39 -86.5t-60.5 -67t-85 -27q-18 0 -35.5 7.5t-17.5 29.5q0 9 3 21l5 20q5 -1 10 -1h10
q51 0 82 42.5t50 143.5l63 344h-181l-65 -342q-7 -38 -21.5 -84.5t-39 -86.5t-60.5 -67t-85 -27q-18 0 -35.5 7.5t-17.5 29.5q0 9 3 21l5 20q5 -1 10 -1h10q51 0 82 42.5t50 143.5z" />
    <glyph glyph-name="f_i" unicode="fi" horiz-adv-x="555" 
d="M209 510l11 52q17 78 61.5 122.5t107.5 44.5q13 0 27.5 -2.5t26.5 -7.5t20 -13t8 -18q0 -6 -3 -18l-9 -29q-25 11 -51 11q-38 0 -59 -27.5t-32 -77.5l-8 -37h250q16 0 20.5 -5t4.5 -13q0 -5 -2 -17t-5 -26l-91 -449h-69q-16 0 -20.5 5t-4.5 13q0 5 2 17t5 26l75 373h-179
l-65 -342q-7 -38 -21.5 -84.5t-39 -86.5t-60.5 -67t-85 -27q-18 0 -35.5 7.5t-17.5 29.5q0 9 3 21l5 20q5 -1 10 -1h10q51 0 82 42.5t50 143.5l63 344h-43q-22 0 -22 17q0 8 2.5 23t7.5 36h70zM556 589q-29 0 -41.5 11.5t-12.5 29.5q0 32 18 50.5t53 18.5q29 0 42 -12
t13 -29q0 -32 -18 -50.5t-54 -18.5z" />
    <glyph glyph-name="f_l" unicode="fl" horiz-adv-x="620" 
d="M209 510l11 52q17 78 61.5 122.5t107.5 44.5q13 0 29 -3t29.5 -8t23 -13.5t9.5 -18.5q0 -11 -6 -28l-6 -19q-29 13 -60 13q-38 0 -59 -27.5t-32 -77.5l-8 -37h185l42 208h70q24 0 24 -19q0 -5 -2 -14.5t-4 -18.5l-104 -523q-4 -20 -5 -27.5t-1 -15.5q0 -12 7 -17.5
t19 -5.5q15 0 25.5 2t18.5 2q9 0 13 -6.5t7 -29.5l4 -26q-8 -5 -39 -14t-65 -9q-43 0 -68 20.5t-25 59.5q0 22 6 51l62 307h-184l-65 -342q-7 -38 -21.5 -84.5t-39 -86.5t-60.5 -67t-85 -27q-25 0 -39 9.5t-14 27.5q0 9 3 21l5 20q9 -1 20 -1q51 0 82 42.5t50 143.5l63 344
h-43q-22 0 -22 17q0 8 10 59h70z" />
    <glyph glyph-name="f_f_i" unicode="ffi" horiz-adv-x="838" 
d="M591 510h251q16 0 20.5 -5t4.5 -13q0 -5 -2 -17t-5 -26l-91 -449h-69q-16 0 -20.5 5t-4.5 13q0 5 2 17t5 26l75 373h-180l-65 -342q-7 -38 -21.5 -84.5t-39 -86.5t-60.5 -67t-85 -27q-18 0 -35.5 7.5t-17.5 29.5q0 9 3 21l5 20q5 -1 10 -1h10q51 0 82 42.5t50 143.5
l63 344h-181l-65 -342q-7 -38 -21.5 -84.5t-39 -86.5t-60.5 -67t-85 -27q-18 0 -35.5 7.5t-17.5 29.5q0 9 3 21l5 20q5 -1 10 -1h10q51 0 82 42.5t50 143.5l63 344h-43q-23 0 -23 17q0 4 1 10t3 14l7 35h70l11 52q17 78 61.5 122.5t107.5 44.5q13 0 29 -3t29.5 -8t23 -13.5
t9.5 -18.5q0 -6 -3 -18l-9 -29q-29 13 -60 13q-38 0 -59 -27.5t-32 -77.5l-8 -37h182l11 52q17 78 61.5 122.5t107.5 44.5q13 0 27.5 -2.5t26.5 -7.5t20 -13t8 -18q0 -6 -3 -18l-9 -29q-25 11 -51 11q-38 0 -59 -27.5t-32 -77.5zM839 589q-29 0 -41.5 11.5t-12.5 29.5
q0 32 18 50.5t53 18.5q29 0 42 -12t13 -29q0 -32 -18 -50.5t-54 -18.5z" />
    <glyph glyph-name="f_f_l" unicode="ffl" horiz-adv-x="904" 
d="M778 510l42 208h70q24 0 24 -19q0 -5 -2 -14.5t-7 -33.5l-103 -518q-2 -8 -3 -16.5t-1 -16.5q0 -14 8.5 -18.5t17.5 -4.5q15 0 25.5 2t18.5 2q9 0 13 -6.5t8 -34.5l3 -21q-8 -5 -39 -14t-65 -9q-43 0 -68 20.5t-25 59.5q0 22 6 51l62 307h-186l-65 -342
q-7 -38 -21.5 -84.5t-39 -86.5t-60.5 -67t-85 -27q-18 0 -35.5 7.5t-17.5 29.5q0 9 3 21l5 20q5 -1 10 -1h10q51 0 82 42.5t50 143.5l63 344h-181l-65 -342q-7 -38 -21.5 -84.5t-39 -86.5t-60.5 -67t-85 -27q-25 0 -39 9.5t-14 27.5q0 9 3 21l5 20q12 -1 20 -1q51 0 82 42.5
t50 143.5l63 344h-43q-23 0 -23 17q0 4 1 10t10 49h70l11 52q17 78 61.5 122.5t107.5 44.5q13 0 29 -3t29.5 -8t23 -13.5t9.5 -18.5q0 -9 -7 -32l-5 -15q-29 13 -60 13q-38 0 -59 -27.5t-32 -77.5l-8 -37h182l11 52q17 78 61.5 122.5t107.5 44.5q13 0 29 -3t29.5 -8
t23 -13.5t9.5 -18.5q0 -9 -5 -25l-7 -22q-29 13 -60 13q-38 0 -59 -27.5t-32 -77.5l-8 -37h187z" />
    <glyph glyph-name=".notdef" horiz-adv-x="500" 
d="M50 0v750h400v-750h-400zM400 50v650h-300v-650h300z" />
    <glyph glyph-name=".null" horiz-adv-x="0" 
 />
    <glyph glyph-name=".null" horiz-adv-x="0" 
 />
    <glyph glyph-name=".null" horiz-adv-x="0" 
 />
    <glyph glyph-name="nonmarkingreturn" unicode="&#x9;" horiz-adv-x="206" 
 />
    <glyph glyph-name="nonmarkingreturn" unicode="&#xd;" horiz-adv-x="206" 
 />
    <glyph glyph-name="space" unicode=" " horiz-adv-x="206" 
 />
    <glyph glyph-name="exclam" unicode="!" horiz-adv-x="258" 
d="M133 231q0 18 5 51.5t11.5 74t14.5 82.5t14 75l35 179h75q14 0 18 -5t4 -13q0 -4 -2 -15t-4 -23l-14 -67q-18 -83 -41.5 -178t-46.5 -182h-49q-10 0 -15 4.5t-5 16.5zM126 -6q-28 0 -42.5 13t-14.5 36q0 38 21 58t56 20q28 0 42.5 -12.5t14.5 -34.5q0 -38 -20.5 -59
t-56.5 -21z" />
    <glyph glyph-name="quotedbl" unicode="&#x22;" horiz-adv-x="328" 
d="M167 693h73q18 0 18 -15q0 -8 -6 -32.5t-14.5 -55t-18.5 -63.5t-17 -57h-49q-18 0 -18 16q0 7 1 17.5t4 27.5zM325 693h73q18 0 18 -15q0 -8 -6 -32.5t-14.5 -55t-18.5 -63.5t-17 -57h-49q-18 0 -18 16q0 7 1 17.5t4 27.5z" />
    <glyph glyph-name="numbersign" unicode="#" horiz-adv-x="565" 
d="M494 671h63q5 0 9 -2.5t4 -9.5q0 -3 -9.5 -44.5t-24.5 -104.5h57q21 0 21 -19v-58h-97l-44 -185h68q21 0 21 -19v-58h-108l-41 -171h-62q-13 0 -13 12q0 2 10 46.5t27 112.5h-134l-41 -171h-62q-13 0 -13 12q0 2 10 46.5t27 112.5h-60q-20 0 -20 20v57h98l44 185h-70
q-20 0 -20 20v57h108l39 161h63q5 0 9 -2.5t4 -9.5q0 -3 -9.5 -44.5t-24.5 -104.5h132zM260 248h133l44 185h-133z" />
    <glyph glyph-name="dollar" unicode="$" horiz-adv-x="536" 
d="M453 663q45 -11 75 -27.5t30 -36.5q0 -13 -8 -29l-14 -29q-12 10 -39 22.5t-65 20.5l-56 -200q29 -15 54.5 -31.5t45 -38t31 -48.5t11.5 -62q0 -49 -19 -86.5t-52.5 -63.5t-78.5 -39.5t-97 -13.5l-27 -99h-34q-11 1 -14.5 4.5t-3.5 8.5t1 9.5t3 11.5l19 70q-9 1 -32 6.5
t-46 14.5t-41 21.5t-18 27.5q0 8 2.5 14.5t5.5 13.5l16 33q29 -18 63 -31.5t73 -18.5l63 229q-30 16 -56.5 33.5t-46 38.5t-31 47t-11.5 59q0 38 15 70.5t43 56.5t67.5 38t88.5 14q15 0 29 -2l27 96h33q11 0 14.5 -4t3.5 -10q0 -4 -8 -33zM294 86q61 4 94.5 31.5t33.5 78.5
q0 31 -17.5 52.5t-53.5 41.5zM250 501q0 -18 6.5 -32t17 -24.5t24.5 -18.5t29 -16l50 181q-10 2 -23 2q-21 0 -39.5 -5t-33 -16.5t-23 -29t-8.5 -41.5z" />
    <glyph glyph-name="percent" unicode="%" horiz-adv-x="795" 
d="M250 382q22 0 40 16t31 40t19.5 53t6.5 56q0 33 -10.5 53t-37.5 20q-23 0 -40.5 -16t-30.5 -40t-19.5 -53t-6.5 -55q0 -35 10.5 -54.5t37.5 -19.5zM240 314q-51 0 -83.5 35t-32.5 99q0 51 14 94.5t39 76t59 51t75 18.5q50 0 82 -34.5t32 -98.5q0 -51 -13.5 -95
t-38.5 -76.5t-59 -51t-74 -18.5zM624 58q22 0 40 16t31 40t19.5 53t6.5 56q0 33 -10.5 53t-37.5 20q-23 0 -40.5 -16t-30.5 -40t-19.5 -53t-6.5 -55q0 -35 10.5 -54.5t37.5 -19.5zM614 -10q-51 0 -83.5 35t-32.5 99q0 51 14 94.5t39 76t59 51t75 18.5q50 0 82 -34.5
t32 -98.5q0 -51 -13.5 -95t-38.5 -76.5t-59 -51t-74 -18.5zM257 0h-53q-19 0 -19 14q0 8 8 19l475 644h53q19 0 19 -14q0 -8 -8 -19z" />
    <glyph glyph-name="ampersand" unicode="&#x26;" horiz-adv-x="609" 
d="M58 150q0 40 14.5 72.5t39 59.5t58 49.5t72.5 42.5q-23 29 -40.5 66.5t-17.5 81.5q0 33 12.5 65.5t37.5 58t62.5 41.5t88.5 16q71 0 115.5 -35t44.5 -101q0 -36 -13.5 -65t-36.5 -54t-55.5 -46.5t-69.5 -41.5q36 -42 64 -76.5t52 -70.5q21 33 37 71.5t26 70.5h58
q17 0 17 -13q0 -5 -2 -14t-9 -28q-15 -44 -36 -84t-47 -75q20 -37 34 -71t23 -70h-74q-15 0 -21 14q-7 19 -13.5 33t-12.5 28q-42 -38 -94.5 -61.5t-124.5 -23.5q-86 0 -137.5 40.5t-51.5 119.5zM259 70q52 0 93 18.5t75 53.5q-29 49 -64 92.5t-72 84.5q-29 -15 -53.5 -30.5
t-43 -34.5t-29 -42t-10.5 -51q0 -48 30.5 -69.5t73.5 -21.5zM274 521q0 -34 13 -58.5t33 -47.5q32 16 57.5 31.5t43.5 32.5t27.5 37t9.5 45q0 32 -19 50.5t-58 18.5q-47 0 -77 -27.5t-30 -81.5z" />
    <glyph glyph-name="quotesingle" unicode="'" horiz-adv-x="170" 
d="M167 693h73q18 0 18 -15q0 -8 -6 -32.5t-14.5 -55t-18.5 -63.5t-17 -57h-49q-18 0 -18 16q0 7 1 17.5t4 27.5z" />
    <glyph glyph-name="parenleft" unicode="(" horiz-adv-x="290" 
d="M155 -59q-25 54 -38.5 116t-13.5 140t15 155t43.5 149.5t70.5 140t97 126.5h57q18 0 18 -13q0 -8 -14 -27q-43 -57 -78.5 -120.5t-60.5 -131t-39 -138t-14 -141.5q0 -80 13 -146.5t34 -132.5h-59q-14 0 -20 6t-11 17z" />
    <glyph glyph-name="parenright" unicode=")" horiz-adv-x="290" 
d="M256 745q24 -53 37 -114t13 -136q0 -159 -54.5 -306t-165.5 -271h-61q-17 0 -17 13q0 10 13 27q91 115 141.5 254.5t50.5 288.5q0 41 -3 76t-8.5 67t-13.5 62t-18 62h55q14 0 20 -6t11 -17z" />
    <glyph glyph-name="asterisk" unicode="*" horiz-adv-x="395" 
d="M330 504l77 -109l-53 -33q-2 -2 -5.5 -3.5t-7.5 -1.5q-11 0 -18 17l-41 98l-89 -121l-47 39q-7 6 -7 12t6 13t13 13l83 79l-121 26l22 56q7 17 18 17q5 0 10.5 -2t12.5 -5l86 -40l5 134h67q13 0 13 -12q0 -5 -1 -10.5t-3 -11.5l-26 -102l118 53l13 -40q4 -15 4 -24
q0 -11 -8 -15t-18 -6z" />
    <glyph glyph-name="plus" unicode="+" horiz-adv-x="518" 
d="M327 132h-63q-21 0 -21 15q0 3 1 10t3 15l26 128h-126q-22 0 -22 18q0 4 1 11.5t3 14.5l8 40h152l34 168h63q21 0 21 -15q0 -4 -1 -11t-3 -15l-26 -127h127q22 0 22 -19q0 -4 -1 -11t-3 -14l-8 -40h-153z" />
    <glyph glyph-name="comma" unicode="," horiz-adv-x="222" 
d="M191 72q0 -29 -15.5 -56.5t-34.5 -55.5l-57 -84h-45q-15 0 -15 11q0 7 10 23l58 92q-17 4 -27 13.5t-10 25.5q0 38 19.5 59t56.5 21q60 0 60 -49z" />
    <glyph glyph-name="hyphen" unicode="-" horiz-adv-x="372" 
d="M102 318h265q11 0 15 -4.5t4 -11.5q0 -4 -1 -10.5t-2 -10.5l-11 -53h-265q-11 0 -15 4.5t-4 11.5q0 4 1 10.5t2 10.5z" />
    <glyph glyph-name="period" unicode="." horiz-adv-x="222" 
d="M107 -6q-28 0 -42.5 14.5t-14.5 37.5q0 38 21 56.5t56 18.5q28 0 42.5 -14t14.5 -36q0 -38 -20.5 -57.5t-56.5 -19.5z" />
    <glyph glyph-name="slash" unicode="/" horiz-adv-x="367" 
d="M100 -83h-73q-17 0 -17 15q0 4 2 9l4 10l384 817h73q17 0 17 -15q0 -4 -2 -9l-4 -10z" />
    <glyph glyph-name="zero" unicode="0" horiz-adv-x="536" 
d="M198 208q0 -64 18.5 -95.5t63.5 -31.5q49 0 84 39.5t57.5 98t33 125.5t10.5 123q0 23 -3 46.5t-11.5 43t-24.5 32t-43 12.5q-33 0 -59.5 -18.5t-47 -49t-35.5 -70.5t-24.5 -83.5t-14 -88t-4.5 -83.5zM96 211q0 92 19.5 179t57.5 154.5t95 108t132 40.5q169 0 169 -222
q0 -85 -18 -171t-55.5 -155t-95 -112.5t-136.5 -43.5q-168 0 -168 222z" />
    <glyph glyph-name="one" unicode="1" horiz-adv-x="536" 
d="M367 579q-35 -13 -70.5 -28.5t-67.5 -28.5q-8 -3 -13.5 -5t-10.5 -2q-13 0 -13 14q0 3 1.5 12.5t3.5 17.5l8 40q60 27 103.5 45.5t78.5 30.5q28 10 44.5 14t27.5 4q25 0 25 -22q0 -5 -1 -10t-2 -13l-132 -648h-72q-14 0 -19 5t-5 14q0 6 3.5 25.5t8.5 40.5z" />
    <glyph glyph-name="two" unicode="2" horiz-adv-x="536" 
d="M350 276q-40 -27 -69 -51.5t-49.5 -48t-33.5 -45.5t-20 -44h270q23 0 23 -18q0 -6 -1 -14.5t-3 -16.5l-8 -38h-375q-11 0 -16.5 6.5t-5.5 15.5q0 4 1 11.5t4 18.5q10 42 26 78t40 69t59 65t85 67q20 15 52.5 36t63 47.5t53 56.5t22.5 63q0 38 -29.5 57t-74.5 19
q-33 0 -61.5 -7t-49.5 -15.5t-34 -15.5t-17 -7q-12 0 -12 14q0 2 0.5 4.5t1.5 9t3 18t6 32.5q12 7 30.5 16t42 16.5t51.5 12.5t58 5q33 0 66 -8t59 -26t42.5 -46.5t16.5 -69.5q0 -45 -17.5 -81t-47 -67.5t-69 -60t-83.5 -58.5z" />
    <glyph glyph-name="three" unicode="3" horiz-adv-x="536" 
d="M245 310q-21 0 -21 16q0 4 5 26l9 40h50q46 0 77 12t49.5 30.5t26 41t7.5 43.5q0 44 -26 68t-83 24q-30 0 -55.5 -5t-44.5 -11t-31.5 -11t-16.5 -5q-13 0 -13 16q0 4 0.5 7.5t1.5 8.5l9 39q28 17 71.5 30t96.5 13q86 0 137.5 -41t51.5 -119q0 -30 -9.5 -59.5t-28 -54
t-47 -42.5t-65.5 -25q53 -14 77.5 -49t24.5 -86q0 -54 -22 -96t-58 -71.5t-83.5 -45t-98.5 -15.5q-28 0 -58 4.5t-54.5 12t-40.5 18t-16 23.5q0 6 2 13.5t6 20.5l8 25q29 -12 64 -21t78 -9q80 0 125.5 39.5t45.5 104.5q0 47 -28 68.5t-85 21.5h-38z" />
    <glyph glyph-name="four" unicode="4" horiz-adv-x="536" 
d="M538 677q20 0 20 -17q0 -5 -1.5 -15t-4.5 -24l-73 -374h47q12 0 15.5 -4t3.5 -12t-6 -36l-5 -26h-71l-34 -169h-63q-24 0 -24 18q0 3 2.5 16.5t4.5 25.5l22 109h-258q-10 0 -18.5 3.5t-8.5 15.5q0 8 3 21.5t6 22.5q30 67 69 131t84 121t95.5 106t103.5 87h91zM385 247
l77 349q-39 -31 -79.5 -74t-76.5 -91t-66.5 -96t-50.5 -88h196z" />
    <glyph glyph-name="five" unicode="5" horiz-adv-x="536" 
d="M234 76q39 0 72 11t57 32t37.5 51.5t13.5 70.5q0 45 -27 71t-89 26q-20 0 -39.5 -2.5t-36 -5t-28.5 -5t-18 -2.5q-19 0 -19 18q0 5 2 14t4 20l79 302h305q14 0 19.5 -5t5.5 -13q0 -10 -4 -30l-7 -38h-250l-48 -181q12 2 26 3.5t32 1.5q39 0 74.5 -10t62 -30.5t42 -52.5
t15.5 -77q0 -52 -18.5 -98.5t-54 -81.5t-85.5 -55.5t-113 -20.5q-21 0 -49.5 3.5t-54.5 11t-44 18t-18 25.5q0 6 1.5 13t6.5 21l8 25q21 -9 58 -19.5t82 -10.5z" />
    <glyph glyph-name="six" unicode="6" horiz-adv-x="536" 
d="M568 587q-14 6 -44.5 15t-65.5 9q-85 0 -141.5 -56t-85.5 -182q26 28 61.5 44t80.5 16q35 0 65 -12t52.5 -34t35 -53t12.5 -70q0 -53 -16 -102.5t-47 -88t-77 -61.5t-106 -23q-42 0 -76 16t-57 44.5t-35.5 67t-12.5 82.5q0 110 23.5 201t67 156t104 101t134.5 36
q28 0 58 -5t57 -18q14 -7 21.5 -14t7.5 -19q0 -7 -2.5 -13.5t-4.5 -13.5zM350 352q-42 0 -78 -23t-58 -61q-5 -22 -7 -43t-2 -38q0 -18 4.5 -38.5t15.5 -37t29.5 -27.5t46.5 -11q33 0 59 15t44 39.5t27.5 56t9.5 63.5q0 50 -23 77.5t-68 27.5z" />
    <glyph glyph-name="seven" unicode="7" horiz-adv-x="536" 
d="M166 0q-21 0 -21 19q0 12 8.5 33t19.5 44q59 122 135 246.5t163 247.5h-280q-22 0 -22 17q0 5 2 16l4 22l6 32h382q12 0 17 -5t5 -13q0 -5 -1 -12.5t-3 -15.5l-7 -32q-107 -152 -191 -301.5t-144 -297.5h-73z" />
    <glyph glyph-name="eight" unicode="8" horiz-adv-x="536" 
d="M454 353q38 -21 59 -56t21 -83q0 -51 -18 -92.5t-51 -71t-79.5 -45.5t-103.5 -16q-43 0 -79.5 12t-62.5 34t-41 53.5t-15 70.5q0 74 39 127t108 76q-33 20 -48 53.5t-15 68.5q0 46 16.5 84t46 66t71 43.5t92.5 15.5q42 0 75.5 -12.5t57 -34t36 -51t12.5 -63.5
q0 -61 -31.5 -107.5t-89.5 -71.5zM182 170q0 -45 31.5 -72.5t79.5 -27.5q34 0 60.5 11t45 30.5t28.5 45t10 54.5q0 45 -26 75.5t-84 30.5q-33 0 -60 -11.5t-46 -31.5t-29 -46.5t-10 -57.5zM352 396q60 0 96 34.5t36 91.5q0 36 -21.5 63.5t-73.5 27.5q-60 0 -95.5 -36.5
t-35.5 -92.5q0 -35 22 -61.5t72 -26.5z" />
    <glyph glyph-name="nine" unicode="9" horiz-adv-x="536" 
d="M96 98q14 -7 44.5 -16.5t72.5 -9.5q85 0 142 56.5t86 184.5q-26 -29 -63.5 -44.5t-79.5 -15.5q-36 0 -66.5 11.5t-53 34t-35 55.5t-12.5 77q0 47 15.5 93.5t46.5 84t76.5 61t104.5 23.5q87 0 135 -58t48 -184q0 -82 -21 -164.5t-62.5 -148.5t-103 -107.5t-142.5 -41.5
q-29 0 -62 6t-59 17q-14 6 -21 13t-7 20t7 29zM319 334q42 0 78 23t58 61q5 19 7 39t2 37q0 20 -4.5 40.5t-15.5 37t-29.5 27t-46.5 10.5q-33 0 -59 -14.5t-44 -38.5t-27.5 -54.5t-9.5 -61.5q0 -50 23 -78t68 -28z" />
    <glyph glyph-name="colon" unicode=":" horiz-adv-x="222" 
d="M178 386q-28 0 -42.5 14.5t-14.5 37.5q0 38 21 56.5t56 18.5q28 0 42.5 -14t14.5 -36q0 -38 -20.5 -57.5t-56.5 -19.5zM107 -6q-28 0 -42.5 14.5t-14.5 37.5q0 38 21 56.5t56 18.5q28 0 42.5 -14t14.5 -36q0 -38 -20.5 -57.5t-56.5 -19.5z" />
    <glyph glyph-name="semicolon" unicode=";" horiz-adv-x="222" 
d="M191 72q0 -29 -15.5 -56.5t-34.5 -55.5l-57 -84h-45q-15 0 -15 11q0 7 10 23l58 92q-17 4 -27 13.5t-10 25.5q0 38 19.5 59t56.5 21q60 0 60 -49zM175 386q-28 0 -42.5 14.5t-14.5 37.5q0 38 21 56.5t56 18.5q28 0 42.5 -14t14.5 -36q0 -38 -20.5 -57.5t-56.5 -19.5z" />
    <glyph glyph-name="less" unicode="&#x3c;" horiz-adv-x="536" 
d="M258 340l207 -108q9 -5 13 -8.5t4 -11.5q0 -3 -1 -8.5t-3 -13.5l-11 -56l-291 159q-11 6 -15.5 10.5t-4.5 13.5q0 4 1 9.5t2 10.5l8 41l348 165q13 6 21 6q12 0 12 -12q0 -3 -1 -9t-3 -14l-10 -49z" />
    <glyph glyph-name="equal" unicode="=" horiz-adv-x="536" 
d="M541 397h-359q-22 0 -22 18q0 4 0.5 11t2.5 14l8 39h359q22 0 22 -19q0 -4 -1 -10.5t-3 -14.5zM506 196h-359q-22 0 -22 18q0 4 0.5 11t2.5 14l8 39h359q22 0 22 -19q0 -4 -1 -10.5t-3 -14.5z" />
    <glyph glyph-name="greater" unicode="&#x3e;" horiz-adv-x="536" 
d="M422 343l-207 108q-9 5 -13 8.5t-4 11.5q0 3 1 8.5t3 13.5l11 56l291 -159q11 -6 15.5 -10.5t4.5 -13.5q0 -4 -1 -9.5t-2 -10.5l-8 -41l-348 -165q-14 -6 -21 -6q-12 0 -12 12q0 3 1 9t3 14l10 49z" />
    <glyph glyph-name="question" unicode="?" horiz-adv-x="410" 
d="M183 206q-14 0 -20.5 4.5t-6.5 23.5q0 28 10 51t26.5 44t39 41t47.5 40q19 16 37.5 31.5t32 32t22 35t8.5 40.5q0 71 -89 71q-23 0 -42.5 -4t-35.5 -9.5t-27 -9.5t-17 -4q-9 0 -13 5t-4 13q0 5 1 14t3 19l4 21q21 11 62.5 24.5t95.5 13.5q76 0 118 -37t42 -100
q0 -35 -11 -63.5t-29.5 -53.5t-43.5 -47t-52 -44q-26 -21 -45 -37t-32.5 -32.5t-22.5 -36t-13 -46.5h-45zM164 -6q-27 0 -42 13t-15 36q0 38 21 58t57 20q27 0 41.5 -12.5t14.5 -34.5q0 -38 -20.5 -59t-56.5 -21z" />
    <glyph glyph-name="at" unicode="@" horiz-adv-x="815" 
d="M527 85q-2 10 -2 22q-22 -27 -52.5 -45.5t-72.5 -18.5q-59 0 -89.5 41.5t-30.5 112.5q0 54 16 108.5t47.5 98t78.5 71t108 27.5q40 0 71 -10t48 -18q24 -12 24 -29q0 -7 -1.5 -14t-4.5 -19l-41 -169q-3 -12 -6 -27t-6 -30.5t-5.5 -31t-3.5 -27.5q47 6 79 35.5t52 70.5
t29 87.5t9 86.5q0 53 -16 90.5t-45.5 61.5t-70.5 35t-90 11q-91 0 -163 -36t-121.5 -96t-75.5 -138t-26 -162q0 -68 17.5 -114.5t50 -75.5t78.5 -42t102 -13q32 0 63.5 3.5t63.5 10.5q11 2 18.5 4t10.5 2q13 0 17 -18l11 -45q-40 -16 -93 -24.5t-106 -8.5q-68 0 -126.5 17
t-101.5 55t-68 98t-25 146q0 109 35 203.5t98 163.5t151 108.5t195 39.5q55 0 109 -14.5t96.5 -47t69 -84.5t26.5 -128q0 -64 -18 -127.5t-53.5 -114.5t-89 -83t-125.5 -32q-20 0 -31 9t-14 24zM525 425q-40 0 -69 -21.5t-48 -54.5t-28.5 -73t-9.5 -78q0 -32 12 -53.5
t44 -21.5q29 0 54.5 15.5t43.5 36.5l57 240q-11 5 -25 7.5t-31 2.5z" />
    <glyph glyph-name="A" unicode="A" horiz-adv-x="524" 
d="M193 194q-20 -50 -38.5 -99.5t-32.5 -94.5h-71q-12 0 -17 5t-5 13q0 10 3 19.5t8 23.5q38 107 112.5 268t195.5 364h89q28 0 34 -31q11 -68 20 -171.5t9 -224.5q0 -74 -2 -140t-6 -126h-75q-22 0 -22 23q0 6 1 25t2.5 44t3 52t2.5 50h-211zM391 611q-26 -47 -47.5 -89.5
t-41.5 -83t-38.5 -81t-37.5 -82.5h179q1 13 1.5 26t0.5 24q0 70 -2.5 140t-13.5 146z" />
    <glyph glyph-name="B" unicode="B" horiz-adv-x="541" 
d="M180 81h86q36 0 66.5 8t53.5 25t36 43t13 63q0 96 -117 96h-91zM242 394h84q65 0 107 33.5t42 100.5q0 47 -30.5 68t-81.5 21q-24 0 -43 -2t-34 -4zM205 682q36 8 78 13t91 5q36 0 72 -8.5t64 -27.5t45.5 -49.5t17.5 -74.5q0 -66 -33 -114t-96 -71q46 -18 68 -55.5
t22 -81.5q0 -57 -22 -98t-59.5 -67.5t-86 -39.5t-101.5 -13h-170q-23 0 -23 17q0 14 10 60z" />
    <glyph glyph-name="C" unicode="C" horiz-adv-x="489" 
d="M450 703q20 0 42.5 -4t41 -10.5t31 -16t12.5 -20.5q0 -10 -7 -29l-11 -28q-16 6 -43 13t-59 7q-63 0 -109.5 -37t-77.5 -93.5t-46 -124.5t-15 -130q0 -79 26 -114t88 -35q27 0 49.5 6.5t44.5 15.5q7 3 13.5 5.5t11.5 2.5q8 0 12.5 -6.5t8.5 -17.5l15 -44
q-30 -21 -74.5 -37.5t-98.5 -16.5q-99 0 -150.5 56.5t-51.5 175.5q0 57 10.5 115t31 111.5t50 100t68 81t85.5 54.5t102 20z" />
    <glyph glyph-name="D" unicode="D" horiz-adv-x="575" 
d="M96 0q-14 0 -19 5t-5 14q0 5 2 17t5 27.5t6.5 32.5t6.5 32l112 555q27 6 65 11t76 5q118 0 186 -65.5t68 -200.5q0 -89 -26.5 -167.5t-75 -137.5t-117 -93.5t-153.5 -34.5h-131zM183 84h49q57 0 105.5 26.5t84.5 73.5t56 112.5t20 142.5q0 94 -36.5 136t-111.5 42
q-17 0 -32 -1.5t-29 -3.5z" />
    <glyph glyph-name="E" unicode="E" horiz-adv-x="506" 
d="M205 693h354q23 0 23 -18q0 -4 -1 -11t-3 -17l-8 -40h-284l-43 -213h230q23 0 23 -19q0 -4 -1 -11t-3 -17l-8 -40h-258l-45 -221h266q23 0 23 -18q0 -4 -1 -11t-3 -17l-8 -40h-362q-14 0 -19 5t-5 14q0 6 3.5 23.5t7.5 38.5z" />
    <glyph glyph-name="F" unicode="F" horiz-adv-x="469" 
d="M288 607l-43 -217h210q23 0 23 -18q0 -4 -1.5 -12t-3.5 -17l-8 -40h-237l-60 -303h-72q-14 0 -19 5t-5 14q0 6 3 23.5t8 38.5l122 612h342q23 0 23 -18q0 -4 -1 -11t-3 -17l-8 -40h-270z" />
    <glyph glyph-name="G" unicode="G" horiz-adv-x="564" 
d="M585 590q-18 7 -49 15.5t-73 8.5q-68 0 -116 -35.5t-79 -91t-45.5 -122.5t-14.5 -130q0 -33 7 -61.5t23 -50.5t42.5 -34.5t66.5 -12.5q25 0 48 3.5t36 7.5l39 193h-77q-20 0 -20 18q0 3 0.5 7.5t2.5 15.5l8 43h164q14 0 18.5 -4.5t4.5 -12.5q0 -6 -3 -21l-5 -25l-55 -281
q-35 -14 -80.5 -22.5t-96.5 -8.5t-93 14.5t-72 44t-46.5 74t-16.5 105.5q0 85 23.5 170.5t69 153t112 110t152.5 42.5q31 0 57.5 -4.5t46 -12t30.5 -16.5t11 -19q0 -6 -3 -15.5t-6 -17.5z" />
    <glyph glyph-name="H" unicode="H" horiz-adv-x="595" 
d="M521 0h-72q-14 0 -19 5t-5 14q0 6 3 25t8 41l45 226h-251l-62 -311h-72q-14 0 -19 5t-5 14q0 6 3 25t8 41l122 608h72q14 0 19 -5t5 -14q0 -6 -3 -24t-8 -40l-43 -211h252l59 294h72q14 0 19 -5t5 -14q0 -6 -3.5 -24t-7.5 -40z" />
    <glyph glyph-name="I" unicode="I" horiz-adv-x="246" 
d="M170 0h-72q-14 0 -19 5t-5 14q0 6 3 25t8 41l122 608h72q14 0 19 -5t5 -14q0 -6 -3.5 -24t-7.5 -40z" />
    <glyph glyph-name="J" unicode="J" horiz-adv-x="360" 
d="M329 693h72q14 0 19 -5t5 -14q0 -3 -1.5 -12l-3.5 -21l-80 -386q-12 -56 -26.5 -104t-38 -83.5t-59.5 -56t-90 -20.5q-24 0 -44.5 4.5t-35 11.5t-23 15t-8.5 15q0 8 2 15t7 21l9 26q12 -6 35 -12.5t49 -6.5q27 0 46 10t32 28.5t22 43.5t15 55z" />
    <glyph glyph-name="K" unicode="K" horiz-adv-x="505" 
d="M250 410q63 50 131.5 122.5t130.5 160.5h82q16 0 16 -14q0 -10 -13 -27q-23 -32 -52 -68t-63.5 -73.5t-73.5 -74.5t-81 -70q28 -35 53 -78.5t46.5 -91.5t39.5 -98t32 -98h-78q-17 0 -24.5 9t-11.5 21q-11 34 -25 72.5t-32 78.5t-40.5 80t-51.5 78l-67 -339h-72
q-14 0 -19 5t-5 13q0 7 3 26t8 41l122 608h72q14 0 19 -5t5 -14q0 -6 -3.5 -24t-7.5 -40z" />
    <glyph glyph-name="L" unicode="L" horiz-adv-x="445" 
d="M186 88h235q23 0 23 -18q0 -4 -1 -12.5t-3 -15.5l-8 -42h-336q-14 0 -19 5t-5 14q0 6 3 23.5t8 38.5l122 612h73q14 0 19 -5t5 -14q0 -6 -3.5 -23.5t-8.5 -38.5z" />
    <glyph glyph-name="M" unicode="M" horiz-adv-x="684" 
d="M539 52q16 88 27 148t18.5 103t13 74t10.5 59.5t10 59t12 73.5l-217 -393h-55q-14 0 -18.5 6t-6.5 17l-51 369q-15 -63 -32 -137.5t-34.5 -150.5t-33.5 -149t-28 -131h-70q-22 0 -22 17q0 8 3 23.5t5 24.5q13 60 23.5 106.5t20 87t19 81.5t22 90.5t29 112.5t38.5 150h93
q21 0 24 -27l55 -395l226 422h90q25 0 25 -19q0 -5 -1 -14.5t-3 -18.5q-4 -27 -11 -71t-15.5 -99.5t-18 -118t-19.5 -124.5t-20 -121t-19 -107h-72q-22 0 -22 18q0 6 1.5 16t3.5 18z" />
    <glyph glyph-name="N" unicode="N" horiz-adv-x="597" 
d="M525 0h-73q-24 0 -29 23q-8 30 -19.5 70.5t-25 86.5t-28.5 94.5t-29.5 95t-28 87.5t-24.5 72l-106 -529h-67q-23 0 -23 19q0 6 3 23.5t8 38.5l122 612h67q17 0 23.5 -4.5t11.5 -18.5q11 -30 30.5 -89t42 -129.5t45 -143.5t39.5 -133l104 518h66q14 0 19 -5t5 -14
q0 -6 -3.5 -23.5t-7.5 -38.5z" />
    <glyph glyph-name="O" unicode="O" horiz-adv-x="610" 
d="M211 233q0 -32 7 -60t21 -49t34.5 -33t48.5 -12q53 0 93.5 35t68 90.5t41.5 124t14 134.5q0 31 -7 58.5t-20.5 47.5t-34 32t-48.5 12q-52 0 -92.5 -33t-68.5 -86.5t-42.5 -121.5t-14.5 -139zM316 -11q-97 0 -152.5 64t-55.5 185q0 97 24 182t67.5 148t103.5 99t132 36
q46 0 84.5 -16.5t65.5 -48t42 -77t15 -104.5q0 -96 -23.5 -181t-66.5 -149t-103 -101t-133 -37z" />
    <glyph glyph-name="P" unicode="P" horiz-adv-x="529" 
d="M166 0h-70q-14 0 -19 5t-5 14q0 15 7 44t12 56l113 563q39 9 83.5 13.5t91.5 4.5q43 0 81.5 -10.5t67 -33.5t45 -58.5t16.5 -85.5q0 -60 -18 -109t-51.5 -84t-80.5 -54.5t-105 -19.5t-116 15zM234 341q23 -6 45 -9.5t48 -3.5q40 0 70.5 14.5t50.5 39t30 58t10 72.5
q0 55 -32 81.5t-88 26.5q-24 0 -41 -1.5t-37 -4.5z" />
    <glyph glyph-name="Q" unicode="Q" horiz-adv-x="610" 
d="M310 -11q-97 0 -149.5 64t-52.5 185q0 97 25 182t69.5 148t105 99t132.5 36q94 0 148 -64t54 -182q0 -69 -13 -133t-37 -119t-58.5 -98.5t-76.5 -71.5q21 -31 44 -73.5t39 -87.5h-85q-13 0 -17 6t-8 17q-6 13 -13 27t-15 27.5t-15 25t-13 20.5q-32 -8 -64 -8zM211 233
q0 -32 6 -60t18.5 -49t32.5 -33t48 -12q53 0 94.5 35t70 90.5t43.5 124t15 134.5q0 31 -6 58.5t-19 47.5t-32.5 32t-47.5 12q-52 0 -93 -33t-70 -86.5t-44.5 -121.5t-15.5 -139z" />
    <glyph glyph-name="R" unicode="R" horiz-adv-x="530" 
d="M165 0h-70q-23 0 -23 19q0 3 1.5 12.5t4 21.5l5 24t4.5 20l117 585q35 8 76 13t85 5q112 0 165 -44.5t53 -131.5q0 -74 -41 -131.5t-113 -86.5q14 -31 27 -72.5t23.5 -85t18 -83t10.5 -65.5h-77q-14 0 -20 6.5t-8 20.5q-3 25 -9.5 59.5t-15 70.5t-19 69.5t-20.5 58.5
q-8 -1 -17 -1.5t-18 -0.5h-82zM238 362h92q28 0 55 10t48.5 30t34.5 49.5t13 67.5q0 54 -29 77.5t-92 23.5q-21 0 -39 -1.5t-32 -3.5z" />
    <glyph glyph-name="S" unicode="S" horiz-adv-x="489" 
d="M250 -10q-54 0 -96 12t-61 24q-19 11 -28 19t-9 19q0 6 2 14t5 16l13 32q28 -17 71 -32t98 -15q29 0 55 7.5t45.5 22.5t31 37t11.5 51q0 40 -23.5 65.5t-76.5 52.5q-31 16 -58.5 33t-48.5 38.5t-33 49.5t-12 66q0 42 15 79t42.5 64t67.5 42.5t91 15.5q48 0 80.5 -8.5
t59.5 -22.5q20 -11 27 -19.5t7 -18.5q0 -11 -7 -28l-13 -29q-9 5 -24 11.5t-34.5 12.5t-43.5 10t-49 4q-57 0 -89 -29t-32 -72q0 -23 7.5 -39.5t21 -29.5t32.5 -23.5t42 -22.5q34 -18 62 -36.5t47 -41.5t29.5 -51.5t10.5 -65.5q0 -50 -18 -90t-49.5 -67.5t-74.5 -42
t-94 -14.5z" />
    <glyph glyph-name="T" unicode="T" horiz-adv-x="500" 
d="M315 605h-150q-23 0 -23 18q0 4 1 12.5t3 15.5l8 42h430q22 0 22 -18q0 -4 -1 -12.5t-3 -15.5l-7 -42h-180l-121 -605h-72q-14 0 -19 5t-5 14q0 6 3.5 25t8.5 41z" />
    <glyph glyph-name="U" unicode="U" horiz-adv-x="589" 
d="M221 259q-4 -19 -8 -44.5t-4 -48.5q0 -40 21 -64t76 -24q69 0 105.5 42.5t51.5 116.5l92 456h74q14 0 18.5 -5t4.5 -14q0 -6 -4 -27.5t-7 -36.5l-73 -365q-14 -69 -36.5 -118t-55.5 -79.5t-76.5 -44.5t-98.5 -14q-41 0 -76 9t-61 29t-41 52.5t-15 79.5q0 23 4.5 54.5
t9.5 59.5l84 420h73q14 0 19.5 -5t5.5 -14q0 -3 -1.5 -10.5t-3 -17t-4 -19.5t-3.5 -17z" />
    <glyph glyph-name="V" unicode="V" horiz-adv-x="508" 
d="M595 693q11 0 14 -4t3 -10q0 -3 -2 -10.5t-4 -14.5q-26 -74 -60 -160.5t-73.5 -174.5t-82 -170.5t-83.5 -148.5h-91q-18 0 -26 9.5t-11 29.5q-6 41 -11 83.5t-8 90t-5 102t-2 119.5q0 66 1.5 129t5.5 130h81q11 0 16 -6.5t5 -17.5q0 -17 -1.5 -38.5t-3 -50t-3 -66
t-1.5 -86.5q0 -38 0.5 -80.5t2 -86t4 -87t5.5 -82.5q43 81 80.5 164.5t69 162.5t56 149t41.5 125h83z" />
    <glyph glyph-name="W" unicode="W" horiz-adv-x="777" 
d="M289 0h-88q-26 0 -29 25q-8 72 -12 146.5t-4 159.5q0 90 4.5 179t15.5 183h78q20 0 20 -19q0 -6 -0.5 -16.5t-2.5 -20.5q-9 -74 -14.5 -153t-5.5 -183q0 -48 1 -97t3 -101l206 528h54q18 0 25.5 -10.5t7.5 -27.5l4 -60q2 -31 3.5 -69t2.5 -78t1.5 -80t0.5 -74v-31
t-0.5 -23t-0.5 -28v-45q67 155 116 301.5t91 286.5h74q20 0 20 -16q0 -3 -1.5 -8.5t-3.5 -14.5q-16 -56 -41.5 -134t-58.5 -166t-72 -180t-81 -174h-93q-23 0 -23 26q0 38 -0.5 84t-1 103.5t-0.5 128.5v159z" />
    <glyph glyph-name="X" unicode="X" horiz-adv-x="538" 
d="M58 0q-25 0 -25 15q0 6 2 13.5t9 21.5q15 29 38 67t53 79t65.5 83t74.5 80q-19 34 -37 75t-32.5 84.5t-25 88t-14.5 86.5h84q11 0 15 -7.5t6 -15.5q14 -77 32 -137.5t48 -117.5q24 27 51 61t53 71t49 74.5t39 71.5h74q19 0 19 -15q0 -10 -11 -32q-16 -30 -41.5 -68
t-56 -77.5t-63.5 -78.5t-64 -71q45 -72 72.5 -161.5t41.5 -189.5h-78q-15 0 -20 7t-7 20q-14 75 -32 140t-52 124q-32 -34 -61 -71t-54.5 -75t-47 -75t-37.5 -70h-67z" />
    <glyph glyph-name="Y" unicode="Y" horiz-adv-x="503" 
d="M605 651q-47 -95 -107.5 -190.5t-148.5 -201.5l-51 -259h-73q-14 0 -19 5t-5 13q0 7 3.5 26t8.5 41l37 182q-22 56 -38 108t-28 104t-20 104.5t-12 109.5h84q14 0 17 -6.5t5 -20.5q3 -30 7.5 -66.5t11.5 -76.5t17 -82.5t24 -85.5q33 42 62.5 86.5t55 88.5t46 85.5
t34.5 77.5h73q23 0 23 -17q0 -11 -7 -25z" />
    <glyph glyph-name="Z" unicode="Z" horiz-adv-x="482" 
d="M451 0h-397q-23 0 -23 18q0 13 10 65q40 55 89 119.5t102.5 132.5t110 137t112.5 133h-273q-23 0 -23 18q0 4 2 16.5t10 53.5h385q22 0 22 -18q0 -10 -11 -68q-60 -69 -119 -140t-113 -138t-101 -128.5t-83 -112.5h290q22 0 22 -18q0 -7 -2.5 -21t-9.5 -49z" />
    <glyph glyph-name="bracketleft" unicode="[" horiz-adv-x="337" 
d="M289 -83h-202q-22 0 -22 18q0 6 5 29l161 804h204q9 0 15 -4.5t6 -12.5q0 -5 -1 -12.5t-3 -15.5l-7 -34h-136l-141 -693h110q22 0 22 -18q0 -5 -1 -12t-3 -15z" />
    <glyph glyph-name="backslash" unicode="\" horiz-adv-x="395" 
d="M422 -83h-71q-12 0 -18.5 6t-10.5 21l-208 824h71q12 0 18.5 -6t10.5 -21z" />
    <glyph glyph-name="bracketright" unicode="]" horiz-adv-x="337" 
d="M180 768h202q22 0 22 -18q0 -6 -5 -29l-161 -804h-204q-9 0 -15 4.5t-6 12.5q0 5 1 12.5t3 15.5l7 34h136l141 693h-110q-22 0 -22 18q0 5 1 12t3 15z" />
    <glyph glyph-name="asciicircum" unicode="^" horiz-adv-x="519" 
d="M210 337h-69q-17 0 -17 13q0 7 9 19l217 312h60q13 0 17.5 -4t8.5 -17l92 -323h-72q-11 0 -16 4.5t-9 18.5l-59 213z" />
    <glyph glyph-name="underscore" unicode="_" horiz-adv-x="500" 
d="M497 -130h-519l17 90h519z" />
    <glyph glyph-name="grave" unicode="`" horiz-adv-x="329" 
d="M206 693q12 -28 23 -56t25 -62h-48q-13 0 -23 14l-76 119h78q13 0 21 -15z" />
    <glyph glyph-name="a" unicode="a" horiz-adv-x="510" 
d="M363 444q-44 0 -77.5 -23.5t-56.5 -61.5t-35 -86t-12 -98q0 -19 2.5 -37t10.5 -32t22 -22.5t37 -8.5q35 0 63.5 19t48.5 47l68 291q-8 3 -28 7.5t-43 4.5zM371 58q-36 -38 -72 -54t-76 -16q-66 0 -103.5 47t-37.5 133q0 69 18.5 133t54.5 113t88 78t119 29q42 0 80 -9
t58 -18t28 -16t8 -23q0 -7 -4.5 -29t-9.5 -41l-42 -177q-7 -29 -12 -63t-8 -65t-4.5 -53.5t-1.5 -26.5h-53q-14 0 -19 5.5t-7 17.5z" />
    <glyph glyph-name="b" unicode="b" horiz-adv-x="512" 
d="M255 469q29 29 61 40.5t64 11.5q65 0 104 -46.5t39 -131.5q0 -69 -18.5 -132.5t-54.5 -113t-89.5 -79t-122.5 -29.5q-39 0 -73.5 8t-54.5 16q-21 8 -29 16t-8 21q0 7 2.5 19t5.5 26l126 623h72q22 0 22 -17q0 -5 -2 -14.5t-4 -20.5zM352 440q-18 0 -35 -5.5t-31.5 -14
t-26.5 -18.5t-21 -19l-63 -303q9 -3 27.5 -7t42.5 -4q43 0 76.5 22t56.5 59.5t35 87t12 105.5q0 45 -18 71t-55 26z" />
    <glyph glyph-name="c" unicode="c" horiz-adv-x="409" 
d="M271 73q20 0 37.5 3t32.5 8q11 3 18.5 6t12.5 3q10 0 13.5 -7t7.5 -18l9 -35q-29 -19 -69.5 -31.5t-82.5 -12.5q-84 0 -127 50.5t-43 144.5q0 61 17 121t50.5 108t82.5 78t113 30q22 0 44 -4.5t38.5 -11.5t27 -16t10.5 -18q0 -5 -3 -12.5t-5 -13.5l-11 -26
q-10 5 -33.5 12.5t-57.5 7.5q-44 0 -76.5 -23t-54.5 -59.5t-32.5 -82t-10.5 -90.5q0 -51 20.5 -81t71.5 -30z" />
    <glyph glyph-name="d" unicode="d" horiz-adv-x="510" 
d="M482 208q-6 -28 -10.5 -62.5t-7.5 -65t-5 -53t-2 -27.5h-54q-14 0 -19 5.5t-7 17.5l-4 35q-36 -38 -74.5 -54t-76.5 -16q-69 0 -105.5 47t-36.5 133q0 69 19 132.5t54 112.5t85.5 78.5t112.5 29.5q25 0 48 -5t43 -13l44 215h68q26 0 26 -20q0 -5 -2 -13t-4 -19zM252 72
q34 0 64.5 19t50.5 46l61 294q-10 4 -28.5 8.5t-44.5 4.5q-41 0 -73 -22.5t-54.5 -60.5t-34.5 -87.5t-12 -103.5q0 -46 17.5 -72t53.5 -26z" />
    <glyph glyph-name="e" unicode="e" horiz-adv-x="469" 
d="M177 189v-18q0 -46 19.5 -72.5t72.5 -26.5q32 0 56.5 7t38.5 12q10 3 16 5t12 2q9 0 13 -6t9 -20l11 -34q-31 -20 -74.5 -34.5t-94.5 -14.5q-41 0 -73.5 11t-55 34.5t-35 60t-12.5 88.5q0 54 14.5 114t46.5 109.5t81.5 82t120.5 32.5q72 0 114.5 -36.5t42.5 -103.5
q0 -35 -14 -69t-48.5 -61.5t-92.5 -44.5t-146 -17h-22zM205 261q101 0 152.5 31.5t51.5 84.5q0 29 -17 48t-55 19q-34 0 -60 -15.5t-45 -41t-31 -58.5t-17 -68h21z" />
    <glyph glyph-name="f" unicode="f" horiz-adv-x="349" 
d="M194 434h-43q-23 0 -23 17q0 4 1 10t3 14l7 35h70l9 45q7 38 23.5 70t40 55t54 36t66.5 13q18 0 36.5 -3t34 -9t25.5 -14.5t10 -18.5q0 -6 -3 -18l-9 -30q-16 6 -35 10t-42 4q-47 0 -69 -27.5t-33 -75.5l-8 -37h90q23 0 23 -17q0 -4 -1 -10t-3 -14l-7 -35h-116l-65 -342
q-7 -38 -21.5 -84.5t-39 -86.5t-60.5 -67t-85 -27q-18 0 -35.5 7.5t-17.5 29.5q0 9 3 21l5 20q5 -1 10 -1h10q51 0 82 42.5t50 143.5z" />
    <glyph glyph-name="g" unicode="g" horiz-adv-x="507" 
d="M427 437q-8 2 -23 3.5t-36 1.5q-44 0 -78 -19t-57 -53t-35 -81t-12 -103q0 -38 16.5 -64t54.5 -26q31 0 60.5 15t49.5 39zM517 431l-76 -411q-10 -52 -32 -89.5t-53.5 -61.5t-71.5 -35t-85 -11q-48 0 -81.5 10t-42.5 15q-22 11 -22 29q0 7 2.5 16.5t7.5 21.5l8 19
q28 -13 60.5 -20.5t67.5 -7.5q66 0 102.5 30.5t47.5 81.5l9 44q-31 -28 -62 -37.5t-62 -9.5q-35 0 -63 12.5t-47 35t-29 53t-10 66.5q0 70 18.5 131.5t55.5 107.5t91 72t126 26q60 0 105 -6.5t60 -10.5q14 -3 19 -8.5t5 -12.5q0 -8 -3 -24l-7 -30z" />
    <glyph glyph-name="h" unicode="h" horiz-adv-x="528" 
d="M208 718h67q26 0 26 -20q0 -5 -2 -13t-4 -19l-40 -200q24 20 62 37.5t85 17.5q60 0 95.5 -32.5t35.5 -96.5q0 -17 -3.5 -43t-9.5 -58l-59 -291h-69q-16 0 -20.5 5.5t-4.5 13.5q0 5 2.5 17t4.5 25l48 239q6 30 8.5 47t2.5 34q0 58 -67 58q-42 0 -75 -19t-51 -38l-77 -382
h-69q-16 0 -20.5 5t-4.5 13q0 5 2.5 18.5t4.5 24.5z" />
    <glyph glyph-name="i" unicode="i" horiz-adv-x="231" 
d="M167 510h70q16 0 20.5 -5t4.5 -13q0 -6 -2.5 -18.5t-4.5 -24.5l-92 -449h-70q-15 0 -19.5 5.5t-4.5 13.5q0 5 2 16.5t5 25.5zM233 589q-29 0 -41.5 11.5t-12.5 29.5q0 32 18 50.5t53 18.5q29 0 42 -12t13 -29q0 -32 -18 -50.5t-54 -18.5z" />
    <glyph glyph-name="j" unicode="j" horiz-adv-x="234" 
d="M167 509h70q16 0 20.5 -5t4.5 -13q0 -6 -2.5 -18.5t-4.5 -24.5l-80 -393q-11 -53 -28 -95.5t-40.5 -73t-53.5 -47t-67 -16.5q-19 0 -36 7.5t-17 26.5q0 13 4 28l5 18q5 -1 9 -1h9q25 0 43 9t32 29.5t24.5 54t20.5 83.5zM233 589q-29 0 -41.5 11.5t-12.5 29.5
q0 32 18 50.5t53 18.5q29 0 42 -12t13 -29q0 -32 -18 -50.5t-54 -18.5z" />
    <glyph glyph-name="k" unicode="k" horiz-adv-x="486" 
d="M209 718h68q26 0 26 -20q0 -5 -3 -18t-5 -24l-71 -348q75 52 134 107.5t91 93.5h82q8 0 11.5 -3.5t3.5 -8.5q0 -7 -5 -14t-10 -13q-7 -9 -27.5 -30.5t-51 -49.5t-68.5 -58.5t-80 -56.5q67 -70 111 -143.5t70 -131.5h-82q-15 0 -23.5 5t-14.5 18q-25 51 -64 112.5
t-88 111.5l-50 -247h-69q-25 0 -25 19q0 5 2 15.5t4 21.5z" />
    <glyph glyph-name="l" unicode="l" horiz-adv-x="286" 
d="M184 133q-2 -8 -3 -16.5t-1 -16.5q0 -14 8.5 -18.5t17.5 -4.5q15 0 25.5 2t18.5 2q9 0 12.5 -6t5.5 -17l6 -39q-8 -5 -37.5 -14t-66.5 -9q-41 0 -67 19.5t-26 60.5q0 22 6 51l119 591h70q24 0 24 -19q0 -5 -2 -13t-4 -20z" />
    <glyph glyph-name="m" unicode="m" horiz-adv-x="800" 
d="M166 510h57q12 0 16 -3t5 -9q1 -5 1 -9.5v-10.5v-19q24 23 59.5 42.5t83.5 19.5q46 0 77 -18t43 -56q28 29 69.5 51.5t94.5 22.5q62 0 97 -32t35 -97q0 -38 -12 -101l-60 -291h-69q-16 0 -20.5 5.5t-4.5 13.5q0 5 2.5 17t4.5 25l48 239q6 30 8.5 47t2.5 34q0 28 -17 43
t-46 15q-20 0 -38 -6t-34 -15t-28.5 -20t-21.5 -21q-1 -14 -4 -36t-9 -50l-59 -291h-68q-17 0 -21.5 5.5t-4.5 13.5q0 5 2.5 17t4.5 25l48 239q6 30 8.5 47t2.5 34q0 58 -64 58q-40 0 -69 -19t-46 -38l-77 -382h-69q-16 0 -20.5 5.5t-4.5 13.5q0 5 2.5 18t4.5 24z" />
    <glyph glyph-name="n" unicode="n" horiz-adv-x="530" 
d="M167 510h57q20 0 21 -12q1 -5 1 -9v-10v-21q24 23 65.5 43t91.5 20q58 0 94.5 -31.5t36.5 -97.5q0 -18 -3.5 -43.5t-9.5 -57.5l-59 -291h-68q-16 0 -21 5.5t-5 13.5q0 5 2.5 17t4.5 25l48 239q6 30 8.5 47t2.5 34q0 58 -69 58q-21 0 -39.5 -5.5t-34.5 -14t-28.5 -18.5
t-21.5 -19l-77 -382h-70q-15 0 -19.5 5.5t-4.5 13.5q0 5 2.5 18t4.5 24z" />
    <glyph glyph-name="o" unicode="o" horiz-adv-x="518" 
d="M85 180q0 67 18 128.5t52 108.5t83.5 75.5t112.5 28.5q84 0 133 -48.5t49 -142.5q0 -66 -17 -128t-50.5 -109t-83 -75.5t-113.5 -28.5q-85 0 -134.5 47.5t-49.5 143.5zM183 182q0 -48 21 -79t67 -31q40 0 71 22t51.5 58.5t31 82.5t10.5 94q0 49 -20.5 79.5t-65.5 30.5
q-41 0 -72 -22.5t-52 -58.5t-31.5 -82t-10.5 -94z" />
    <glyph glyph-name="p" unicode="p" horiz-adv-x="517" 
d="M276 79q45 0 74.5 24t47 60.5t24.5 79.5t7 81q0 117 -125 117q-25 0 -46 -3l-66 -334q8 -6 29 -15.5t55 -9.5zM158 432h-18q-8 0 -14 3t-6 12q0 4 1 12.5t3 16.5l6 27q35 6 82 10.5t92 4.5q49 0 90.5 -12.5t71 -38.5t46 -66t16.5 -94q0 -51 -13.5 -105t-43 -98.5
t-74.5 -73.5t-108 -29q-29 0 -58.5 7t-54.5 24l-42 -202h-65q-11 0 -19 3t-8 15q0 8 5 33z" />
    <glyph glyph-name="q" unicode="q" horiz-adv-x="511" 
d="M432 439q-10 2 -25 3t-35 1q-45 0 -80.5 -21t-60.5 -57.5t-38 -85.5t-13 -104q0 -40 18.5 -65.5t56.5 -25.5q31 0 62.5 16t51.5 39zM352 47q-31 -26 -63 -36t-61 -10q-66 0 -107 44.5t-41 119.5q0 72 18.5 136.5t55.5 112.5t93 76.5t130 28.5q62 0 106 -6t65 -11
q14 -4 19 -9t5 -14q0 -5 -1.5 -14t-3.5 -16l-5 -22l-38 4q-26 -154 -57 -301t-61 -300h-66q-11 0 -18.5 3.5t-7.5 15.5q0 7 5 32q9 42 17 83t16 83z" />
    <glyph glyph-name="r" unicode="r" horiz-adv-x="352" 
d="M410 419q-9 2 -17.5 2h-14.5q-36 0 -75 -15.5t-68 -44.5l-72 -361h-70q-15 0 -19.5 5.5t-4.5 13.5q0 5 2.5 18t4.5 24l90 449h60q9 0 15 -3.5t6 -14.5q0 -5 -0.5 -11.5t-1.5 -13.5l-2 -25q27 29 66.5 49.5t84.5 20.5q31 0 31 -22q0 -6 -2 -15l-4 -18z" />
    <glyph glyph-name="s" unicode="s" horiz-adv-x="422" 
d="M207 -11q-41 0 -77.5 9t-56.5 18q-15 7 -22 13.5t-7 17.5q0 7 2.5 16t5.5 17l8 22q5 -3 19.5 -8t34 -10t42.5 -9t46 -4q22 0 43.5 4t38.5 13t27 24t10 38q0 24 -17.5 40.5t-65.5 33.5q-27 10 -51.5 21t-43.5 27t-30 37.5t-11 51.5q0 39 16 69t44 50.5t65.5 30.5t80.5 10
q48 0 80 -10t43 -15q14 -7 20 -14t6 -15q0 -11 -7 -30l-9 -23q-15 7 -51.5 17t-81.5 10q-18 0 -37 -3t-34.5 -11t-26 -22t-10.5 -37q0 -13 5.5 -22.5t17 -17t29 -15t41.5 -16.5q27 -11 50 -23t40 -28t26.5 -37.5t9.5 -51.5q0 -42 -17 -73.5t-45.5 -52.5t-67.5 -31.5
t-82 -10.5z" />
    <glyph glyph-name="t" unicode="t" horiz-adv-x="356" 
d="M175 434h-42q-23 0 -23 17q0 5 1.5 11.5t3.5 17.5l6 30h68l33 131h64q24 0 24 -18q0 -10 -5 -32l-17 -81h102q23 0 23 -17q0 -5 -1.5 -11.5t-3.5 -17.5l-6 -30h-128l-59 -290q-2 -12 -3 -21t-1 -16q0 -20 11.5 -27.5t28.5 -7.5q18 0 37 5t25 5q8 0 12 -5.5t7 -16.5l8 -36
q-26 -14 -58 -22t-65 -8q-50 0 -78 25t-28 73q0 21 3.5 43t8.5 44z" />
    <glyph glyph-name="u" unicode="u" horiz-adv-x="522" 
d="M493 208q-6 -29 -10.5 -62t-8 -63t-5.5 -53t-2 -30h-52q-14 0 -19.5 5t-7.5 18l-5 37q-28 -29 -69 -50t-92 -21q-61 0 -97.5 33.5t-36.5 99.5q0 13 3 38t10 59l59 291h69q15 0 20 -5.5t5 -13.5q0 -5 -2.5 -17t-4.5 -25l-48 -240q-6 -29 -8.5 -46t-2.5 -32q0 -60 67 -60
q20 0 38 5.5t34 14.5t28.5 19t21.5 19l77 381h69q15 0 20 -5t5 -13q0 -6 -2.5 -19t-4.5 -24z" />
    <glyph glyph-name="v" unicode="v" horiz-adv-x="453" 
d="M500 435q-20 -54 -47 -110.5t-57.5 -112.5t-65 -110t-69.5 -102h-53q-18 0 -26.5 5.5t-13.5 23.5q-10 33 -20.5 78t-19.5 96.5t-14.5 108t-5.5 113.5q0 17 0.5 36t2.5 49h70q15 0 20 -5.5t5 -25.5v-51q0 -99 7.5 -175.5t24.5 -149.5q54 90 103.5 195t84.5 212h69
q20 0 20 -16q0 -17 -15 -59z" />
    <glyph glyph-name="w" unicode="w" horiz-adv-x="693" 
d="M497 119q22 43 44.5 92t43 100t38.5 101.5t32 97.5h71q12 0 15.5 -4.5t3.5 -11.5q0 -8 -4 -23t-12 -36q-18 -52 -41.5 -108.5t-49.5 -113t-55.5 -111t-59.5 -102.5h-57q-18 0 -26 8t-10 26l-24 316l-163 -350h-58q-17 0 -25.5 5.5t-13.5 23.5q-20 88 -29 187t-9 209v36
t2 49h69q15 0 20.5 -5.5t5.5 -23.5q0 -8 -0.5 -34t-0.5 -71q0 -21 0.5 -51t2 -65.5t4.5 -74t8 -75.5l164 357h65q23 0 24 -23z" />
    <glyph glyph-name="x" unicode="x" horiz-adv-x="447" 
d="M497 510q22 0 22 -16q0 -15 -19 -43q-18 -27 -39 -53.5t-43 -51.5t-44.5 -47.5t-42.5 -40.5q22 -33 41.5 -70.5t33.5 -73t23 -66t12 -48.5h-69q-14 0 -22 5.5t-12 20.5q-5 18 -12 41t-16 47t-20 48.5t-24 45.5q-53 -48 -91.5 -101.5t-70.5 -106.5h-62q-23 0 -23 14
q0 8 6 21.5t14 24.5q34 50 76 101t105 106q-15 23 -32 51.5t-32 60t-28 65t-21 66.5h77q13 0 18 -6t10 -20q13 -39 32.5 -86t41.5 -80q42 42 83 93.5t69 98.5h59z" />
    <glyph glyph-name="y" unicode="y" horiz-adv-x="471" 
d="M50 -174q-23 0 -38.5 9.5t-15.5 26.5q0 9 3 26l4 20q5 -1 14.5 -1.5t17.5 -0.5q44 0 80.5 30t78.5 89q-17 37 -31 83.5t-24.5 98t-16.5 107t-6 111.5v36t2 49h72q14 0 19 -6t5 -25v-51q0 -91 9 -172t31 -150q57 91 102.5 191.5t83.5 212.5h70q12 0 15.5 -4.5t3.5 -11.5
q0 -8 -4.5 -22.5t-11.5 -36.5q-13 -39 -36 -91t-52.5 -108.5t-63 -113t-66.5 -103.5q-65 -92 -122 -142.5t-123 -50.5z" />
    <glyph glyph-name="z" unicode="z" horiz-adv-x="445" 
d="M403 0h-346q-12 0 -16 4.5t-4 12.5t5 31l6 29q66 78 153 170.5t177 182.5h-227q-21 0 -21 17q0 6 5 31l7 32h338q12 0 16 -4.5t4 -12.5q0 -5 -2 -13.5t-4 -19.5l-6 -30q-49 -48 -97 -97t-91.5 -94.5t-81 -86t-64.5 -72.5h240q21 0 21 -17q0 -7 -5 -30z" />
    <glyph glyph-name="braceleft" unicode="{" horiz-adv-x="337" 
d="M275 487q-5 -24 -11 -48.5t-15.5 -44.5t-24.5 -34t-38 -18q20 -7 32.5 -21t12.5 -41q0 -9 -2.5 -23t-6.5 -34l-27 -134q-2 -12 -5 -29.5t-3 -29.5q0 -41 50 -41q14 0 25 1.5t19 1.5q13 0 13 -9q0 -6 -10 -58q-20 -6 -43 -9.5t-42 -3.5q-51 0 -79.5 25.5t-28.5 71.5
q0 17 3.5 38.5t8.5 42.5l27 136q3 14 5.5 25t2.5 18q0 10 -4 14.5t-12 8.5q-9 4 -16 8t-7 14q0 4 1.5 10.5t13.5 61.5q28 1 40.5 12.5t20.5 50.5l34 170q6 29 14.5 56.5t24.5 49t41 34.5t63 13q11 0 27 -1t32 -4.5t26 -10.5t10 -17q0 -11 -10 -49q-10 2 -24.5 4t-31.5 2
q-23 0 -37.5 -7t-23 -19.5t-13.5 -31t-32 -151.5z" />
    <glyph glyph-name="bar" unicode="|" horiz-adv-x="257" 
d="M232 768h66q22 0 22 -17q0 -5 -2.5 -17t-4.5 -24l-159 -793h-66q-22 0 -22 17q0 5 2.5 16t4.5 23z" />
    <glyph glyph-name="braceright" unicode="}" horiz-adv-x="337" 
d="M188 197q5 24 11 48.5t15.5 44.5t24.5 34t38 18q-20 7 -32.5 21t-12.5 41q0 9 2.5 23t6.5 34l27 134q2 12 5 29.5t3 29.5q0 41 -50 41q-14 0 -25 -1.5t-19 -1.5q-13 0 -13 9q0 6 10 58q20 6 43 9.5t42 3.5q51 0 79.5 -25.5t28.5 -71.5q0 -17 -3.5 -38.5t-8.5 -42.5
l-27 -136q-3 -14 -5.5 -25t-2.5 -18q0 -10 3.5 -14t12.5 -9q12 -6 17.5 -9.5t5.5 -12.5q0 -3 -1.5 -9.5t-3.5 -15.5l-10 -47q-28 -1 -40.5 -12.5t-20.5 -50.5l-34 -170q-6 -29 -15 -56.5t-24.5 -49t-40.5 -34.5t-63 -13q-11 0 -27 1t-31 4.5t-26 10t-11 17.5q0 8 4 25l6 24
q10 -2 24.5 -4t31.5 -2q23 0 37.5 7t23 19.5t13 30.5t32.5 152z" />
    <glyph glyph-name="asciitilde" unicode="~" horiz-adv-x="457" 
d="M499 408q14 0 18 -5t4 -14q0 -29 -11 -53.5t-30 -42.5t-44 -28t-53 -10q-30 0 -55 12t-46 29q-19 16 -36 27t-36 11q-25 0 -36.5 -21t-19.5 -55h-46q-14 0 -18.5 5t-4.5 14q0 28 11.5 52.5t30 42.5t43.5 28.5t52 10.5q29 0 57.5 -14.5t53.5 -34.5q19 -15 32.5 -23
t31.5 -8q26 0 37 21t18 56h47z" />
    <glyph glyph-name="uni00A0" unicode="&#xa0;" horiz-adv-x="206" 
 />
    <glyph glyph-name="exclamdown" unicode="&#xa1;" horiz-adv-x="258" 
d="M226 292q0 -18 -5 -51.5t-11.5 -74t-14.5 -82.5t-14 -75l-35 -179h-75q-14 0 -18 5t-4 13q0 4 2 15t4 23l14 67q18 83 41.5 178t46.5 182h49q10 0 15 -4.5t5 -16.5zM233 529q28 0 42.5 -13t14.5 -36q0 -38 -21 -58t-56 -20q-28 0 -42.5 12.5t-14.5 34.5q0 38 20.5 59
t56.5 21z" />
    <glyph glyph-name="cent" unicode="&#xa2;" horiz-adv-x="536" 
d="M487 607q32 -6 53.5 -19t21.5 -25q0 -7 -2.5 -13t-5.5 -14l-11 -26q-8 4 -28 10.5t-49 10.5l-100 -365q21 0 36.5 3.5t27 7t20 7t15.5 3.5q9 0 13 -7t7 -18l9 -35q-26 -18 -65 -30.5t-86 -14.5l-25 -95h-35q-11 0 -14 4.5t-3 9.5q0 4 3 14.5t5 18.5l14 51
q-63 11 -96 58.5t-33 129.5q0 61 17 122t51.5 110t85 79.5t118.5 30.5l23 79h36q10 0 13 -4.5t3 -9.5q0 -4 -2.5 -14t-5.5 -21zM258 279q0 -42 12.5 -68.5t41.5 -37.5l97 357q-38 -7 -66.5 -31.5t-47.5 -59.5t-28 -77t-9 -83z" />
    <glyph glyph-name="sterling" unicode="&#xa3;" horiz-adv-x="536" 
d="M473 307h-154q-2 -36 -12 -68.5t-25 -60.5t-32.5 -51.5t-35.5 -39.5h267q12 0 16.5 -4.5t4.5 -13.5q0 -4 -1 -13t-3 -19l-7 -37h-373q-23 0 -23 19q0 5 2.5 17.5t4.5 25.5l5 25q48 44 80 99t37 121h-59q-21 0 -21 18q0 10 6 37l4 20h72q0 11 -0.5 19t-0.5 18
q0 61 13.5 111.5t42.5 86.5t74.5 56t110.5 20q16 0 38.5 -3.5t43.5 -10.5t35.5 -18t14.5 -25q0 -8 -4 -17.5t-7 -17.5l-9 -19q-23 10 -49.5 16t-57.5 6q-75 0 -109 -41t-38 -107q-1 -18 -1 -36v-38h139q21 0 21 -18q0 -8 -6 -38z" />
    <glyph glyph-name="currency" unicode="&#xa4;" horiz-adv-x="536" 
d="M324 226q27 0 50 10t39.5 28t26 42.5t9.5 53.5q0 42 -27 66t-72 24q-26 0 -48.5 -10.5t-39 -28.5t-25.5 -42.5t-9 -53.5q0 -42 25.5 -65.5t70.5 -23.5zM516 441q8 -15 11.5 -32t3.5 -40q0 -44 -14 -80t-35 -63l50 -64l-43 -37q-7 -6 -12 -9t-11 -3q-7 0 -10.5 4.5
t-11.5 14.5l-30 38q-46 -22 -99 -22q-65 0 -105 28l-83 -71l-29 37q-5 7 -7.5 11t-2.5 10q0 11 13 21l59 50q-6 14 -9.5 29t-3.5 33q0 49 13 89t37 69l-51 66l48 40q9 8 18 8q5 0 9 -3t7 -7l38 -51q21 10 44 15.5t49 5.5q63 0 106 -29l88 75l29 -37q10 -13 10 -20
q0 -11 -13 -22z" />
    <glyph glyph-name="yen" unicode="&#xa5;" horiz-adv-x="536" 
d="M342 103l-20 -103h-72q-14 0 -19.5 5t-5.5 13q0 4 1.5 14t4 22t5.5 25t5 24h-123q-21 0 -21 18q0 4 1 12t3 16l4 19h149l19 92h-123q-21 0 -21 19q0 4 1 10.5t3 14.5l4 22h115q-32 89 -49.5 172.5t-25.5 178.5h84q14 0 17.5 -6.5t4.5 -20.5q5 -58 18.5 -134.5
t40.5 -160.5q31 40 60 82.5t54 84t45 81t34 74.5h73q23 0 23 -17q0 -11 -7 -25q-39 -79 -86.5 -153.5t-111.5 -155.5h90q19 0 19 -18q0 -4 -1.5 -13.5t-3.5 -18.5l-3 -16h-153l-19 -92h129q19 0 19 -18q0 -4 -1.5 -13.5t-3.5 -17.5l-3 -16h-153z" />
    <glyph glyph-name="brokenbar" unicode="&#xa6;" horiz-adv-x="257" 
d="M232 768h66q22 0 22 -17q0 -5 -2.5 -17t-4.5 -24l-55 -275h-66q-22 0 -22 17q0 5 2.5 16t4.5 23zM129 250h66q22 0 22 -17q0 -5 -2.5 -17t-4.5 -24l-55 -275h-66q-22 0 -22 17q0 5 2.5 16t4.5 23z" />
    <glyph glyph-name="section" unicode="&#xa7;" horiz-adv-x="499" 
d="M98 285q0 59 35 101.5t94 68.5q-22 17 -36 40t-14 58q0 41 17.5 70t46 47.5t66 27t77.5 8.5q36 0 65 -5.5t49 -13t30.5 -17t10.5 -16.5q0 -5 -2 -11.5t-5 -15.5l-10 -27q-26 11 -58 19t-73 8q-15 0 -35 -2.5t-38 -9t-30.5 -19.5t-12.5 -34q0 -29 21.5 -44t63.5 -30
q31 -11 60 -23.5t52 -30.5t37 -43.5t14 -62.5q0 -59 -35 -101.5t-95 -68.5q23 -17 37.5 -41t14.5 -59q0 -43 -18 -73t-48.5 -49t-70 -27.5t-81.5 -8.5q-24 0 -47.5 3t-43.5 7.5t-35.5 9.5t-23.5 9t-16.5 11t-8.5 18q0 6 2 12t5 14l11 27q28 -12 67 -22.5t85 -10.5
q19 0 41 2.5t41 10t31 21.5t12 36q0 32 -21.5 47.5t-63.5 30.5q-31 11 -60.5 23.5t-52.5 30.5t-37 43t-14 62zM195 296q0 -22 8 -36.5t23.5 -25.5t38 -20.5t52.5 -20.5q47 17 77.5 50t30.5 75q0 23 -8 37.5t-23.5 25t-38 19.5l-52.5 21q-46 -18 -77 -50.5t-31 -74.5z" />
    <glyph glyph-name="dieresis" unicode="&#xa8;" horiz-adv-x="365" 
d="M146 589q-28 0 -40.5 11.5t-12.5 28.5q0 31 17.5 49.5t52.5 18.5q28 0 41 -11.5t13 -28.5q0 -31 -18 -49.5t-53 -18.5zM335 589q-28 0 -40.5 11.5t-12.5 28.5q0 31 17.5 49.5t52.5 18.5q28 0 41 -11.5t13 -28.5q0 -31 -18 -49.5t-53 -18.5z" />
    <glyph glyph-name="copyright" unicode="&#xa9;" horiz-adv-x="776" 
d="M411 -13q-65 0 -119 18.5t-93.5 54.5t-61.5 89.5t-22 123.5q0 94 27.5 173t78 136t120.5 89t155 32q67 0 123 -18.5t96.5 -55t63.5 -91t23 -125.5q0 -95 -28.5 -173.5t-80.5 -134.5t-123.5 -87t-158.5 -31zM421 60q68 0 124.5 25t97 71t63 109t22.5 140q0 61 -18.5 104.5
t-51 70.5t-76.5 39.5t-94 12.5q-66 0 -120.5 -26.5t-94.5 -73t-62 -110.5t-22 -139q0 -59 18 -101.5t49.5 -69.5t73.5 -39.5t91 -12.5zM389 299q0 -35 15 -57t50 -22q14 0 25 3t24 8q5 2 8.5 3t8.5 1q6 0 8.5 -5t4.5 -12l7 -33q-19 -12 -47 -21.5t-60 -9.5q-121 0 -121 143
q0 46 13 90t37.5 78t60 55t80.5 21q12 0 26.5 -2.5t27 -7t21 -11t8.5 -15.5q0 -5 -1.5 -10.5t-3.5 -10.5l-7 -21q-8 3 -23.5 7.5t-35.5 4.5q-32 0 -55.5 -14.5t-39.5 -39t-23.5 -56.5t-7.5 -66z" />
    <glyph glyph-name="ordfeminine" unicode="&#xaa;" horiz-adv-x="389" 
d="M334 416q-17 -18 -37.5 -31t-49.5 -13q-45 0 -67.5 31.5t-22.5 82.5q0 43 11.5 83t34 70.5t55 48.5t74.5 18q54 0 82.5 -14t28.5 -31q0 -5 -3.5 -18.5t-30.5 -132.5q-9 -36 -12.5 -70.5t-4.5 -60.5h-33q-11 0 -15 3.5t-6 12.5zM331 653q-28 0 -47.5 -17t-31.5 -42
t-17.5 -54t-5.5 -53q0 -26 9.5 -40.5t28.5 -14.5q21 0 37.5 12.5t24.5 24.5q11 44 20.5 88t19.5 88q-5 3 -15 5.5t-23 2.5zM138 314h241q21 0 21 -18q0 -5 -7 -46h-241q-21 0 -21 18q0 5 7 46z" />
    <glyph glyph-name="guillemotleft" unicode="&#xab;" horiz-adv-x="440" 
d="M390 449h67q16 0 16 -13q0 -4 -1.5 -9t-6.5 -13l-108 -160l44 -185h-64q-12 0 -18.5 5.5t-10.5 20.5l-43 166zM208 449h67q16 0 16 -13q0 -4 -1.5 -9t-6.5 -13l-108 -160l44 -185h-64q-12 0 -18.5 5.5t-10.5 20.5l-43 166z" />
    <glyph glyph-name="logicalnot" unicode="&#xac;" horiz-adv-x="536" 
d="M155 442h357q22 0 22 -19q0 -5 -2 -16t-3 -16l-39 -203h-67q-17 0 -17 13q0 4 2 13t4 21l23 123h-271q-21 0 -21 17q0 4 1 11.5t3 14.5z" />
    <glyph glyph-name="uni00AD" unicode="&#xad;" horiz-adv-x="372" 
d="M102 318h265q11 0 15 -4.5t4 -11.5q0 -4 -1 -10.5t-2 -10.5l-11 -53h-265q-11 0 -15 4.5t-4 11.5q0 4 1 10.5t2 10.5z" />
    <glyph glyph-name="registered" unicode="&#xae;" horiz-adv-x="445" 
d="M408 576q0 -22 -12 -40t-33 -27q4 -11 8 -24.5t7 -27t5.5 -25t3.5 -18.5h-32q-8 0 -11.5 4.5t-4.5 9.5q-2 11 -6.5 32.5t-10.5 36.5q-5 -1 -11 -1h-11h-8l-17 -82h-28q-14 0 -14 12q0 2 0.5 5t1.5 8l38 187q11 2 27.5 4t31.5 2q41 0 58.5 -15.5t17.5 -40.5zM298 533h22
q17 0 30 10t13 28q0 14 -7.5 19t-25.5 5q-10 0 -20 -2zM120 478q0 54 16 100t45.5 79.5t71 52.5t91.5 19q80 0 128.5 -43t48.5 -126q0 -54 -16.5 -100t-46 -79.5t-70.5 -52.5t-91 -19q-79 0 -128 43t-49 126zM339 680q-39 0 -70 -15t-53.5 -41.5t-34.5 -63.5t-12 -80
q0 -65 38 -94t95 -29q39 0 70 15t53.5 41.5t34.5 63.5t12 81q0 33 -10 56t-28 37.5t-42.5 21.5t-52.5 7z" />
    <glyph glyph-name="macron" unicode="&#xaf;" horiz-adv-x="434" 
d="M180 679h222q11 0 15 -4.5t4 -11.5q0 -4 -1 -10.5t-2 -10.5l-7 -37h-222q-11 0 -15 4.5t-4 11.5q0 4 1 10.5t2 10.5z" />
    <glyph glyph-name="degree" unicode="&#xb0;" horiz-adv-x="363" 
d="M273 436q-23 0 -45 7t-38.5 20.5t-26.5 34t-10 47.5q0 68 40 111t106 43q24 0 46 -6.5t39 -20t27.5 -35t10.5 -50.5q0 -34 -11 -61.5t-30.5 -47.5t-47 -31t-60.5 -11zM277 495q36 0 59 23t23 61q0 31 -18.5 46t-44.5 15q-35 0 -57.5 -24t-22.5 -61q0 -31 17.5 -45.5
t43.5 -14.5z" />
    <glyph glyph-name="plusminus" unicode="&#xb1;" horiz-adv-x="518" 
d="M327 132h-63q-21 0 -21 15q0 3 1 10t3 15l26 128h-126q-22 0 -22 18q0 4 1 11.5t3 14.5l8 40h152l34 168h63q21 0 21 -15q0 -4 -1 -11t-3 -15l-26 -127h127q22 0 22 -19q0 -4 -1 -11t-3 -14l-8 -40h-153zM76 84h368q11 0 15 -4.5t4 -11.5q0 -4 -1 -10.5t-2 -10.5l-10 -47
h-368q-11 0 -15 4.5t-4 11.5q0 4 1 10.5t2 10.5z" />
    <glyph glyph-name="twosuperior" unicode="&#xb2;" 
d="M258 487q47 29 73 49.5t26 48.5q0 20 -15.5 29.5t-42.5 9.5q-21 0 -37.5 -4t-29.5 -8.5t-22.5 -8t-15.5 -3.5q-11 0 -11 12q0 2 0.5 7t1.5 12l4 21q17 11 48.5 22t72.5 11q25 0 47.5 -5.5t39 -17t26 -29t9.5 -41.5q0 -26 -11.5 -47t-30 -39t-41.5 -33.5t-45 -28.5
q-37 -23 -65.5 -46.5t-40.5 -54.5h168q21 0 21 -17q0 -9 -5 -29l-4 -16h-252q-11 0 -14.5 6t-3.5 13q0 2 0.5 7t3.5 13q14 42 46 83.5t100 83.5z" />
    <glyph glyph-name="threesuperior" unicode="&#xb3;" 
d="M226 456q-11 0 -14.5 3t-3.5 11q0 2 0.5 8t2.5 14l4 22h48q24 0 41 6t28 15.5t16 21t5 22.5q0 21 -16.5 33.5t-45.5 12.5q-40 0 -64.5 -10t-35.5 -10q-10 0 -10 10q0 2 0.5 7.5t2.5 9.5l5 25q20 11 48.5 19t63.5 8q56 0 90.5 -24.5t34.5 -72.5q0 -34 -22 -61t-60 -43
q25 -10 40 -28.5t15 -46.5q0 -31 -13.5 -55.5t-36 -42t-52 -26.5t-60.5 -9q-21 0 -42 2.5t-37.5 7.5t-27 12t-10.5 15q0 6 1.5 10t3.5 12l8 23q20 -9 44 -14.5t54 -5.5q42 0 67.5 20t25.5 54q0 23 -18 34t-48 11h-32z" />
    <glyph glyph-name="acute" unicode="&#xb4;" horiz-adv-x="344" 
d="M227 575h-46q-12 0 -12 8q0 5 3 11q16 24 37.5 54.5t41.5 59.5h67q8 0 11 -4t3 -9t-2.5 -10.5t-10.5 -13.5z" />
    <glyph glyph-name="mu" unicode="&#xb5;" horiz-adv-x="528" 
d="M118 -170h-71q-19 0 -19 15q0 3 1 9t4 22l129 634h69q15 0 20 -5.5t5 -13.5q0 -5 -2.5 -17t-4.5 -25l-48 -240q-6 -29 -8.5 -46t-2.5 -32q0 -60 67 -60q20 0 38.5 5.5t35 14.5t30 19t22.5 19l77 381h69q15 0 20 -5t5 -13q0 -6 -2.5 -19t-4.5 -24l-48 -241
q-6 -29 -10.5 -62t-8 -63t-5.5 -53t-2 -30h-52q-14 0 -19.5 5t-7.5 18l-5 42q-27 -28 -67 -52t-93 -24q-18 0 -38 6.5t-34 20.5z" />
    <glyph glyph-name="paragraph" unicode="&#xb6;" horiz-adv-x="580" 
d="M459 -83h-57q-21 0 -21 15q0 6 2.5 18.5t4.5 23.5l129 641q-12 2 -30.5 2.5t-32.5 0.5h-17t-23 -2l-141 -699h-57q-21 0 -21 15q0 6 3 18.5t5 23.5l60 300q-57 8 -94 50.5t-37 110.5q0 70 23 120.5t65.5 82t103 46.5t135.5 15q42 0 83 -4t67 -10q14 -3 23 -7.5t9 -15.5
q0 -8 -2.5 -19.5t-4.5 -22.5l-3 -15l-33 5z" />
    <glyph glyph-name="periodcentered" unicode="&#xb7;" horiz-adv-x="214" 
d="M167 276q-28 0 -42.5 14.5t-14.5 37.5q0 38 21 56.5t56 18.5q28 0 42.5 -14t14.5 -36q0 -38 -20.5 -57.5t-56.5 -19.5z" />
    <glyph glyph-name="cedilla" unicode="&#xb8;" horiz-adv-x="434" 
d="M254 5l-32 -53l14 -5q23 -8 36.5 -23.5t13.5 -38.5q0 -39 -31.5 -60.5t-79.5 -21.5q-31 0 -53 8q-10 4 -10 13q0 6 3 14l5 17q7 -2 17 -3t21 -1q23 0 39.5 7t16.5 24q0 11 -8.5 15.5t-35.5 13.5q-15 5 -15 13q0 7 4.5 15t9.5 18l29 48h56z" />
    <glyph glyph-name="onesuperior" unicode="&#xb9;" 
d="M298 601q-16 -5 -33 -11t-32 -11.5t-26 -9t-14 -3.5q-12 0 -12 13q0 5 3 19l5 27q26 11 53 22t51 19.5t42.5 13.5t27.5 5q23 0 23 -20q0 -5 -4 -22l-73 -362h-51q-20 0 -20 17q0 7 2.5 20t4.5 24z" />
    <glyph glyph-name="ordmasculine" unicode="&#xba;" horiz-adv-x="383" 
d="M153 488q0 46 12 86t34 69.5t54 46t73 16.5q57 0 84 -31.5t27 -85.5q0 -46 -11.5 -85.5t-34 -69t-54.5 -46t-73 -16.5q-57 0 -84 31.5t-27 84.5zM226 484q0 -27 10.5 -42t32.5 -15q23 0 40.5 14.5t29.5 37.5t18.5 50.5t6.5 53.5q0 10 -1.5 22t-6 22t-13 17t-22.5 7
q-24 0 -42 -17t-29.5 -42t-17.5 -54.5t-6 -53.5zM126 314h233q21 0 21 -18q0 -5 -1 -13t-3 -16l-3 -17h-233q-21 0 -21 18q0 5 1 13t3 16z" />
    <glyph glyph-name="guillemotright" unicode="&#xbb;" horiz-adv-x="440" 
d="M137 69h-67q-16 0 -16 13q0 4 1.5 9t6.5 13l108 160l-44 185h64q12 0 18.5 -5.5t10.5 -20.5l43 -166zM319 69h-67q-16 0 -16 13q0 4 1.5 9t6.5 13l108 160l-44 185h64q12 0 18.5 -5.5t10.5 -20.5l43 -166z" />
    <glyph glyph-name="onequarter" unicode="&#xbc;" horiz-adv-x="901" 
d="M299 0h-53q-19 0 -19 14q0 8 8 19l475 644h53q19 0 19 -14q0 -8 -8 -19zM293 601q-16 -5 -33 -11t-32 -11.5t-26 -9t-14 -3.5q-12 0 -12 13q0 5 3 19l5 27q26 11 53 22t51 19.5t42.5 13.5t27.5 5q23 0 23 -20q0 -5 -4 -22l-73 -362h-51q-20 0 -20 17q0 7 2.5 20t4.5 24z
M718 156l42 173q-20 -16 -43 -39t-44 -47t-38 -47.5t-27 -39.5h110zM820 395q18 0 18 -14q0 -7 -2.5 -20t-4.5 -21l-38 -184h32q15 0 15 -10q0 -7 -1.5 -14.5l-2.5 -12.5l-5 -23h-50l-19 -96h-48q-21 0 -21 17q0 2 0.5 8.5t2.5 14.5l11 56h-164q-16 0 -16 12q0 2 0.5 6.5
t1.5 9.5l4 16q14 28 37.5 62t52.5 68.5t62.5 66.5t67.5 58h67z" />
    <glyph glyph-name="onehalf" unicode="&#xbd;" horiz-adv-x="901" 
d="M278 0h-53q-19 0 -19 14q0 8 8 19l475 644h53q19 0 19 -14q0 -8 -8 -19zM272 601q-16 -5 -33 -11t-32 -11.5t-26 -9t-14 -3.5q-12 0 -12 13q0 5 3 19l5 27q26 11 53 22t51 19.5t42.5 13.5t27.5 5q23 0 23 -20q0 -5 -4 -22l-73 -362h-51q-20 0 -20 17q0 7 2.5 20t4.5 24z
M704 207q47 29 73 49.5t26 48.5q0 20 -15.5 29.5t-42.5 9.5q-21 0 -37.5 -4t-29.5 -8.5t-22.5 -8t-15.5 -3.5q-11 0 -11 12q0 2 0.5 7t1.5 12l4 21q17 11 48.5 22t72.5 11q25 0 47.5 -5.5t39 -17t26 -29t9.5 -41.5q0 -26 -11.5 -47t-30 -39t-41.5 -33.5t-45 -28.5
q-37 -23 -65.5 -46.5t-40.5 -54.5h168q21 0 21 -17q0 -9 -5 -29l-4 -16h-252q-11 0 -14.5 6t-3.5 13q0 2 0.5 7t3.5 13q14 42 46 83.5t100 83.5z" />
    <glyph glyph-name="threequarters" unicode="&#xbe;" horiz-adv-x="901" 
d="M757 156l42 173q-20 -16 -43 -39t-44 -47t-38 -47.5t-27 -39.5h110zM859 395q18 0 18 -14q0 -7 -2.5 -20t-4.5 -21l-38 -184h32q15 0 15 -10q0 -7 -1.5 -14.5l-2.5 -12.5l-5 -23h-50l-19 -96h-48q-21 0 -21 17q0 2 0.5 8.5t2.5 14.5l11 56h-164q-16 0 -16 12q0 2 0.5 6.5
t1.5 9.5l4 16q14 28 37.5 62t52.5 68.5t62.5 66.5t67.5 58h67zM338 0h-53q-19 0 -19 14q0 8 8 19l475 644h53q19 0 19 -14q0 -8 -8 -19zM242 456q-11 0 -14.5 3t-3.5 11q0 2 0.5 8t2.5 14l4 22h48q24 0 41 6t28 15.5t16 21t5 22.5q0 21 -16.5 33.5t-45.5 12.5
q-40 0 -64.5 -10t-35.5 -10q-10 0 -10 10q0 2 0.5 7.5t2.5 9.5l5 25q20 11 48.5 19t63.5 8q56 0 90.5 -24.5t34.5 -72.5q0 -34 -22 -61t-60 -43q25 -10 40 -28.5t15 -46.5q0 -31 -13.5 -55.5t-36 -42t-52 -26.5t-60.5 -9q-21 0 -42 2.5t-37.5 7.5t-27 12t-10.5 15
q0 6 1.5 10t3.5 12l8 23q20 -9 44 -14.5t54 -5.5q42 0 67.5 20t25.5 54q0 23 -18 34t-48 11h-32z" />
    <glyph glyph-name="questiondown" unicode="&#xbf;" horiz-adv-x="410" 
d="M332 317q14 0 20.5 -4.5t6.5 -23.5q0 -28 -10 -51.5t-26.5 -44.5t-39 -40.5t-47.5 -39.5q-20 -16 -38 -31.5t-31.5 -32t-22 -35t-8.5 -40.5q0 -71 89 -71q23 0 42.5 4t35.5 9.5t27 9.5t17 4q9 0 13 -5t4 -13q0 -5 -1 -14t-3 -19l-4 -21q-21 -11 -62.5 -24.5t-95.5 -13.5
q-76 0 -118 37t-42 100q0 35 11 63.5t29.5 53.5t43.5 47t52 44q26 21 45 37t32.5 32.5t22 36t13.5 46.5h45zM351 529q27 0 42 -13t15 -36q0 -38 -21 -58t-57 -20q-27 0 -41.5 12.5t-14.5 34.5q0 38 20.5 59t56.5 21z" />
    <glyph glyph-name="Agrave" unicode="&#xc0;" horiz-adv-x="524" 
d="M193 194q-20 -50 -38.5 -99.5t-32.5 -94.5h-71q-12 0 -17 5t-5 13q0 10 3 19.5t8 23.5q38 107 112.5 268t195.5 364h89q28 0 34 -31q11 -68 20 -171.5t9 -224.5q0 -74 -2 -140t-6 -126h-75q-22 0 -22 23q0 6 1 25t2.5 44t3 52t2.5 50h-211zM391 611q-26 -47 -47.5 -89.5
t-41.5 -83t-38.5 -81t-37.5 -82.5h179q1 13 1.5 26t0.5 24q0 70 -2.5 140t-13.5 146zM394 745q-14 0 -22 14l-77 124h81q8 0 12.5 -2t9.5 -13q13 -27 24.5 -57.5t23.5 -65.5h-52z" />
    <glyph glyph-name="Aacute" unicode="&#xc1;" horiz-adv-x="524" 
d="M193 194q-20 -50 -38.5 -99.5t-32.5 -94.5h-71q-12 0 -17 5t-5 13q0 10 3 19.5t8 23.5q38 107 112.5 268t195.5 364h89q28 0 34 -31q11 -68 20 -171.5t9 -224.5q0 -74 -2 -140t-6 -126h-75q-22 0 -22 23q0 6 1 25t2.5 44t3 52t2.5 50h-211zM391 611q-26 -47 -47.5 -89.5
t-41.5 -83t-38.5 -81t-37.5 -82.5h179q1 13 1.5 26t0.5 24q0 70 -2.5 140t-13.5 146zM416 745h-51q-12 0 -12 8q0 5 3 11q17 25 39.5 57t45.5 62h69q5 0 9.5 -3t4.5 -9q0 -5 -2.5 -11t-10.5 -14z" />
    <glyph glyph-name="Acircumflex" unicode="&#xc2;" horiz-adv-x="524" 
d="M193 194q-20 -50 -38.5 -99.5t-32.5 -94.5h-71q-12 0 -17 5t-5 13q0 10 3 19.5t8 23.5q38 107 112.5 268t195.5 364h89q28 0 34 -31q11 -68 20 -171.5t9 -224.5q0 -74 -2 -140t-6 -126h-75q-22 0 -22 23q0 6 1 25t2.5 44t3 52t2.5 50h-211zM391 611q-26 -47 -47.5 -89.5
t-41.5 -83t-38.5 -81t-37.5 -82.5h179q1 13 1.5 26t0.5 24q0 70 -2.5 140t-13.5 146zM351 745h-62q-12 0 -12 11q0 6 11 20q26 29 55 58t51 49h64q11 0 17 -4t12 -16q13 -25 28 -57.5t26 -60.5h-57q-11 0 -16.5 4.5t-10.5 13.5l-29 63z" />
    <glyph glyph-name="Atilde" unicode="&#xc3;" horiz-adv-x="524" 
d="M193 194q-20 -50 -38.5 -99.5t-32.5 -94.5h-71q-12 0 -17 5t-5 13q0 10 3 19.5t8 23.5q38 107 112.5 268t195.5 364h89q28 0 34 -31q11 -68 20 -171.5t9 -224.5q0 -74 -2 -140t-6 -126h-75q-22 0 -22 23q0 6 1 25t2.5 44t3 52t2.5 50h-211zM391 611q-26 -47 -47.5 -89.5
t-41.5 -83t-38.5 -81t-37.5 -82.5h179q1 13 1.5 26t0.5 24q0 70 -2.5 140t-13.5 146zM563 874q9 0 12 -3.5t3 -9.5q0 -24 -8 -44t-21.5 -34.5t-31.5 -22.5t-37 -8q-38 0 -74 31q-14 13 -25 20.5t-23 7.5q-15 0 -24 -15t-14 -42h-41q-9 0 -12 3.5t-3 9.5q0 27 8.5 46t22 33.5
t31.5 22t37 7.5q23 0 40 -9t30.5 -20.5t26 -21t23.5 -9.5q16 0 25.5 16.5t13.5 41.5h41z" />
    <glyph glyph-name="Adieresis" unicode="&#xc4;" horiz-adv-x="524" 
d="M193 194q-20 -50 -38.5 -99.5t-32.5 -94.5h-71q-12 0 -17 5t-5 13q0 10 3 19.5t8 23.5q38 107 112.5 268t195.5 364h89q28 0 34 -31q11 -68 20 -171.5t9 -224.5q0 -74 -2 -140t-6 -126h-75q-22 0 -22 23q0 6 1 25t2.5 44t3 52t2.5 50h-211zM391 611q-26 -47 -47.5 -89.5
t-41.5 -83t-38.5 -81t-37.5 -82.5h179q1 13 1.5 26t0.5 24q0 70 -2.5 140t-13.5 146zM324 759q-27 0 -39.5 11t-12.5 28q0 30 17.5 48.5t51.5 18.5q27 0 40 -11.5t13 -27.5q0 -30 -17.5 -48.5t-52.5 -18.5zM509 759q-27 0 -39.5 11t-12.5 28q0 30 17.5 48.5t51.5 18.5
q27 0 40 -11.5t13 -27.5q0 -30 -17.5 -48.5t-52.5 -18.5z" />
    <glyph glyph-name="Aring" unicode="&#xc5;" horiz-adv-x="524" 
d="M193 194q-20 -50 -38.5 -99.5t-32.5 -94.5h-71q-12 0 -17 5t-5 13q0 10 3 19.5t8 23.5q38 107 112.5 268t195.5 364h89q28 0 34 -31q11 -68 20 -171.5t9 -224.5q0 -74 -2 -140t-6 -126h-75q-22 0 -22 23q0 6 1 25t2.5 44t3 52t2.5 50h-211zM391 611q-26 -47 -47.5 -89.5
t-41.5 -83t-38.5 -81t-37.5 -82.5h179q1 13 1.5 26t0.5 24q0 70 -2.5 140t-13.5 146zM423 771q26 0 41.5 13.5t15.5 39.5q0 20 -12.5 35t-35.5 15q-26 0 -41.5 -14t-15.5 -41q0 -20 12.5 -33.5t35.5 -14.5zM423 724q-19 0 -37 5t-32 16t-22.5 27t-8.5 39q0 52 29.5 81
t77.5 29q19 0 37.5 -6t32.5 -17.5t22.5 -28.5t8.5 -39q0 -51 -30 -78.5t-78 -27.5z" />
    <glyph glyph-name="AE" unicode="&#xc6;" horiz-adv-x="777" 
d="M838 693q23 0 23 -18q0 -4 -1 -12.5t-3 -15.5l-8 -40h-266l-43 -213h213q22 0 22 -19q0 -4 -1 -12t-3 -16l-8 -40h-240l-45 -221h248q23 0 23 -18q0 -4 -1 -12.5t-3 -15.5l-8 -40h-345q-23 0 -23 17q0 5 1 12t3 16l30 148h-191q-28 -51 -54 -99.5t-46 -93.5h-78
q-15 0 -15 15q0 4 3 11.5l7 17.5t9 20t10 19q46 91 98 178.5t104.5 166t103 146t94.5 119.5h390zM420 279l67 337q-67 -84 -125.5 -169t-106.5 -168h165z" />
    <glyph glyph-name="Ccedilla" unicode="&#xc7;" horiz-adv-x="489" 
d="M450 703q20 0 42.5 -4t41 -10.5t31 -16t12.5 -20.5q0 -10 -7 -29l-11 -28q-16 6 -43 13t-59 7q-63 0 -109.5 -37t-77.5 -93.5t-46 -124.5t-15 -130q0 -79 26 -114t88 -35q27 0 51.5 6.5t46.5 15.5q7 3 14 5.5t12 2.5q14 0 20 -24l11 -44q-28 -20 -68 -35t-88 -18l-22 -38
l14 -5q23 -8 36.5 -23.5t13.5 -38.5q0 -39 -31.5 -60.5t-79.5 -21.5q-31 0 -53 8q-10 4 -10 13q0 6 3 14l5 17q7 -2 17 -3t21 -1q18 0 37 5.5t19 25.5q0 11 -8.5 15.5t-22.5 9.5l-13 4q-15 5 -15 13q0 7 4.5 15t9.5 18l20 34q-81 10 -122.5 66.5t-41.5 163.5q0 57 10.5 115
t31 111.5t50 100t68 81t85.5 54.5t102 20z" />
    <glyph glyph-name="Egrave" unicode="&#xc8;" horiz-adv-x="506" 
d="M205 693h354q23 0 23 -18q0 -4 -1 -11t-3 -17l-8 -40h-284l-43 -213h230q23 0 23 -19q0 -4 -1 -11t-3 -17l-8 -40h-258l-45 -221h266q23 0 23 -18q0 -4 -1 -11t-3 -17l-8 -40h-362q-14 0 -19 5t-5 14q0 6 3.5 23.5t7.5 38.5zM406 745q-14 0 -22 14l-77 124h81
q8 0 12.5 -2t9.5 -13q13 -27 24.5 -57.5t23.5 -65.5h-52z" />
    <glyph glyph-name="Eacute" unicode="&#xc9;" horiz-adv-x="506" 
d="M205 693h354q23 0 23 -18q0 -4 -1 -11t-3 -17l-8 -40h-284l-43 -213h230q23 0 23 -19q0 -4 -1 -11t-3 -17l-8 -40h-258l-45 -221h266q23 0 23 -18q0 -4 -1 -11t-3 -17l-8 -40h-362q-14 0 -19 5t-5 14q0 6 3.5 23.5t7.5 38.5zM420 745h-51q-12 0 -12 8q0 5 3 11
q17 25 39.5 57t45.5 62h69q5 0 9.5 -3t4.5 -9q0 -5 -2.5 -11t-10.5 -14z" />
    <glyph glyph-name="Ecircumflex" unicode="&#xca;" horiz-adv-x="506" 
d="M205 693h354q23 0 23 -18q0 -4 -1 -11t-3 -17l-8 -40h-284l-43 -213h230q23 0 23 -19q0 -4 -1 -11t-3 -17l-8 -40h-258l-45 -221h266q23 0 23 -18q0 -4 -1 -11t-3 -17l-8 -40h-362q-14 0 -19 5t-5 14q0 6 3.5 23.5t7.5 38.5zM351 745h-62q-12 0 -12 11q0 6 11 20
q26 29 55 58t51 49h64q11 0 17 -4t12 -16q13 -25 28 -57.5t26 -60.5h-57q-11 0 -16.5 4.5t-10.5 13.5l-29 63z" />
    <glyph glyph-name="Edieresis" unicode="&#xcb;" horiz-adv-x="506" 
d="M205 693h354q23 0 23 -18q0 -4 -1 -11t-3 -17l-8 -40h-284l-43 -213h230q23 0 23 -19q0 -4 -1 -11t-3 -17l-8 -40h-258l-45 -221h266q23 0 23 -18q0 -4 -1 -11t-3 -17l-8 -40h-362q-14 0 -19 5t-5 14q0 6 3.5 23.5t7.5 38.5zM311 759q-27 0 -39.5 11t-12.5 28
q0 30 17.5 48.5t51.5 18.5q27 0 40 -11.5t13 -27.5q0 -30 -17.5 -48.5t-52.5 -18.5zM496 759q-27 0 -39.5 11t-12.5 28q0 30 17.5 48.5t51.5 18.5q27 0 40 -11.5t13 -27.5q0 -30 -17.5 -48.5t-52.5 -18.5z" />
    <glyph glyph-name="Igrave" unicode="&#xcc;" horiz-adv-x="246" 
d="M170 0h-72q-14 0 -19 5t-5 14q0 6 3 25t8 41l122 608h72q14 0 19 -5t5 -14q0 -6 -3.5 -24t-7.5 -40zM235 745q-14 0 -22 14l-77 124h81q8 0 12.5 -2t9.5 -13q13 -27 24.5 -57.5t23.5 -65.5h-52z" />
    <glyph glyph-name="Iacute" unicode="&#xcd;" horiz-adv-x="246" 
d="M170 0h-72q-14 0 -19 5t-5 14q0 6 3 25t8 41l122 608h72q14 0 19 -5t5 -14q0 -6 -3.5 -24t-7.5 -40zM284 745h-51q-12 0 -12 8q0 5 3 11q17 25 39.5 57t45.5 62h69q5 0 9.5 -3t4.5 -9q0 -5 -2.5 -11t-10.5 -14z" />
    <glyph glyph-name="Icircumflex" unicode="&#xce;" horiz-adv-x="246" 
d="M170 0h-72q-14 0 -19 5t-5 14q0 6 3 25t8 41l122 608h72q14 0 19 -5t5 -14q0 -6 -3.5 -24t-7.5 -40zM213 745h-62q-12 0 -12 11q0 6 11 20q26 29 55 58t51 49h64q11 0 17 -4t12 -16q13 -25 28 -57.5t26 -60.5h-57q-11 0 -16.5 4.5t-10.5 13.5l-29 63z" />
    <glyph glyph-name="Idieresis" unicode="&#xcf;" horiz-adv-x="246" 
d="M170 0h-72q-14 0 -19 5t-5 14q0 6 3 25t8 41l122 608h72q14 0 19 -5t5 -14q0 -6 -3.5 -24t-7.5 -40zM181 759q-27 0 -39.5 11t-12.5 28q0 30 17.5 48.5t51.5 18.5q27 0 40 -11.5t13 -27.5q0 -30 -17.5 -48.5t-52.5 -18.5zM366 759q-27 0 -39.5 11t-12.5 28
q0 30 17.5 48.5t51.5 18.5q27 0 40 -11.5t13 -27.5q0 -30 -17.5 -48.5t-52.5 -18.5z" />
    <glyph glyph-name="Eth" unicode="&#xd0;" horiz-adv-x="575" 
d="M96 0q-14 0 -19 5t-5 14q0 5 2 17t5 27.5t6.5 32.5t6.5 32l39 194h-49q-21 0 -21 18q0 4 1 12.5t8 40.5h75l59 290q27 6 65 11t76 5q118 0 186 -65.5t68 -200.5q0 -89 -26.5 -167.5t-75 -137.5t-117 -93.5t-153.5 -34.5h-131zM183 84h49q57 0 105.5 26.5t84.5 73.5
t56 112.5t20 142.5q0 94 -36.5 136t-111.5 42q-17 0 -32 -1.5t-29 -3.5l-44 -219h96q22 0 22 -19q0 -4 -1.5 -12.5t-8.5 -39.5h-122z" />
    <glyph glyph-name="Ntilde" unicode="&#xd1;" horiz-adv-x="597" 
d="M525 0h-73q-24 0 -29 23q-8 30 -19.5 70.5t-25 86.5t-28.5 94.5t-29.5 95t-28 87.5t-24.5 72l-106 -529h-67q-23 0 -23 19q0 6 3 23.5t8 38.5l122 612h67q17 0 23.5 -4.5t11.5 -18.5q11 -30 30.5 -89t42 -129.5t45 -143.5t39.5 -133l104 518h66q14 0 19 -5t5 -14
q0 -6 -3.5 -23.5t-7.5 -38.5zM594 874q9 0 12 -3.5t3 -9.5q0 -24 -8 -44t-21.5 -34.5t-31.5 -22.5t-37 -8q-38 0 -74 31q-14 13 -25 20.5t-23 7.5q-15 0 -24 -15t-14 -42h-41q-9 0 -12 3.5t-3 9.5q0 27 8.5 46t22 33.5t31.5 22t37 7.5q23 0 40 -9t30.5 -20.5t26 -21
t23.5 -9.5q16 0 25.5 16.5t13.5 41.5h41z" />
    <glyph glyph-name="Ograve" unicode="&#xd2;" horiz-adv-x="610" 
d="M211 233q0 -32 7 -60t21 -49t34.5 -33t48.5 -12q53 0 93.5 35t68 90.5t41.5 124t14 134.5q0 31 -7 58.5t-20.5 47.5t-34 32t-48.5 12q-52 0 -92.5 -33t-68.5 -86.5t-42.5 -121.5t-14.5 -139zM316 -11q-97 0 -152.5 64t-55.5 185q0 97 24 182t67.5 148t103.5 99t132 36
q46 0 84.5 -16.5t65.5 -48t42 -77t15 -104.5q0 -96 -23.5 -181t-66.5 -149t-103 -101t-133 -37zM440 745q-14 0 -22 14l-77 124h81q8 0 12.5 -2t9.5 -13q13 -27 24.5 -57.5t23.5 -65.5h-52z" />
    <glyph glyph-name="Oacute" unicode="&#xd3;" horiz-adv-x="610" 
d="M211 233q0 -32 7 -60t21 -49t34.5 -33t48.5 -12q53 0 93.5 35t68 90.5t41.5 124t14 134.5q0 31 -7 58.5t-20.5 47.5t-34 32t-48.5 12q-52 0 -92.5 -33t-68.5 -86.5t-42.5 -121.5t-14.5 -139zM316 -11q-97 0 -152.5 64t-55.5 185q0 97 24 182t67.5 148t103.5 99t132 36
q46 0 84.5 -16.5t65.5 -48t42 -77t15 -104.5q0 -96 -23.5 -181t-66.5 -149t-103 -101t-133 -37zM474 745h-51q-12 0 -12 8q0 5 3 11q17 25 39.5 57t45.5 62h69q5 0 9.5 -3t4.5 -9q0 -5 -2.5 -11t-10.5 -14z" />
    <glyph glyph-name="Ocircumflex" unicode="&#xd4;" horiz-adv-x="610" 
d="M211 233q0 -32 7 -60t21 -49t34.5 -33t48.5 -12q53 0 93.5 35t68 90.5t41.5 124t14 134.5q0 31 -7 58.5t-20.5 47.5t-34 32t-48.5 12q-52 0 -92.5 -33t-68.5 -86.5t-42.5 -121.5t-14.5 -139zM316 -11q-97 0 -152.5 64t-55.5 185q0 97 24 182t67.5 148t103.5 99t132 36
q46 0 84.5 -16.5t65.5 -48t42 -77t15 -104.5q0 -96 -23.5 -181t-66.5 -149t-103 -101t-133 -37zM406 745h-62q-12 0 -12 11q0 6 11 20q26 29 55 58t51 49h64q11 0 17 -4t12 -16q13 -25 28 -57.5t26 -60.5h-57q-11 0 -16.5 4.5t-10.5 13.5l-29 63z" />
    <glyph glyph-name="Otilde" unicode="&#xd5;" horiz-adv-x="610" 
d="M211 233q0 -32 7 -60t21 -49t34.5 -33t48.5 -12q53 0 93.5 35t68 90.5t41.5 124t14 134.5q0 31 -7 58.5t-20.5 47.5t-34 32t-48.5 12q-52 0 -92.5 -33t-68.5 -86.5t-42.5 -121.5t-14.5 -139zM316 -11q-97 0 -152.5 64t-55.5 185q0 97 24 182t67.5 148t103.5 99t132 36
q46 0 84.5 -16.5t65.5 -48t42 -77t15 -104.5q0 -96 -23.5 -181t-66.5 -149t-103 -101t-133 -37zM607 874q9 0 12 -3.5t3 -9.5q0 -24 -8 -44t-21.5 -34.5t-31.5 -22.5t-37 -8q-38 0 -74 31q-14 13 -25 20.5t-23 7.5q-15 0 -24 -15t-14 -42h-41q-9 0 -12 3.5t-3 9.5
q0 27 8.5 46t22 33.5t31.5 22t37 7.5q23 0 40 -9t30.5 -20.5t26 -21t23.5 -9.5q16 0 25.5 16.5t13.5 41.5h41z" />
    <glyph glyph-name="Odieresis" unicode="&#xd6;" horiz-adv-x="610" 
d="M211 233q0 -32 7 -60t21 -49t34.5 -33t48.5 -12q53 0 93.5 35t68 90.5t41.5 124t14 134.5q0 31 -7 58.5t-20.5 47.5t-34 32t-48.5 12q-52 0 -92.5 -33t-68.5 -86.5t-42.5 -121.5t-14.5 -139zM316 -11q-97 0 -152.5 64t-55.5 185q0 97 24 182t67.5 148t103.5 99t132 36
q46 0 84.5 -16.5t65.5 -48t42 -77t15 -104.5q0 -96 -23.5 -181t-66.5 -149t-103 -101t-133 -37zM365 759q-27 0 -39.5 11t-12.5 28q0 30 17.5 48.5t51.5 18.5q27 0 40 -11.5t13 -27.5q0 -30 -17.5 -48.5t-52.5 -18.5zM550 759q-27 0 -39.5 11t-12.5 28q0 30 17.5 48.5
t51.5 18.5q27 0 40 -11.5t13 -27.5q0 -30 -17.5 -48.5t-52.5 -18.5z" />
    <glyph glyph-name="multiply" unicode="&#xd7;" horiz-adv-x="536" 
d="M395 338l98 -126l-42 -36q-5 -5 -10.5 -8.5t-11.5 -3.5q-11 0 -19 11l-83 105l-131 -111l-36 43q-8 8 -8 18q0 11 12 22l110 93l-98 127l42 36q5 5 10.5 8.5t12.5 3.5q10 0 18 -11l82 -107l140 117l35 -43q3 -5 5.5 -9t2.5 -9q0 -12 -12 -22z" />
    <glyph glyph-name="Oslash" unicode="&#xd8;" horiz-adv-x="610" 
d="M316 -11q-92 0 -147 58l-65 -82h-54q-11 0 -11 10q0 7 9 18l86 108q-26 57 -26 137q0 97 24 182t67.5 148t103.5 99t132 36q83 0 137 -51l58 74h54q11 0 11 -10q0 -6 -9 -18l-76 -96q15 -29 23.5 -65t8.5 -80q0 -96 -23.5 -181t-66.5 -149t-103 -101t-133 -37zM539 463
q0 11 -1 22.5t-3 22.5l-300 -378q14 -24 35.5 -37.5t51.5 -13.5q53 0 93.5 35t68 90.5t41.5 124t14 134.5zM211 233v-16.5t2 -16.5l296 373q-14 19 -34 29.5t-46 10.5q-52 0 -92.5 -33t-68.5 -86.5t-42.5 -121.5t-14.5 -139z" />
    <glyph glyph-name="Ugrave" unicode="&#xd9;" horiz-adv-x="589" 
d="M221 259q-4 -19 -8 -44.5t-4 -48.5q0 -40 21 -64t76 -24q69 0 105.5 42.5t51.5 116.5l92 456h74q14 0 18.5 -5t4.5 -14q0 -6 -4 -27.5t-7 -36.5l-73 -365q-14 -69 -36.5 -118t-55.5 -79.5t-76.5 -44.5t-98.5 -14q-41 0 -76 9t-61 29t-41 52.5t-15 79.5q0 23 4.5 54.5
t9.5 59.5l84 420h73q14 0 19.5 -5t5.5 -14q0 -3 -1.5 -10.5t-3 -17t-4 -19.5t-3.5 -17zM427 745q-14 0 -22 14l-77 124h81q8 0 12.5 -2t9.5 -13q13 -27 24.5 -57.5t23.5 -65.5h-52z" />
    <glyph glyph-name="Uacute" unicode="&#xda;" horiz-adv-x="589" 
d="M221 259q-4 -19 -8 -44.5t-4 -48.5q0 -40 21 -64t76 -24q69 0 105.5 42.5t51.5 116.5l92 456h74q14 0 18.5 -5t4.5 -14q0 -6 -4 -27.5t-7 -36.5l-73 -365q-14 -69 -36.5 -118t-55.5 -79.5t-76.5 -44.5t-98.5 -14q-41 0 -76 9t-61 29t-41 52.5t-15 79.5q0 23 4.5 54.5
t9.5 59.5l84 420h73q14 0 19.5 -5t5.5 -14q0 -3 -1.5 -10.5t-3 -17t-4 -19.5t-3.5 -17zM463 745h-51q-12 0 -12 8q0 5 3 11q17 25 39.5 57t45.5 62h69q5 0 9.5 -3t4.5 -9q0 -5 -2.5 -11t-10.5 -14z" />
    <glyph glyph-name="Ucircumflex" unicode="&#xdb;" horiz-adv-x="589" 
d="M221 259q-4 -19 -8 -44.5t-4 -48.5q0 -40 21 -64t76 -24q69 0 105.5 42.5t51.5 116.5l92 456h74q14 0 18.5 -5t4.5 -14q0 -6 -4 -27.5t-7 -36.5l-73 -365q-14 -69 -36.5 -118t-55.5 -79.5t-76.5 -44.5t-98.5 -14q-41 0 -76 9t-61 29t-41 52.5t-15 79.5q0 23 4.5 54.5
t9.5 59.5l84 420h73q14 0 19.5 -5t5.5 -14q0 -3 -1.5 -10.5t-3 -17t-4 -19.5t-3.5 -17zM388 745h-62q-12 0 -12 11q0 6 11 20q26 29 55 58t51 49h64q11 0 17 -4t12 -16q13 -25 28 -57.5t26 -60.5h-57q-11 0 -16.5 4.5t-10.5 13.5l-29 63z" />
    <glyph glyph-name="Udieresis" unicode="&#xdc;" horiz-adv-x="589" 
d="M221 259q-4 -19 -8 -44.5t-4 -48.5q0 -40 21 -64t76 -24q69 0 105.5 42.5t51.5 116.5l92 456h74q14 0 18.5 -5t4.5 -14q0 -6 -4 -27.5t-7 -36.5l-73 -365q-14 -69 -36.5 -118t-55.5 -79.5t-76.5 -44.5t-98.5 -14q-41 0 -76 9t-61 29t-41 52.5t-15 79.5q0 23 4.5 54.5
t9.5 59.5l84 420h73q14 0 19.5 -5t5.5 -14q0 -3 -1.5 -10.5t-3 -17t-4 -19.5t-3.5 -17zM352 759q-27 0 -39.5 11t-12.5 28q0 30 17.5 48.5t51.5 18.5q27 0 40 -11.5t13 -27.5q0 -30 -17.5 -48.5t-52.5 -18.5zM537 759q-27 0 -39.5 11t-12.5 28q0 30 17.5 48.5t51.5 18.5
q27 0 40 -11.5t13 -27.5q0 -30 -17.5 -48.5t-52.5 -18.5z" />
    <glyph glyph-name="Yacute" unicode="&#xdd;" horiz-adv-x="503" 
d="M605 651q-47 -95 -107.5 -190.5t-148.5 -201.5l-51 -259h-73q-14 0 -19 5t-5 13q0 7 3.5 26t8.5 41l37 182q-22 56 -38 108t-28 104t-20 104.5t-12 109.5h84q14 0 17 -6.5t5 -20.5q3 -30 7.5 -66.5t11.5 -76.5t17 -82.5t24 -85.5q33 42 62.5 86.5t55 88.5t46 85.5
t34.5 77.5h73q23 0 23 -17q0 -11 -7 -25zM406 745h-51q-12 0 -12 8q0 5 3 11q17 25 39.5 57t45.5 62h69q5 0 9.5 -3t4.5 -9q0 -5 -2.5 -11t-10.5 -14z" />
    <glyph glyph-name="Thorn" unicode="&#xde;" horiz-adv-x="511" 
d="M306 136q-56 0 -111 13l-29 -149h-70q-14 0 -19 5t-5 14q0 14 6 40.5t13 59.5l115 574h70q14 0 19 -5t5 -14q0 -14 -6.5 -43t-11.5 -55q34 3 69 3q44 0 82.5 -10t67 -31.5t44.5 -55t16 -81.5q0 -58 -18 -106.5t-51.5 -84t-80.5 -55t-105 -19.5zM340 501q-23 0 -39.5 -1.5
t-34.5 -3.5l-55 -266q21 -5 42 -8t46 -3q41 0 71 14.5t50 39.5t30 59t10 72q0 53 -30.5 75t-89.5 22z" />
    <glyph glyph-name="germandbls" unicode="&#xdf;" horiz-adv-x="548" 
d="M163 0h-70q-23 0 -23 19q0 6 2.5 19.5t5.5 27.5l90 446q19 98 73 156t155 58q35 0 67 -9.5t56 -28t38.5 -47t14.5 -65.5q0 -44 -20.5 -73t-54.5 -60q-31 -28 -45.5 -44t-14.5 -30q0 -15 16 -33.5t35 -40.5q23 -26 39.5 -56.5t16.5 -72.5q0 -39 -14.5 -71t-40 -54.5
t-61 -35t-77.5 -12.5q-35 0 -61.5 6.5t-40.5 14.5q-19 11 -19 25q0 13 7 30l10 23q17 -8 43 -14.5t54 -6.5q46 0 73.5 23.5t27.5 63.5q0 29 -13.5 51t-31.5 44q-23 26 -40.5 47.5t-17.5 50.5q0 19 6 35t16.5 31t25 29t32.5 30q23 21 39.5 41.5t16.5 50.5q0 37 -25.5 57
t-63.5 20q-28 0 -48.5 -10.5t-35.5 -29t-24.5 -44t-15.5 -55.5z" />
    <glyph glyph-name="agrave" unicode="&#xe0;" horiz-adv-x="510" 
d="M363 444q-44 0 -77.5 -23.5t-56.5 -61.5t-35 -86t-12 -98q0 -19 2.5 -37t10.5 -32t22 -22.5t37 -8.5q35 0 63.5 19t48.5 47l68 291q-8 3 -28 7.5t-43 4.5zM371 58q-36 -38 -72 -54t-76 -16q-66 0 -103.5 47t-37.5 133q0 69 18.5 133t54.5 113t88 78t119 29q42 0 80 -9
t58 -18t28 -16t8 -23q0 -7 -4.5 -29t-9.5 -41l-42 -177q-7 -29 -12 -63t-8 -65t-4.5 -53.5t-1.5 -26.5h-53q-14 0 -19 5.5t-7 17.5zM383 693q12 -28 23 -56t25 -62h-48q-13 0 -23 14l-76 119h78q13 0 21 -15z" />
    <glyph glyph-name="aacute" unicode="&#xe1;" horiz-adv-x="510" 
d="M363 444q-44 0 -77.5 -23.5t-56.5 -61.5t-35 -86t-12 -98q0 -19 2.5 -37t10.5 -32t22 -22.5t37 -8.5q35 0 63.5 19t48.5 47l68 291q-8 3 -28 7.5t-43 4.5zM371 58q-36 -38 -72 -54t-76 -16q-66 0 -103.5 47t-37.5 133q0 69 18.5 133t54.5 113t88 78t119 29q42 0 80 -9
t58 -18t28 -16t8 -23q0 -7 -4.5 -29t-9.5 -41l-42 -177q-7 -29 -12 -63t-8 -65t-4.5 -53.5t-1.5 -26.5h-53q-14 0 -19 5.5t-7 17.5zM419 575h-46q-12 0 -12 8q0 5 3 11q16 24 37.5 54.5t41.5 59.5h67q8 0 11 -4t3 -9t-2.5 -10.5t-10.5 -13.5z" />
    <glyph glyph-name="acircumflex" unicode="&#xe2;" horiz-adv-x="510" 
d="M363 444q-44 0 -77.5 -23.5t-56.5 -61.5t-35 -86t-12 -98q0 -19 2.5 -37t10.5 -32t22 -22.5t37 -8.5q35 0 63.5 19t48.5 47l68 291q-8 3 -28 7.5t-43 4.5zM371 58q-36 -38 -72 -54t-76 -16q-66 0 -103.5 47t-37.5 133q0 69 18.5 133t54.5 113t88 78t119 29q42 0 80 -9
t58 -18t28 -16t8 -23q0 -7 -4.5 -29t-9.5 -41l-42 -177q-7 -29 -12 -63t-8 -65t-4.5 -53.5t-1.5 -26.5h-53q-14 0 -19 5.5t-7 17.5zM337 573h-61q-11 0 -11 10q0 7 9 18q22 28 49.5 59t57.5 61h61q11 0 17.5 -3.5t11.5 -16.5l52 -128h-57q-10 0 -14.5 3.5t-8.5 12.5l-30 74z
" />
    <glyph glyph-name="atilde" unicode="&#xe3;" horiz-adv-x="510" 
d="M363 444q-44 0 -77.5 -23.5t-56.5 -61.5t-35 -86t-12 -98q0 -19 2.5 -37t10.5 -32t22 -22.5t37 -8.5q35 0 63.5 19t48.5 47l68 291q-8 3 -28 7.5t-43 4.5zM371 58q-36 -38 -72 -54t-76 -16q-66 0 -103.5 47t-37.5 133q0 69 18.5 133t54.5 113t88 78t119 29q42 0 80 -9
t58 -18t28 -16t8 -23q0 -7 -4.5 -29t-9.5 -41l-42 -177q-7 -29 -12 -63t-8 -65t-4.5 -53.5t-1.5 -26.5h-53q-14 0 -19 5.5t-7 17.5zM544 702q9 0 12 -3.5t3 -9.5q0 -24 -8 -44t-21.5 -34.5t-31.5 -22.5t-37 -8q-38 0 -74 31q-10 8 -21.5 18t-26.5 10q-19 0 -26.5 -19
t-11.5 -38h-41q-9 0 -12 3.5t-3 9.5q0 25 8.5 45t22 34.5t31.5 22t37 7.5q23 0 40 -9t34 -23q14 -11 24.5 -19.5t21.5 -8.5q18 0 26 17t13 41h41z" />
    <glyph glyph-name="adieresis" unicode="&#xe4;" horiz-adv-x="510" 
d="M363 444q-44 0 -77.5 -23.5t-56.5 -61.5t-35 -86t-12 -98q0 -19 2.5 -37t10.5 -32t22 -22.5t37 -8.5q35 0 63.5 19t48.5 47l68 291q-8 3 -28 7.5t-43 4.5zM371 58q-36 -38 -72 -54t-76 -16q-66 0 -103.5 47t-37.5 133q0 69 18.5 133t54.5 113t88 78t119 29q42 0 80 -9
t58 -18t28 -16t8 -23q0 -7 -4.5 -29t-9.5 -41l-42 -177q-7 -29 -12 -63t-8 -65t-4.5 -53.5t-1.5 -26.5h-53q-14 0 -19 5.5t-7 17.5zM296 589q-28 0 -40.5 11.5t-12.5 28.5q0 31 17.5 49.5t52.5 18.5q28 0 41 -11.5t13 -28.5q0 -31 -18 -49.5t-53 -18.5zM485 589
q-28 0 -40.5 11.5t-12.5 28.5q0 31 17.5 49.5t52.5 18.5q28 0 41 -11.5t13 -28.5q0 -31 -18 -49.5t-53 -18.5z" />
    <glyph glyph-name="aring" unicode="&#xe5;" horiz-adv-x="510" 
d="M363 444q-44 0 -77.5 -23.5t-56.5 -61.5t-35 -86t-12 -98q0 -19 2.5 -37t10.5 -32t22 -22.5t37 -8.5q35 0 63.5 19t48.5 47l68 291q-8 3 -28 7.5t-43 4.5zM371 58q-36 -38 -72 -54t-76 -16q-66 0 -103.5 47t-37.5 133q0 69 18.5 133t54.5 113t88 78t119 29q42 0 80 -9
t58 -18t28 -16t8 -23q0 -7 -4.5 -29t-9.5 -41l-42 -177q-7 -29 -12 -63t-8 -65t-4.5 -53.5t-1.5 -26.5h-53q-14 0 -19 5.5t-7 17.5zM407 613q26 0 41.5 13.5t15.5 39.5q0 20 -12.5 35t-35.5 15q-26 0 -41.5 -14t-15.5 -41q0 -20 12.5 -33.5t35.5 -14.5zM407 566q-19 0 -37 5
t-32 16t-22.5 27t-8.5 39q0 52 29.5 81t77.5 29q19 0 37.5 -6t32.5 -17.5t22.5 -28.5t8.5 -39q0 -51 -30 -78.5t-78 -27.5z" />
    <glyph glyph-name="ae" unicode="&#xe6;" horiz-adv-x="771" 
d="M510 261q98 0 149.5 31t51.5 85q0 29 -17 48t-49 19q-37 0 -64 -15t-46.5 -40t-32 -58.5t-19.5 -69.5h27zM356 444q-42 0 -74 -23t-54.5 -61.5t-34 -87.5t-11.5 -101q0 -45 14.5 -70.5t47.5 -25.5q20 0 39.5 9t37 22.5t31.5 30t23 32.5q2 25 6.5 56.5t12.5 64.5t20 66
t28 62q-9 8 -34 17t-52 9zM727 38q-31 -20 -73.5 -34.5t-93.5 -14.5q-62 0 -104 25t-60 82q-15 -21 -33.5 -40.5t-41.5 -34.5t-50 -24t-59 -9q-66 0 -98 48t-32 132q0 69 18.5 133t53.5 113t85.5 78t114.5 29q48 0 86 -16t59 -35q23 20 59.5 35.5t86.5 15.5q74 0 115.5 -36
t41.5 -101q0 -36 -14 -71t-48 -62.5t-90 -44.5t-140 -17h-34q0 -59 18.5 -88t75.5 -29q24 0 44 4t36.5 9t28 9t19.5 4q10 0 14 -6.5t7 -18.5z" />
    <glyph glyph-name="ccedilla" unicode="&#xe7;" horiz-adv-x="409" 
d="M271 73q20 0 37.5 3t30.5 7t20.5 7t12.5 3q10 0 14 -7t16 -53q-25 -17 -58.5 -28t-68.5 -15l-23 -38l14 -5q23 -8 36.5 -23.5t13.5 -38.5q0 -39 -31.5 -60.5t-79.5 -21.5q-31 0 -53 8q-10 4 -10 13q0 6 8 31q7 -2 17 -3t21 -1q18 0 37 5.5t19 25.5q0 11 -8.5 15.5
t-22.5 9.5l-13 4q-15 5 -15 13q0 7 5 16.5t9 16.5l20 34q-69 9 -104 58.5t-35 134.5q0 61 17 121t50.5 108t82.5 78t113 30q22 0 44 -4.5t38.5 -11.5t27 -16t10.5 -18q0 -5 -3 -13.5t-16 -38.5q-10 5 -33.5 12.5t-57.5 7.5q-44 0 -76.5 -23t-54.5 -59.5t-32.5 -82
t-10.5 -90.5q0 -51 20.5 -81t71.5 -30z" />
    <glyph glyph-name="egrave" unicode="&#xe8;" horiz-adv-x="469" 
d="M177 189v-18q0 -46 19.5 -72.5t72.5 -26.5q32 0 56.5 7t38.5 12q10 3 16 5t12 2q9 0 13 -6t9 -20l11 -34q-31 -20 -74.5 -34.5t-94.5 -14.5q-41 0 -73.5 11t-55 34.5t-35 60t-12.5 88.5q0 54 14.5 114t46.5 109.5t81.5 82t120.5 32.5q72 0 114.5 -36.5t42.5 -103.5
q0 -35 -14 -69t-48.5 -61.5t-92.5 -44.5t-146 -17h-22zM205 261q101 0 152.5 31.5t51.5 84.5q0 29 -17 48t-55 19q-34 0 -60 -15.5t-45 -41t-31 -58.5t-17 -68h21zM323 693q12 -28 23 -56t25 -62h-48q-13 0 -23 14l-76 119h78q13 0 21 -15z" />
    <glyph glyph-name="eacute" unicode="&#xe9;" horiz-adv-x="469" 
d="M177 189v-18q0 -46 19.5 -72.5t72.5 -26.5q32 0 56.5 7t38.5 12q10 3 16 5t12 2q9 0 13 -6t9 -20l11 -34q-31 -20 -74.5 -34.5t-94.5 -14.5q-41 0 -73.5 11t-55 34.5t-35 60t-12.5 88.5q0 54 14.5 114t46.5 109.5t81.5 82t120.5 32.5q72 0 114.5 -36.5t42.5 -103.5
q0 -35 -14 -69t-48.5 -61.5t-92.5 -44.5t-146 -17h-22zM205 261q101 0 152.5 31.5t51.5 84.5q0 29 -17 48t-55 19q-34 0 -60 -15.5t-45 -41t-31 -58.5t-17 -68h21zM379 575h-46q-12 0 -12 8q0 5 3 11q16 24 37.5 54.5t41.5 59.5h67q8 0 11 -4t3 -9t-2.5 -10.5t-10.5 -13.5z
" />
    <glyph glyph-name="ecircumflex" unicode="&#xea;" horiz-adv-x="469" 
d="M177 189v-18q0 -46 19.5 -72.5t72.5 -26.5q32 0 56.5 7t38.5 12q10 3 16 5t12 2q9 0 13 -6t9 -20l11 -34q-31 -20 -74.5 -34.5t-94.5 -14.5q-41 0 -73.5 11t-55 34.5t-35 60t-12.5 88.5q0 54 14.5 114t46.5 109.5t81.5 82t120.5 32.5q72 0 114.5 -36.5t42.5 -103.5
q0 -35 -14 -69t-48.5 -61.5t-92.5 -44.5t-146 -17h-22zM205 261q101 0 152.5 31.5t51.5 84.5q0 29 -17 48t-55 19q-34 0 -60 -15.5t-45 -41t-31 -58.5t-17 -68h21zM301 573h-61q-11 0 -11 10q0 7 9 18q22 28 49.5 59t57.5 61h61q11 0 17.5 -3.5t11.5 -16.5l52 -128h-57
q-10 0 -14.5 3.5t-8.5 12.5l-30 74z" />
    <glyph glyph-name="edieresis" unicode="&#xeb;" horiz-adv-x="469" 
d="M177 189v-18q0 -46 19.5 -72.5t72.5 -26.5q32 0 56.5 7t38.5 12q10 3 16 5t12 2q9 0 13 -6t9 -20l11 -34q-31 -20 -74.5 -34.5t-94.5 -14.5q-41 0 -73.5 11t-55 34.5t-35 60t-12.5 88.5q0 54 14.5 114t46.5 109.5t81.5 82t120.5 32.5q72 0 114.5 -36.5t42.5 -103.5
q0 -35 -14 -69t-48.5 -61.5t-92.5 -44.5t-146 -17h-22zM205 261q101 0 152.5 31.5t51.5 84.5q0 29 -17 48t-55 19q-34 0 -60 -15.5t-45 -41t-31 -58.5t-17 -68h21zM267 589q-28 0 -40.5 11.5t-12.5 28.5q0 31 17.5 49.5t52.5 18.5q28 0 41 -11.5t13 -28.5q0 -31 -18 -49.5
t-53 -18.5zM456 589q-28 0 -40.5 11.5t-12.5 28.5q0 31 17.5 49.5t52.5 18.5q28 0 41 -11.5t13 -28.5q0 -31 -18 -49.5t-53 -18.5z" />
    <glyph glyph-name="igrave" unicode="&#xec;" horiz-adv-x="231" 
d="M167 510h70q16 0 20.5 -5t4.5 -13q0 -6 -2.5 -18.5t-4.5 -24.5l-92 -449h-70q-15 0 -19.5 5.5t-4.5 13.5q0 5 2 16.5t5 25.5zM219 693q12 -28 23 -56t25 -62h-48q-13 0 -23 14l-76 119h78q13 0 21 -15z" />
    <glyph glyph-name="iacute" unicode="&#xed;" horiz-adv-x="231" 
d="M167 510h70q16 0 20.5 -5t4.5 -13q0 -6 -2.5 -18.5t-4.5 -24.5l-92 -449h-70q-15 0 -19.5 5.5t-4.5 13.5q0 5 2 16.5t5 25.5zM246 575h-46q-12 0 -12 8q0 5 3 11q16 24 37.5 54.5t41.5 59.5h67q8 0 11 -4t3 -9t-2.5 -10.5t-10.5 -13.5z" />
    <glyph glyph-name="icircumflex" unicode="&#xee;" horiz-adv-x="231" 
d="M167 510h70q16 0 20.5 -5t4.5 -13q0 -6 -2.5 -18.5t-4.5 -24.5l-92 -449h-70q-15 0 -19.5 5.5t-4.5 13.5q0 5 2 16.5t5 25.5zM170 573h-61q-11 0 -11 10q0 7 9 18q22 28 49.5 59t57.5 61h61q11 0 17.5 -3.5t11.5 -16.5l52 -128h-57q-10 0 -14.5 3.5t-8.5 12.5l-30 74z
" />
    <glyph glyph-name="idieresis" unicode="&#xef;" horiz-adv-x="231" 
d="M167 510h70q16 0 20.5 -5t4.5 -13q0 -6 -2.5 -18.5t-4.5 -24.5l-92 -449h-70q-15 0 -19.5 5.5t-4.5 13.5q0 5 2 16.5t5 25.5zM137 589q-28 0 -40.5 11.5t-12.5 28.5q0 31 17.5 49.5t52.5 18.5q28 0 41 -11.5t13 -28.5q0 -31 -18 -49.5t-53 -18.5zM326 589
q-28 0 -40.5 11.5t-12.5 28.5q0 31 17.5 49.5t52.5 18.5q28 0 41 -11.5t13 -28.5q0 -31 -18 -49.5t-53 -18.5z" />
    <glyph glyph-name="eth" unicode="&#xf0;" horiz-adv-x="528" 
d="M247 601l113 41q-14 21 -30 40.5t-36 39.5h83q11 0 17 -3t14 -12q11 -13 29 -38l72 25q7 2 13 4.5t11 2.5q10 0 14 -7.5t7 -17.5l8 -25l-93 -33q31 -53 50 -115.5t19 -137.5q0 -73 -15.5 -140.5t-48 -120t-83 -84t-121.5 -31.5q-87 0 -136 49t-49 140q0 59 15.5 117
t47 103.5t79.5 73.5t112 28q24 0 46 -4t44 -14q-6 29 -16 55.5t-24 52.5l-90 -32q-8 -2 -13.5 -4t-10.5 -2q-10 0 -13.5 5.5t-7.5 18.5zM277 72q47 0 78 28.5t49.5 71t26.5 92t9 90.5q0 10 -0.5 19.5t-1.5 19.5q-17 10 -41.5 17.5t-53.5 7.5q-43 0 -73 -21t-49.5 -55
t-28.5 -77t-9 -86q0 -46 21.5 -76.5t72.5 -30.5z" />
    <glyph glyph-name="ntilde" unicode="&#xf1;" horiz-adv-x="530" 
d="M167 510h57q20 0 21 -12q1 -5 1 -9v-10v-21q24 23 65.5 43t91.5 20q58 0 94.5 -31.5t36.5 -97.5q0 -18 -3.5 -43.5t-9.5 -57.5l-59 -291h-68q-16 0 -21 5.5t-5 13.5q0 5 2.5 17t4.5 25l48 239q6 30 8.5 47t2.5 34q0 58 -69 58q-21 0 -39.5 -5.5t-34.5 -14t-28.5 -18.5
t-21.5 -19l-77 -382h-70q-15 0 -19.5 5.5t-4.5 13.5q0 5 2.5 18t4.5 24zM524 702q9 0 12 -3.5t3 -9.5q0 -24 -8 -44t-21.5 -34.5t-31.5 -22.5t-37 -8q-38 0 -74 31q-10 8 -21.5 18t-26.5 10q-19 0 -26.5 -19t-11.5 -38h-41q-9 0 -12 3.5t-3 9.5q0 25 8.5 45t22 34.5t31.5 22
t37 7.5q23 0 40 -9t34 -23q14 -11 24.5 -19.5t21.5 -8.5q18 0 26 17t13 41h41z" />
    <glyph glyph-name="ograve" unicode="&#xf2;" horiz-adv-x="518" 
d="M85 180q0 67 18 128.5t52 108.5t83.5 75.5t112.5 28.5q84 0 133 -48.5t49 -142.5q0 -66 -17 -128t-50.5 -109t-83 -75.5t-113.5 -28.5q-85 0 -134.5 47.5t-49.5 143.5zM183 182q0 -48 21 -79t67 -31q40 0 71 22t51.5 58.5t31 82.5t10.5 94q0 49 -20.5 79.5t-65.5 30.5
q-41 0 -72 -22.5t-52 -58.5t-31.5 -82t-10.5 -94zM365 693q12 -28 23 -56t25 -62h-48q-13 0 -23 14l-76 119h78q13 0 21 -15z" />
    <glyph glyph-name="oacute" unicode="&#xf3;" horiz-adv-x="518" 
d="M85 180q0 67 18 128.5t52 108.5t83.5 75.5t112.5 28.5q84 0 133 -48.5t49 -142.5q0 -66 -17 -128t-50.5 -109t-83 -75.5t-113.5 -28.5q-85 0 -134.5 47.5t-49.5 143.5zM183 182q0 -48 21 -79t67 -31q40 0 71 22t51.5 58.5t31 82.5t10.5 94q0 49 -20.5 79.5t-65.5 30.5
q-41 0 -72 -22.5t-52 -58.5t-31.5 -82t-10.5 -94zM397 575h-46q-12 0 -12 8q0 5 3 11q16 24 37.5 54.5t41.5 59.5h67q8 0 11 -4t3 -9t-2.5 -10.5t-10.5 -13.5z" />
    <glyph glyph-name="ocircumflex" unicode="&#xf4;" horiz-adv-x="518" 
d="M85 180q0 67 18 128.5t52 108.5t83.5 75.5t112.5 28.5q84 0 133 -48.5t49 -142.5q0 -66 -17 -128t-50.5 -109t-83 -75.5t-113.5 -28.5q-85 0 -134.5 47.5t-49.5 143.5zM183 182q0 -48 21 -79t67 -31q40 0 71 22t51.5 58.5t31 82.5t10.5 94q0 49 -20.5 79.5t-65.5 30.5
q-41 0 -72 -22.5t-52 -58.5t-31.5 -82t-10.5 -94zM316 573h-61q-11 0 -11 10q0 7 9 18q22 28 49.5 59t57.5 61h61q11 0 17.5 -3.5t11.5 -16.5l52 -128h-57q-10 0 -14.5 3.5t-8.5 12.5l-30 74z" />
    <glyph glyph-name="otilde" unicode="&#xf5;" horiz-adv-x="518" 
d="M85 180q0 67 18 128.5t52 108.5t83.5 75.5t112.5 28.5q84 0 133 -48.5t49 -142.5q0 -66 -17 -128t-50.5 -109t-83 -75.5t-113.5 -28.5q-85 0 -134.5 47.5t-49.5 143.5zM183 182q0 -48 21 -79t67 -31q40 0 71 22t51.5 58.5t31 82.5t10.5 94q0 49 -20.5 79.5t-65.5 30.5
q-41 0 -72 -22.5t-52 -58.5t-31.5 -82t-10.5 -94zM531 702q9 0 12 -3.5t3 -9.5q0 -24 -8 -44t-21.5 -34.5t-31.5 -22.5t-37 -8q-38 0 -74 31q-10 8 -21.5 18t-26.5 10q-19 0 -26.5 -19t-11.5 -38h-41q-9 0 -12 3.5t-3 9.5q0 25 8.5 45t22 34.5t31.5 22t37 7.5q23 0 40 -9
t34 -23q14 -11 24.5 -19.5t21.5 -8.5q18 0 26 17t13 41h41z" />
    <glyph glyph-name="odieresis" unicode="&#xf6;" horiz-adv-x="518" 
d="M85 180q0 67 18 128.5t52 108.5t83.5 75.5t112.5 28.5q84 0 133 -48.5t49 -142.5q0 -66 -17 -128t-50.5 -109t-83 -75.5t-113.5 -28.5q-85 0 -134.5 47.5t-49.5 143.5zM183 182q0 -48 21 -79t67 -31q40 0 71 22t51.5 58.5t31 82.5t10.5 94q0 49 -20.5 79.5t-65.5 30.5
q-41 0 -72 -22.5t-52 -58.5t-31.5 -82t-10.5 -94zM288 589q-28 0 -40.5 11.5t-12.5 28.5q0 31 17.5 49.5t52.5 18.5q28 0 41 -11.5t13 -28.5q0 -31 -18 -49.5t-53 -18.5zM477 589q-28 0 -40.5 11.5t-12.5 28.5q0 31 17.5 49.5t52.5 18.5q28 0 41 -11.5t13 -28.5
q0 -31 -18 -49.5t-53 -18.5z" />
    <glyph glyph-name="divide" unicode="&#xf7;" horiz-adv-x="536" 
d="M356 450q-25 0 -38 13.5t-13 33.5q0 35 18.5 51.5t50.5 16.5q25 0 38 -12.5t13 -32.5q0 -35 -18.5 -52.5t-50.5 -17.5zM147 384h368q11 0 15 -4.5t4 -11.5q0 -4 -1 -10.5t-2 -10.5l-10 -47h-368q-11 0 -15 4.5t-4 11.5q0 4 1 10.5t2 10.5zM292 118q-25 0 -38 13.5
t-13 33.5q0 35 18.5 51.5t50.5 16.5q25 0 38 -12.5t13 -32.5q0 -35 -18.5 -52.5t-50.5 -17.5z" />
    <glyph glyph-name="oslash" unicode="&#xf8;" horiz-adv-x="518" 
d="M85 180q0 67 18 128.5t52 108.5t83.5 75.5t112.5 28.5q73 0 120 -38l53 61h50q10 0 10 -9q0 -4 -2 -7t-9 -11l-66 -76q26 -46 26 -111q0 -66 -17 -128t-50.5 -109t-83 -75.5t-113.5 -28.5q-76 0 -123 38l-54 -63h-50q-10 0 -10 9q0 4 3 8.5t8 9.5l68 78q-26 44 -26 111z
M435 329q0 7 -0.5 14t-1.5 13l-225 -258q21 -26 63 -26q41 0 71.5 22t51 58.5t31 82.5t10.5 94zM183 182q0 -8 0.5 -15t1.5 -13l225 259q-11 12 -26 19t-35 7q-41 0 -72 -22.5t-52 -58.5t-31.5 -82t-10.5 -94z" />
    <glyph glyph-name="ugrave" unicode="&#xf9;" horiz-adv-x="522" 
d="M493 208q-6 -29 -10.5 -62t-8 -63t-5.5 -53t-2 -30h-52q-14 0 -19.5 5t-7.5 18l-5 37q-28 -29 -69 -50t-92 -21q-61 0 -97.5 33.5t-36.5 99.5q0 13 3 38t10 59l59 291h69q15 0 20 -5.5t5 -13.5q0 -5 -2.5 -17t-4.5 -25l-48 -240q-6 -29 -8.5 -46t-2.5 -32q0 -60 67 -60
q20 0 38 5.5t34 14.5t28.5 19t21.5 19l77 381h69q15 0 20 -5t5 -13q0 -6 -2.5 -19t-4.5 -24zM352 693q12 -28 23 -56t25 -62h-48q-13 0 -23 14l-76 119h78q13 0 21 -15z" />
    <glyph glyph-name="uacute" unicode="&#xfa;" horiz-adv-x="522" 
d="M493 208q-6 -29 -10.5 -62t-8 -63t-5.5 -53t-2 -30h-52q-14 0 -19.5 5t-7.5 18l-5 37q-28 -29 -69 -50t-92 -21q-61 0 -97.5 33.5t-36.5 99.5q0 13 3 38t10 59l59 291h69q15 0 20 -5.5t5 -13.5q0 -5 -2.5 -17t-4.5 -25l-48 -240q-6 -29 -8.5 -46t-2.5 -32q0 -60 67 -60
q20 0 38 5.5t34 14.5t28.5 19t21.5 19l77 381h69q15 0 20 -5t5 -13q0 -6 -2.5 -19t-4.5 -24zM381 575h-46q-12 0 -12 8q0 5 3 11q16 24 37.5 54.5t41.5 59.5h67q8 0 11 -4t3 -9t-2.5 -10.5t-10.5 -13.5z" />
    <glyph glyph-name="ucircumflex" unicode="&#xfb;" horiz-adv-x="522" 
d="M493 208q-6 -29 -10.5 -62t-8 -63t-5.5 -53t-2 -30h-52q-14 0 -19.5 5t-7.5 18l-5 37q-28 -29 -69 -50t-92 -21q-61 0 -97.5 33.5t-36.5 99.5q0 13 3 38t10 59l59 291h69q15 0 20 -5.5t5 -13.5q0 -5 -2.5 -17t-4.5 -25l-48 -240q-6 -29 -8.5 -46t-2.5 -32q0 -60 67 -60
q20 0 38 5.5t34 14.5t28.5 19t21.5 19l77 381h69q15 0 20 -5t5 -13q0 -6 -2.5 -19t-4.5 -24zM310 573h-61q-11 0 -11 10q0 7 9 18q22 28 49.5 59t57.5 61h61q11 0 17.5 -3.5t11.5 -16.5l52 -128h-57q-10 0 -14.5 3.5t-8.5 12.5l-30 74z" />
    <glyph glyph-name="udieresis" unicode="&#xfc;" horiz-adv-x="522" 
d="M493 208q-6 -29 -10.5 -62t-8 -63t-5.5 -53t-2 -30h-52q-14 0 -19.5 5t-7.5 18l-5 37q-28 -29 -69 -50t-92 -21q-61 0 -97.5 33.5t-36.5 99.5q0 13 3 38t10 59l59 291h69q15 0 20 -5.5t5 -13.5q0 -5 -2.5 -17t-4.5 -25l-48 -240q-6 -29 -8.5 -46t-2.5 -32q0 -60 67 -60
q20 0 38 5.5t34 14.5t28.5 19t21.5 19l77 381h69q15 0 20 -5t5 -13q0 -6 -2.5 -19t-4.5 -24zM272 589q-28 0 -40.5 11.5t-12.5 28.5q0 31 17.5 49.5t52.5 18.5q28 0 41 -11.5t13 -28.5q0 -31 -18 -49.5t-53 -18.5zM461 589q-28 0 -40.5 11.5t-12.5 28.5q0 31 17.5 49.5
t52.5 18.5q28 0 41 -11.5t13 -28.5q0 -31 -18 -49.5t-53 -18.5z" />
    <glyph glyph-name="yacute" unicode="&#xfd;" horiz-adv-x="471" 
d="M50 -174q-23 0 -38.5 9.5t-15.5 26.5q0 9 3 26l4 20q5 -1 14.5 -1.5t17.5 -0.5q44 0 80.5 30t78.5 89q-17 37 -31 83.5t-24.5 98t-16.5 107t-6 111.5v36t2 49h72q14 0 19 -6t5 -25v-51q0 -91 9 -172t31 -150q57 91 102.5 191.5t83.5 212.5h70q12 0 15.5 -4.5t3.5 -11.5
q0 -8 -4.5 -22.5t-11.5 -36.5q-13 -39 -36 -91t-52.5 -108.5t-63 -113t-66.5 -103.5q-65 -92 -122 -142.5t-123 -50.5zM357 575h-46q-12 0 -12 8q0 5 3 11q16 24 37.5 54.5t41.5 59.5h67q8 0 11 -4t3 -9t-2.5 -10.5t-10.5 -13.5z" />
    <glyph glyph-name="thorn" unicode="&#xfe;" horiz-adv-x="512" 
d="M373 521q42 0 71 -14.5t46.5 -40t25 -61.5t7.5 -78q0 -65 -14.5 -124t-44.5 -104t-76 -71.5t-109 -26.5q-29 0 -58.5 7t-54.5 24l-42 -202h-64q-11 0 -19 3t-8 15q0 8 5 33l169 837h72q22 0 22 -17q0 -5 -2 -14.5t-4 -20.5l-40 -197q28 27 58 39.5t60 12.5zM425 326
q0 20 -2.5 40.5t-10 37t-22 26.5t-39.5 10q-18 0 -34.5 -5.5t-31 -14t-26.5 -18.5t-21 -19l-56 -279q8 -6 29 -15.5t55 -9.5q45 0 75 22.5t49 57.5t27 79t8 88z" />
    <glyph glyph-name="ydieresis" unicode="&#xff;" horiz-adv-x="471" 
d="M50 -174q-23 0 -38.5 9.5t-15.5 26.5q0 9 3 26l4 20q5 -1 14.5 -1.5t17.5 -0.5q44 0 80.5 30t78.5 89q-17 37 -31 83.5t-24.5 98t-16.5 107t-6 111.5v36t2 49h72q14 0 19 -6t5 -25v-51q0 -91 9 -172t31 -150q57 91 102.5 191.5t83.5 212.5h70q12 0 15.5 -4.5t3.5 -11.5
q0 -8 -4.5 -22.5t-11.5 -36.5q-13 -39 -36 -91t-52.5 -108.5t-63 -113t-66.5 -103.5q-65 -92 -122 -142.5t-123 -50.5zM238 589q-28 0 -40.5 11.5t-12.5 28.5q0 31 17.5 49.5t52.5 18.5q28 0 41 -11.5t13 -28.5q0 -31 -18 -49.5t-53 -18.5zM427 589q-28 0 -40.5 11.5
t-12.5 28.5q0 31 17.5 49.5t52.5 18.5q28 0 41 -11.5t13 -28.5q0 -31 -18 -49.5t-53 -18.5z" />
    <glyph glyph-name="Amacron" unicode="&#x100;" horiz-adv-x="524" 
d="M193 194q-20 -50 -38.5 -99.5t-32.5 -94.5h-71q-12 0 -17 5t-5 13q0 10 3 19.5t8 23.5q38 107 112.5 268t195.5 364h89q28 0 34 -31q11 -68 20 -171.5t9 -224.5q0 -74 -2 -140t-6 -126h-75q-22 0 -22 23q0 6 1 25t2.5 44t3 52t2.5 50h-211zM391 611q-26 -47 -47.5 -89.5
t-41.5 -83t-38.5 -81t-37.5 -82.5h179q1 13 1.5 26t0.5 24q0 70 -2.5 140t-13.5 146zM308 848h222q11 0 15 -4.5t4 -11.5q0 -4 -1 -10.5t-2 -10.5l-7 -37h-222q-11 0 -15 4.5t-4 11.5q0 4 1 10.5t2 10.5z" />
    <glyph glyph-name="amacron" unicode="&#x101;" horiz-adv-x="510" 
d="M363 444q-44 0 -77.5 -23.5t-56.5 -61.5t-35 -86t-12 -98q0 -19 2.5 -37t10.5 -32t22 -22.5t37 -8.5q35 0 63.5 19t48.5 47l68 291q-8 3 -28 7.5t-43 4.5zM371 58q-36 -38 -72 -54t-76 -16q-66 0 -103.5 47t-37.5 133q0 69 18.5 133t54.5 113t88 78t119 29q42 0 80 -9
t58 -18t28 -16t8 -23q0 -7 -4.5 -29t-9.5 -41l-42 -177q-7 -29 -12 -63t-8 -65t-4.5 -53.5t-1.5 -26.5h-53q-14 0 -19 5.5t-7 17.5zM282 679h222q11 0 15 -4.5t4 -11.5q0 -4 -1 -10.5t-2 -10.5l-7 -37h-222q-11 0 -15 4.5t-4 11.5q0 4 1 10.5t2 10.5z" />
    <glyph glyph-name="Abreve" unicode="&#x102;" horiz-adv-x="524" 
d="M193 194q-20 -50 -38.5 -99.5t-32.5 -94.5h-71q-12 0 -17 5t-5 13q0 10 3 19.5t8 23.5q38 107 112.5 268t195.5 364h89q28 0 34 -31q11 -68 20 -171.5t9 -224.5q0 -74 -2 -140t-6 -126h-75q-22 0 -22 23q0 6 1 25t2.5 44t3 52t2.5 50h-211zM391 611q-26 -47 -47.5 -89.5
t-41.5 -83t-38.5 -81t-37.5 -82.5h179q1 13 1.5 26t0.5 24q0 70 -2.5 140t-13.5 146zM374 856q0 -27 9.5 -38t32.5 -11q30 0 47 21.5t24 52.5h48q14 0 14 -11q0 -30 -13 -53t-33 -39t-44.5 -24t-48.5 -8q-42 0 -72.5 21t-30.5 75q0 20 4 39h45q12 0 15 -6t3 -19z" />
    <glyph glyph-name="abreve" unicode="&#x103;" horiz-adv-x="510" 
d="M363 444q-44 0 -77.5 -23.5t-56.5 -61.5t-35 -86t-12 -98q0 -19 2.5 -37t10.5 -32t22 -22.5t37 -8.5q35 0 63.5 19t48.5 47l68 291q-8 3 -28 7.5t-43 4.5zM371 58q-36 -38 -72 -54t-76 -16q-66 0 -103.5 47t-37.5 133q0 69 18.5 133t54.5 113t88 78t119 29q42 0 80 -9
t58 -18t28 -16t8 -23q0 -7 -4.5 -29t-9.5 -41l-42 -177q-7 -29 -12 -63t-8 -65t-4.5 -53.5t-1.5 -26.5h-53q-14 0 -19 5.5t-7 17.5zM359 687q0 -27 9.5 -38t32.5 -11q32 0 48.5 21t22.5 52h48q14 0 14 -11q0 -26 -10.5 -48.5t-29 -39t-42.5 -26.5t-51 -10q-50 0 -79.5 22.5
t-29.5 73.5q0 20 4 39h45q12 0 15 -5.5t3 -18.5z" />
    <glyph glyph-name="Aogonek" unicode="&#x104;" horiz-adv-x="524" 
d="M401 -184q-31 0 -53.5 13t-22.5 45q0 39 26.5 70t61.5 56q-18 1 -18 23q0 6 1 25t2.5 44t3 52t2.5 50h-211q-20 -50 -38.5 -99.5t-32.5 -94.5h-71q-12 0 -17 5t-5 13q0 10 3 19.5t8 23.5q38 107 112.5 268t195.5 364h89q28 0 34 -31q11 -68 20 -171.5t9 -224.5
q0 -74 -2 -140t-6 -126q-11 -7 -27 -18.5t-30.5 -25t-25 -28t-10.5 -29.5q0 -20 26 -20q14 0 24.5 1.5t14.5 1.5q9 0 9 -8q0 -2 -1 -9.5t-2 -12.5l-4 -23q-29 -13 -65 -13zM391 611q-26 -47 -47.5 -89.5t-41.5 -83t-38.5 -81t-37.5 -82.5h179q1 13 1.5 26t0.5 24
q0 70 -2.5 140t-13.5 146z" />
    <glyph glyph-name="aogonek" unicode="&#x105;" horiz-adv-x="510" 
d="M371 58q-36 -38 -72 -54t-76 -16q-66 0 -103.5 47t-37.5 133q0 69 18.5 133t54.5 113t88 78t119 29q42 0 80 -9t58 -18t28 -16t8 -23q0 -7 -4.5 -29t-9.5 -41l-42 -177q-7 -29 -12 -63t-8 -65t-4.5 -53.5t-1.5 -26.5q-11 -7 -27 -18.5t-30.5 -25t-25 -28t-10.5 -29.5
q0 -20 26 -20q14 0 24.5 1.5t14.5 1.5q9 0 9 -8q0 -2 -1 -9.5t-2 -12.5l-4 -23q-29 -13 -65 -13q-31 0 -53.5 13t-22.5 45q0 38 26.5 70t63.5 57zM363 444q-44 0 -77.5 -23.5t-56.5 -61.5t-35 -86t-12 -98q0 -19 2.5 -37t10.5 -32t22 -22.5t37 -8.5q35 0 63.5 19t48.5 47
l68 291q-8 3 -28 7.5t-43 4.5z" />
    <glyph glyph-name="Cacute" unicode="&#x106;" horiz-adv-x="489" 
d="M450 703q20 0 42.5 -4t41 -10.5t31 -16t12.5 -20.5q0 -10 -7 -29l-11 -28q-16 6 -43 13t-59 7q-63 0 -109.5 -37t-77.5 -93.5t-46 -124.5t-15 -130q0 -79 26 -114t88 -35q27 0 49.5 6.5t44.5 15.5q7 3 13.5 5.5t11.5 2.5q8 0 12.5 -6.5t8.5 -17.5l15 -44
q-30 -21 -74.5 -37.5t-98.5 -16.5q-99 0 -150.5 56.5t-51.5 175.5q0 57 10.5 115t31 111.5t50 100t68 81t85.5 54.5t102 20zM445 745h-51q-12 0 -12 8q0 5 3 11q17 25 39.5 57t45.5 62h69q5 0 9.5 -3t4.5 -9q0 -5 -2.5 -11t-10.5 -14z" />
    <glyph glyph-name="cacute" unicode="&#x107;" horiz-adv-x="409" 
d="M271 73q20 0 37.5 3t32.5 8q11 3 18.5 6t12.5 3q10 0 13.5 -7t7.5 -18l9 -35q-29 -19 -69.5 -31.5t-82.5 -12.5q-84 0 -127 50.5t-43 144.5q0 61 17 121t50.5 108t82.5 78t113 30q22 0 44 -4.5t38.5 -11.5t27 -16t10.5 -18q0 -5 -3 -12.5t-5 -13.5l-11 -26
q-10 5 -33.5 12.5t-57.5 7.5q-44 0 -76.5 -23t-54.5 -59.5t-32.5 -82t-10.5 -90.5q0 -51 20.5 -81t71.5 -30zM357 575h-46q-12 0 -12 8q0 5 3 11q16 24 37.5 54.5t41.5 59.5h67q8 0 11 -4t3 -9t-2.5 -10.5t-10.5 -13.5z" />
    <glyph glyph-name="Ccircumflex" unicode="&#x108;" horiz-adv-x="489" 
d="M450 703q20 0 42.5 -4t41 -10.5t31 -16t12.5 -20.5q0 -10 -7 -29l-11 -28q-16 6 -43 13t-59 7q-63 0 -109.5 -37t-77.5 -93.5t-46 -124.5t-15 -130q0 -79 26 -114t88 -35q27 0 49.5 6.5t44.5 15.5q7 3 13.5 5.5t11.5 2.5q8 0 12.5 -6.5t8.5 -17.5l15 -44
q-30 -21 -74.5 -37.5t-98.5 -16.5q-99 0 -150.5 56.5t-51.5 175.5q0 57 10.5 115t31 111.5t50 100t68 81t85.5 54.5t102 20zM386 745h-62q-12 0 -12 11q0 6 11 20q26 29 55 58t51 49h64q11 0 17 -4t12 -16q13 -25 28 -57.5t26 -60.5h-57q-11 0 -16.5 4.5t-10.5 13.5l-29 63z
" />
    <glyph glyph-name="ccircumflex" unicode="&#x109;" horiz-adv-x="409" 
d="M271 73q20 0 37.5 3t32.5 8q11 3 18.5 6t12.5 3q10 0 13.5 -7t7.5 -18l9 -35q-29 -19 -69.5 -31.5t-82.5 -12.5q-84 0 -127 50.5t-43 144.5q0 61 17 121t50.5 108t82.5 78t113 30q22 0 44 -4.5t38.5 -11.5t27 -16t10.5 -18q0 -5 -3 -12.5t-5 -13.5l-11 -26
q-10 5 -33.5 12.5t-57.5 7.5q-44 0 -76.5 -23t-54.5 -59.5t-32.5 -82t-10.5 -90.5q0 -51 20.5 -81t71.5 -30zM285 573h-61q-11 0 -11 10q0 7 9 18q22 28 49.5 59t57.5 61h61q11 0 17.5 -3.5t11.5 -16.5l52 -128h-57q-10 0 -14.5 3.5t-8.5 12.5l-30 74z" />
    <glyph glyph-name="Cdotaccent" unicode="&#x10a;" horiz-adv-x="489" 
d="M450 703q20 0 42.5 -4t41 -10.5t31 -16t12.5 -20.5q0 -10 -7 -29l-11 -28q-16 6 -43 13t-59 7q-63 0 -109.5 -37t-77.5 -93.5t-46 -124.5t-15 -130q0 -79 26 -114t88 -35q27 0 49.5 6.5t44.5 15.5q7 3 13.5 5.5t11.5 2.5q8 0 12.5 -6.5t8.5 -17.5l15 -44
q-30 -21 -74.5 -37.5t-98.5 -16.5q-99 0 -150.5 56.5t-51.5 175.5q0 57 10.5 115t31 111.5t50 100t68 81t85.5 54.5t102 20zM453 757q-29 0 -41.5 11.5t-12.5 29.5q0 32 18 50.5t53 18.5q29 0 42 -12t13 -29q0 -32 -18 -50.5t-54 -18.5z" />
    <glyph glyph-name="cdotaccent" unicode="&#x10b;" horiz-adv-x="409" 
d="M271 73q20 0 37.5 3t32.5 8q11 3 18.5 6t12.5 3q10 0 13.5 -7t7.5 -18l9 -35q-29 -19 -69.5 -31.5t-82.5 -12.5q-84 0 -127 50.5t-43 144.5q0 61 17 121t50.5 108t82.5 78t113 30q22 0 44 -4.5t38.5 -11.5t27 -16t10.5 -18q0 -5 -3 -12.5t-5 -13.5l-11 -26
q-10 5 -33.5 12.5t-57.5 7.5q-44 0 -76.5 -23t-54.5 -59.5t-32.5 -82t-10.5 -90.5q0 -51 20.5 -81t71.5 -30zM356 589q-29 0 -41.5 11.5t-12.5 29.5q0 32 18 50.5t53 18.5q29 0 42 -12t13 -29q0 -32 -18 -50.5t-54 -18.5z" />
    <glyph glyph-name="Ccaron" unicode="&#x10c;" horiz-adv-x="489" 
d="M450 703q20 0 42.5 -4t41 -10.5t31 -16t12.5 -20.5q0 -10 -7 -29l-11 -28q-16 6 -43 13t-59 7q-63 0 -109.5 -37t-77.5 -93.5t-46 -124.5t-15 -130q0 -79 26 -114t88 -35q27 0 49.5 6.5t44.5 15.5q7 3 13.5 5.5t11.5 2.5q8 0 12.5 -6.5t8.5 -17.5l15 -44
q-30 -21 -74.5 -37.5t-98.5 -16.5q-99 0 -150.5 56.5t-51.5 175.5q0 57 10.5 115t31 111.5t50 100t68 81t85.5 54.5t102 20zM517 883h62q12 0 12 -11q0 -6 -11 -20q-26 -29 -55 -58t-51 -49h-64q-11 0 -17 4t-12 16q-13 25 -28 57.5t-26 60.5h57q11 0 16.5 -4.5t10.5 -13.5
l29 -63z" />
    <glyph glyph-name="ccaron" unicode="&#x10d;" horiz-adv-x="409" 
d="M271 73q20 0 37.5 3t32.5 8q11 3 18.5 6t12.5 3q10 0 13.5 -7t7.5 -18l9 -35q-29 -19 -69.5 -31.5t-82.5 -12.5q-84 0 -127 50.5t-43 144.5q0 61 17 121t50.5 108t82.5 78t113 30q22 0 44 -4.5t38.5 -11.5t27 -16t10.5 -18q0 -5 -3 -12.5t-5 -13.5l-11 -26
q-10 5 -33.5 12.5t-57.5 7.5q-44 0 -76.5 -23t-54.5 -59.5t-32.5 -82t-10.5 -90.5q0 -51 20.5 -81t71.5 -30zM429 721h58q13 0 13 -10q0 -5 -6 -14q-24 -34 -52.5 -64.5t-57.5 -59.5h-61q-11 0 -16.5 4t-11.5 17q-14 28 -28 62.5t-25 64.5h57q11 0 15.5 -3.5t9.5 -14.5
l29 -72z" />
    <glyph glyph-name="Dcaron" unicode="&#x10e;" horiz-adv-x="575" 
d="M96 0q-14 0 -19 5t-5 14q0 5 2 17t5 27.5t6.5 32.5t6.5 32l112 555q27 6 65 11t76 5q118 0 186 -65.5t68 -200.5q0 -89 -26.5 -167.5t-75 -137.5t-117 -93.5t-153.5 -34.5h-131zM183 84h49q57 0 105.5 26.5t84.5 73.5t56 112.5t20 142.5q0 94 -36.5 136t-111.5 42
q-17 0 -32 -1.5t-29 -3.5zM453 883h62q12 0 12 -11q0 -6 -11 -20q-26 -29 -55 -58t-51 -49h-64q-11 0 -17 4t-12 16q-13 25 -28 57.5t-26 60.5h57q11 0 16.5 -4.5t10.5 -13.5l29 -63z" />
    <glyph glyph-name="dcaron" unicode="&#x10f;" horiz-adv-x="562" 
d="M482 208q-6 -28 -10.5 -62.5t-7.5 -65t-5 -53t-2 -27.5h-54q-14 0 -19 5.5t-7 17.5l-4 35q-36 -38 -74.5 -54t-76.5 -16q-69 0 -105.5 47t-36.5 133q0 69 19 132.5t54 112.5t85.5 78.5t112.5 29.5q25 0 48 -5t43 -13l44 215h68q26 0 26 -20q0 -5 -2 -13t-4 -19zM252 72
q34 0 64.5 19t50.5 46l61 294q-10 4 -28.5 8.5t-44.5 4.5q-41 0 -73 -22.5t-54.5 -60.5t-34.5 -87.5t-12 -103.5q0 -46 17.5 -72t53.5 -26zM701 718q19 0 19 -14q0 -5 -5 -22t-12 -38.5t-16 -45.5t-16 -43h-42q-16 0 -16 14q0 6 2 22t5.5 37t7.5 44.5t8 45.5h65z" />
    <glyph glyph-name="Dcroat" unicode="&#x110;" horiz-adv-x="575" 
d="M96 0q-14 0 -19 5t-5 14q0 5 2 17t5 27.5t6.5 32.5t6.5 32l39 194h-49q-21 0 -21 18q0 4 1 12.5t8 40.5h75l59 290q27 6 65 11t76 5q118 0 186 -65.5t68 -200.5q0 -89 -26.5 -167.5t-75 -137.5t-117 -93.5t-153.5 -34.5h-131zM183 84h49q57 0 105.5 26.5t84.5 73.5
t56 112.5t20 142.5q0 94 -36.5 136t-111.5 42q-17 0 -32 -1.5t-29 -3.5l-44 -219h96q22 0 22 -19q0 -4 -1.5 -12.5t-8.5 -39.5h-122z" />
    <glyph glyph-name="dcroat" unicode="&#x111;" horiz-adv-x="510" 
d="M569 643h34q22 0 22 -19q0 -4 -1.5 -12.5t-3.5 -15.5l-3 -15h-60l-75 -373q-6 -28 -10.5 -62.5t-7.5 -65t-5 -53t-2 -27.5h-54q-14 0 -19 5.5t-7 17.5l-4 35q-36 -38 -74.5 -54t-76.5 -16q-69 0 -105.5 47t-36.5 133q0 69 19 132.5t54 112.5t85.5 78.5t112.5 29.5
q25 0 48 -5t43 -13l16 78h-79q-21 0 -21 18q0 4 1 12.5t3 16.5l3 15h105l16 75h68q26 0 26 -20q0 -5 -2 -13t-4 -19zM252 72q34 0 64.5 19t50.5 46l61 294q-10 4 -28.5 8.5t-44.5 4.5q-41 0 -73 -22.5t-54.5 -60.5t-34.5 -87.5t-12 -103.5q0 -46 17.5 -72t53.5 -26z" />
    <glyph glyph-name="Emacron" unicode="&#x112;" horiz-adv-x="506" 
d="M205 693h354q23 0 23 -18q0 -4 -1 -11t-3 -17l-8 -40h-284l-43 -213h230q23 0 23 -19q0 -4 -1 -11t-3 -17l-8 -40h-258l-45 -221h266q23 0 23 -18q0 -4 -1 -11t-3 -17l-8 -40h-362q-14 0 -19 5t-5 14q0 6 3.5 23.5t7.5 38.5zM301 848h222q11 0 15 -4.5t4 -11.5
q0 -4 -1 -10.5t-2 -10.5l-7 -37h-222q-11 0 -15 4.5t-4 11.5q0 4 1 10.5t2 10.5z" />
    <glyph glyph-name="emacron" unicode="&#x113;" horiz-adv-x="469" 
d="M177 189v-18q0 -46 19.5 -72.5t72.5 -26.5q32 0 56.5 7t38.5 12q10 3 16 5t12 2q9 0 13 -6t9 -20l11 -34q-31 -20 -74.5 -34.5t-94.5 -14.5q-41 0 -73.5 11t-55 34.5t-35 60t-12.5 88.5q0 54 14.5 114t46.5 109.5t81.5 82t120.5 32.5q72 0 114.5 -36.5t42.5 -103.5
q0 -35 -14 -69t-48.5 -61.5t-92.5 -44.5t-146 -17h-22zM205 261q101 0 152.5 31.5t51.5 84.5q0 29 -17 48t-55 19q-34 0 -60 -15.5t-45 -41t-31 -58.5t-17 -68h21zM243 679h222q11 0 15 -4.5t4 -11.5q0 -4 -1 -10.5t-2 -10.5l-7 -37h-222q-11 0 -15 4.5t-4 11.5q0 4 1 10.5
t2 10.5z" />
    <glyph glyph-name="Ebreve" unicode="&#x114;" horiz-adv-x="506" 
d="M205 693h354q23 0 23 -18q0 -4 -1 -11t-3 -17l-8 -40h-284l-43 -213h230q23 0 23 -19q0 -4 -1 -11t-3 -17l-8 -40h-258l-45 -221h266q23 0 23 -18q0 -4 -1 -11t-3 -17l-8 -40h-362q-14 0 -19 5t-5 14q0 6 3.5 23.5t7.5 38.5zM378 856q0 -27 9.5 -38t32.5 -11
q30 0 47 21.5t24 52.5h48q14 0 14 -11q0 -30 -13 -53t-33 -39t-44.5 -24t-48.5 -8q-42 0 -72.5 21t-30.5 75q0 20 4 39h45q12 0 15 -6t3 -19z" />
    <glyph glyph-name="ebreve" unicode="&#x115;" horiz-adv-x="469" 
d="M177 189v-18q0 -46 19.5 -72.5t72.5 -26.5q32 0 56.5 7t38.5 12q10 3 16 5t12 2q9 0 13 -6t9 -20l11 -34q-31 -20 -74.5 -34.5t-94.5 -14.5q-41 0 -73.5 11t-55 34.5t-35 60t-12.5 88.5q0 54 14.5 114t46.5 109.5t81.5 82t120.5 32.5q72 0 114.5 -36.5t42.5 -103.5
q0 -35 -14 -69t-48.5 -61.5t-92.5 -44.5t-146 -17h-22zM205 261q101 0 152.5 31.5t51.5 84.5q0 29 -17 48t-55 19q-34 0 -60 -15.5t-45 -41t-31 -58.5t-17 -68h21zM327 687q0 -27 9.5 -38t32.5 -11q32 0 48.5 21t22.5 52h48q14 0 14 -11q0 -26 -10.5 -48.5t-29 -39
t-42.5 -26.5t-51 -10q-50 0 -79.5 22.5t-29.5 73.5q0 20 4 39h45q12 0 15 -5.5t3 -18.5z" />
    <glyph glyph-name="Edotaccent" unicode="&#x116;" horiz-adv-x="506" 
d="M205 693h354q23 0 23 -18q0 -4 -1 -11t-3 -17l-8 -40h-284l-43 -213h230q23 0 23 -19q0 -4 -1 -11t-3 -17l-8 -40h-258l-45 -221h266q23 0 23 -18q0 -4 -1 -11t-3 -17l-8 -40h-362q-14 0 -19 5t-5 14q0 6 3.5 23.5t7.5 38.5zM409 757q-29 0 -41.5 11.5t-12.5 29.5
q0 32 18 50.5t53 18.5q29 0 42 -12t13 -29q0 -32 -18 -50.5t-54 -18.5z" />
    <glyph glyph-name="edotaccent" unicode="&#x117;" horiz-adv-x="469" 
d="M177 189v-18q0 -46 19.5 -72.5t72.5 -26.5q32 0 56.5 7t38.5 12q10 3 16 5t12 2q9 0 13 -6t9 -20l11 -34q-31 -20 -74.5 -34.5t-94.5 -14.5q-41 0 -73.5 11t-55 34.5t-35 60t-12.5 88.5q0 54 14.5 114t46.5 109.5t81.5 82t120.5 32.5q72 0 114.5 -36.5t42.5 -103.5
q0 -35 -14 -69t-48.5 -61.5t-92.5 -44.5t-146 -17h-22zM205 261q101 0 152.5 31.5t51.5 84.5q0 29 -17 48t-55 19q-34 0 -60 -15.5t-45 -41t-31 -58.5t-17 -68h21zM363 589q-29 0 -41.5 11.5t-12.5 29.5q0 32 18 50.5t53 18.5q29 0 42 -12t13 -29q0 -32 -18 -50.5t-54 -18.5
z" />
    <glyph glyph-name="Eogonek" unicode="&#x118;" horiz-adv-x="506" 
d="M205 693h354q23 0 23 -18q0 -4 -1 -12.5t-11 -55.5h-284l-43 -213h230q23 0 23 -19q0 -4 -1 -12t-11 -56h-258l-45 -221h266q23 0 23 -18q0 -4 -1 -12.5t-11 -55.5q-11 -7 -27 -18.5t-30.5 -25t-24.5 -28t-10 -29.5q0 -20 26 -20q14 0 24.5 1.5t14.5 1.5q9 0 9 -8
q0 -2 -1 -9.5t-6 -35.5q-29 -13 -65 -13q-33 0 -54.5 14t-21.5 44q0 39 26.5 70.5t61.5 55.5h-284q-14 0 -19 5t-5 14q0 6 3.5 23.5t7.5 38.5z" />
    <glyph glyph-name="eogonek" unicode="&#x119;" horiz-adv-x="469" 
d="M302 -184q-31 0 -53.5 13t-22.5 45q0 36 23 65.5t55 53.5q-12 -2 -24 -3t-24 -1q-41 0 -73.5 11t-55 34.5t-35 60t-12.5 88.5q0 54 14.5 114t46.5 109.5t81.5 82t120.5 32.5q72 0 114.5 -36.5t42.5 -103.5q0 -35 -14 -69t-48.5 -61.5t-92.5 -44.5t-146 -17h-22v-18
q0 -46 19.5 -72.5t72.5 -26.5q30 0 57.5 7t42.5 12q9 3 15.5 5t12.5 2q9 0 13 -6.5t7 -19.5l8 -34q-17 -13 -38.5 -28.5t-41 -33.5t-32.5 -37.5t-13 -39.5t26 -20q14 0 24.5 1.5t14.5 1.5q9 0 9 -8q0 -2 -1 -9.5t-2 -12.5l-4 -23q-29 -13 -65 -13zM205 261q101 0 152.5 31.5
t51.5 84.5q0 29 -17 48t-55 19q-34 0 -60 -15.5t-45 -41t-31 -58.5t-17 -68h21z" />
    <glyph glyph-name="Ecaron" unicode="&#x11a;" horiz-adv-x="506" 
d="M205 693h354q23 0 23 -18q0 -4 -1 -11t-3 -17l-8 -40h-284l-43 -213h230q23 0 23 -19q0 -4 -1 -11t-3 -17l-8 -40h-258l-45 -221h266q23 0 23 -18q0 -4 -1 -11t-3 -17l-8 -40h-362q-14 0 -19 5t-5 14q0 6 3.5 23.5t7.5 38.5zM497 883h62q12 0 12 -11q0 -6 -11 -20
q-26 -29 -55 -58t-51 -49h-64q-11 0 -17 4t-12 16q-13 25 -28 57.5t-26 60.5h57q11 0 16.5 -4.5t10.5 -13.5l29 -63z" />
    <glyph glyph-name="ecaron" unicode="&#x11b;" horiz-adv-x="469" 
d="M177 189v-18q0 -46 19.5 -72.5t72.5 -26.5q32 0 56.5 7t38.5 12q10 3 16 5t12 2q9 0 13 -6t9 -20l11 -34q-31 -20 -74.5 -34.5t-94.5 -14.5q-41 0 -73.5 11t-55 34.5t-35 60t-12.5 88.5q0 54 14.5 114t46.5 109.5t81.5 82t120.5 32.5q72 0 114.5 -36.5t42.5 -103.5
q0 -35 -14 -69t-48.5 -61.5t-92.5 -44.5t-146 -17h-22zM205 261q101 0 152.5 31.5t51.5 84.5q0 29 -17 48t-55 19q-34 0 -60 -15.5t-45 -41t-31 -58.5t-17 -68h21zM437 721h58q13 0 13 -10q0 -5 -6 -14q-24 -34 -52.5 -64.5t-57.5 -59.5h-61q-11 0 -16.5 4t-11.5 17
q-14 28 -28 62.5t-25 64.5h57q11 0 15.5 -3.5t9.5 -14.5l29 -72z" />
    <glyph glyph-name="Gcircumflex" unicode="&#x11c;" horiz-adv-x="564" 
d="M585 590q-18 7 -49 15.5t-73 8.5q-68 0 -116 -35.5t-79 -91t-45.5 -122.5t-14.5 -130q0 -33 7 -61.5t23 -50.5t42.5 -34.5t66.5 -12.5q25 0 48 3.5t36 7.5l39 193h-77q-20 0 -20 18q0 3 0.5 7.5t2.5 15.5l8 43h164q14 0 18.5 -4.5t4.5 -12.5q0 -6 -3 -21l-5 -25l-55 -281
q-35 -14 -80.5 -22.5t-96.5 -8.5t-93 14.5t-72 44t-46.5 74t-16.5 105.5q0 85 23.5 170.5t69 153t112 110t152.5 42.5q31 0 57.5 -4.5t46 -12t30.5 -16.5t11 -19q0 -6 -3 -15.5t-6 -17.5zM411 745h-62q-12 0 -12 11q0 6 11 20q26 29 55 58t51 49h64q11 0 17 -4t12 -16
q13 -25 28 -57.5t26 -60.5h-57q-11 0 -16.5 4.5t-10.5 13.5l-29 63z" />
    <glyph glyph-name="gcircumflex" unicode="&#x11d;" horiz-adv-x="507" 
d="M427 437q-8 2 -23 3.5t-36 1.5q-44 0 -78 -19t-57 -53t-35 -81t-12 -103q0 -38 16.5 -64t54.5 -26q31 0 60.5 15t49.5 39zM517 431l-76 -411q-10 -52 -32 -89.5t-53.5 -61.5t-71.5 -35t-85 -11q-48 0 -81.5 10t-42.5 15q-22 11 -22 29q0 7 2.5 16.5t7.5 21.5l8 19
q28 -13 60.5 -20.5t67.5 -7.5q66 0 102.5 30.5t47.5 81.5l9 44q-31 -28 -62 -37.5t-62 -9.5q-35 0 -63 12.5t-47 35t-29 53t-10 66.5q0 70 18.5 131.5t55.5 107.5t91 72t126 26q60 0 105 -6.5t60 -10.5q14 -3 19 -8.5t5 -12.5q0 -8 -3 -24l-7 -30zM322 573h-61q-11 0 -11 10
q0 7 9 18q22 28 49.5 59t57.5 61h61q11 0 17.5 -3.5t11.5 -16.5l52 -128h-57q-10 0 -14.5 3.5t-8.5 12.5l-30 74z" />
    <glyph glyph-name="Gbreve" unicode="&#x11e;" horiz-adv-x="564" 
d="M585 590q-18 7 -49 15.5t-73 8.5q-68 0 -116 -35.5t-79 -91t-45.5 -122.5t-14.5 -130q0 -33 7 -61.5t23 -50.5t42.5 -34.5t66.5 -12.5q25 0 48 3.5t36 7.5l39 193h-77q-20 0 -20 18q0 3 0.5 7.5t2.5 15.5l8 43h164q14 0 18.5 -4.5t4.5 -12.5q0 -6 -3 -21l-5 -25l-55 -281
q-35 -14 -80.5 -22.5t-96.5 -8.5t-93 14.5t-72 44t-46.5 74t-16.5 105.5q0 85 23.5 170.5t69 153t112 110t152.5 42.5q31 0 57.5 -4.5t46 -12t30.5 -16.5t11 -19q0 -6 -3 -15.5t-6 -17.5zM419 856q0 -27 9.5 -38t32.5 -11q30 0 47 21.5t24 52.5h48q14 0 14 -11
q0 -30 -13 -53t-33 -39t-44.5 -24t-48.5 -8q-42 0 -72.5 21t-30.5 75q0 20 4 39h45q12 0 15 -6t3 -19z" />
    <glyph glyph-name="gbreve" unicode="&#x11f;" horiz-adv-x="507" 
d="M427 437q-8 2 -23 3.5t-36 1.5q-44 0 -78 -19t-57 -53t-35 -81t-12 -103q0 -38 16.5 -64t54.5 -26q31 0 60.5 15t49.5 39zM517 431l-76 -411q-10 -52 -32 -89.5t-53.5 -61.5t-71.5 -35t-85 -11q-48 0 -81.5 10t-42.5 15q-22 11 -22 29q0 7 2.5 16.5t7.5 21.5l8 19
q28 -13 60.5 -20.5t67.5 -7.5q66 0 102.5 30.5t47.5 81.5l9 44q-31 -28 -62 -37.5t-62 -9.5q-35 0 -63 12.5t-47 35t-29 53t-10 66.5q0 70 18.5 131.5t55.5 107.5t91 72t126 26q60 0 105 -6.5t60 -10.5q14 -3 19 -8.5t5 -12.5q0 -8 -3 -24l-7 -30zM348 687q0 -27 9.5 -38
t32.5 -11q32 0 48.5 21t22.5 52h48q14 0 14 -11q0 -26 -10.5 -48.5t-29 -39t-42.5 -26.5t-51 -10q-50 0 -79.5 22.5t-29.5 73.5q0 20 4 39h45q12 0 15 -5.5t3 -18.5z" />
    <glyph glyph-name="Gdotaccent" unicode="&#x120;" horiz-adv-x="564" 
d="M585 590q-18 7 -49 15.5t-73 8.5q-68 0 -116 -35.5t-79 -91t-45.5 -122.5t-14.5 -130q0 -33 7 -61.5t23 -50.5t42.5 -34.5t66.5 -12.5q25 0 48 3.5t36 7.5l39 193h-77q-20 0 -20 18q0 3 0.5 7.5t2.5 15.5l8 43h164q14 0 18.5 -4.5t4.5 -12.5q0 -6 -3 -21l-5 -25l-55 -281
q-35 -14 -80.5 -22.5t-96.5 -8.5t-93 14.5t-72 44t-46.5 74t-16.5 105.5q0 85 23.5 170.5t69 153t112 110t152.5 42.5q31 0 57.5 -4.5t46 -12t30.5 -16.5t11 -19q0 -6 -3 -15.5t-6 -17.5zM468 757q-29 0 -41.5 11.5t-12.5 29.5q0 32 18 50.5t53 18.5q29 0 42 -12t13 -29
q0 -32 -18 -50.5t-54 -18.5z" />
    <glyph glyph-name="gdotaccent" unicode="&#x121;" horiz-adv-x="507" 
d="M427 437q-8 2 -23 3.5t-36 1.5q-44 0 -78 -19t-57 -53t-35 -81t-12 -103q0 -38 16.5 -64t54.5 -26q31 0 60.5 15t49.5 39zM517 431l-76 -411q-10 -52 -32 -89.5t-53.5 -61.5t-71.5 -35t-85 -11q-48 0 -81.5 10t-42.5 15q-22 11 -22 29q0 7 2.5 16.5t7.5 21.5l8 19
q28 -13 60.5 -20.5t67.5 -7.5q66 0 102.5 30.5t47.5 81.5l9 44q-31 -28 -62 -37.5t-62 -9.5q-35 0 -63 12.5t-47 35t-29 53t-10 66.5q0 70 18.5 131.5t55.5 107.5t91 72t126 26q60 0 105 -6.5t60 -10.5q14 -3 19 -8.5t5 -12.5q0 -8 -3 -24l-7 -30zM368 589q-29 0 -41.5 11.5
t-12.5 29.5q0 32 18 50.5t53 18.5q29 0 42 -12t13 -29q0 -32 -18 -50.5t-54 -18.5z" />
    <glyph glyph-name="Gcommaaccent" unicode="&#x122;" horiz-adv-x="564" 
d="M585 590q-18 7 -49 15.5t-73 8.5q-68 0 -116 -35.5t-79 -91t-45.5 -122.5t-14.5 -130q0 -33 7 -61.5t23 -50.5t42.5 -34.5t66.5 -12.5q25 0 48 3.5t36 7.5l39 193h-77q-20 0 -20 18q0 3 0.5 7.5t2.5 15.5l8 43h164q14 0 18.5 -4.5t4.5 -12.5q0 -6 -3 -21l-5 -25l-55 -281
q-35 -14 -80.5 -22.5t-96.5 -8.5t-93 14.5t-72 44t-46.5 74t-16.5 105.5q0 85 23.5 170.5t69 153t112 110t152.5 42.5q31 0 57.5 -4.5t46 -12t30.5 -16.5t11 -19q0 -6 -3 -15.5t-6 -17.5zM263 -199q-13 0 -13 10q0 6 8 17l29 43q-11 3 -18.5 10.5t-7.5 21.5q0 24 16 39
t46 15q23 0 35 -11t12 -28q0 -14 -7.5 -29t-18.5 -31t-23.5 -30.5t-23.5 -26.5h-34z" />
    <glyph glyph-name="gcommaaccent" unicode="&#x123;" horiz-adv-x="507" 
d="M427 437q-8 2 -23 3.5t-36 1.5q-44 0 -78 -19t-57 -53t-35 -81t-12 -103q0 -38 16.5 -64t54.5 -26q31 0 60.5 15t49.5 39zM517 431l-76 -411q-10 -52 -32 -89.5t-53.5 -61.5t-71.5 -35t-85 -11q-48 0 -81.5 10t-42.5 15q-22 11 -22 29q0 7 2.5 16.5t7.5 21.5l8 19
q28 -13 60.5 -20.5t67.5 -7.5q66 0 102.5 30.5t47.5 81.5l9 44q-31 -28 -62 -37.5t-62 -9.5q-35 0 -63 12.5t-47 35t-29 53t-10 66.5q0 70 18.5 131.5t55.5 107.5t91 72t126 26q60 0 105 -6.5t60 -10.5q14 -3 19 -8.5t5 -12.5q0 -8 -3 -24l-7 -30zM427 724q13 0 13 -10
q0 -6 -8 -17l-29 -43q11 -3 18.5 -10.5t7.5 -21.5q0 -24 -16 -39t-46 -15q-23 0 -35 11t-12 28q0 13 7.5 28.5t18.5 31.5t23.5 30.5t23.5 26.5h34z" />
    <glyph glyph-name="Hcircumflex" unicode="&#x124;" horiz-adv-x="595" 
d="M521 0h-72q-14 0 -19 5t-5 14q0 6 3 25t8 41l45 226h-251l-62 -311h-72q-14 0 -19 5t-5 14q0 6 3 25t8 41l122 608h72q14 0 19 -5t5 -14q0 -6 -3 -24t-8 -40l-43 -211h252l59 294h72q14 0 19 -5t5 -14q0 -6 -3.5 -24t-7.5 -40zM379 745h-62q-12 0 -12 11q0 6 11 20
q26 29 55 58t51 49h64q11 0 17 -4t12 -16q13 -25 28 -57.5t26 -60.5h-57q-11 0 -16.5 4.5t-10.5 13.5l-29 63z" />
    <glyph glyph-name="hcircumflex" unicode="&#x125;" horiz-adv-x="528" 
d="M208 718h67q26 0 26 -20q0 -5 -2 -13t-4 -19l-40 -200q24 20 62 37.5t85 17.5q60 0 95.5 -32.5t35.5 -96.5q0 -17 -3.5 -43t-9.5 -58l-59 -291h-69q-16 0 -20.5 5.5t-4.5 13.5q0 5 2.5 17t4.5 25l48 239q6 30 8.5 47t2.5 34q0 58 -67 58q-42 0 -75 -19t-51 -38l-77 -382
h-69q-16 0 -20.5 5t-4.5 13q0 5 2.5 18.5t4.5 24.5zM288 759h-59q-11 0 -11 10q0 7 9 18q19 25 35.5 43t43.5 45h61q11 0 17.5 -3.5t11.5 -16.5l38 -96h-55q-10 0 -14.5 3.5t-8.5 12.5l-16 43z" />
    <glyph glyph-name="Hbar" unicode="&#x126;" horiz-adv-x="595" 
d="M637 579h31q22 0 22 -19q0 -4 -1.5 -12.5t-7.5 -36.5h-58l-102 -511h-72q-14 0 -19 5t-5 14q0 6 3 25t8 41l45 226h-251l-62 -311h-72q-14 0 -19 5t-5 14q0 6 3 25t8 41l85 426h-32q-21 0 -21 18q0 10 8 50h59l23 114h72q14 0 19 -5t5 -14q0 -6 -3 -24t-8 -40l-7 -31h252
l23 114h72q14 0 19 -5t5 -14q0 -6 -3.5 -24t-7.5 -40zM499 399l22 112h-251l-23 -112h252z" />
    <glyph glyph-name="hbar" unicode="&#x127;" horiz-adv-x="528" 
d="M208 718h67q26 0 26 -20q0 -5 -2.5 -16.5t-4.5 -22.5l-4 -18h85q22 0 22 -19q0 -10 -5 -28l-4 -15h-111l-22 -113q24 20 62 37.5t85 17.5q60 0 95.5 -32.5t35.5 -96.5q0 -17 -3.5 -43t-9.5 -58l-59 -291h-69q-16 0 -20.5 5.5t-4.5 13.5q0 5 2.5 17t4.5 25l48 239
q6 30 8.5 47t2.5 34q0 58 -67 58q-42 0 -75 -19t-51 -38l-77 -382h-69q-16 0 -20.5 5t-4.5 13q0 5 2.5 18.5t4.5 24.5l104 518h-28q-21 0 -21 18q0 4 1.5 12.5t3.5 16.5l3 15h53z" />
    <glyph glyph-name="Itilde" unicode="&#x128;" horiz-adv-x="246" 
d="M170 0h-72q-14 0 -19 5t-5 14q0 6 3 25t8 41l122 608h72q14 0 19 -5t5 -14q0 -6 -3.5 -24t-7.5 -40zM418 874q9 0 12 -3.5t3 -9.5q0 -24 -8 -44t-21.5 -34.5t-31.5 -22.5t-37 -8q-38 0 -74 31q-14 13 -25 20.5t-23 7.5q-15 0 -24 -15t-14 -42h-41q-9 0 -12 3.5t-3 9.5
q0 27 8.5 46t22 33.5t31.5 22t37 7.5q23 0 40 -9t30.5 -20.5t26 -21t23.5 -9.5q16 0 25.5 16.5t13.5 41.5h41z" />
    <glyph glyph-name="itilde" unicode="&#x129;" horiz-adv-x="231" 
d="M167 510h70q16 0 20.5 -5t4.5 -13q0 -6 -2.5 -18.5t-4.5 -24.5l-92 -449h-70q-15 0 -19.5 5.5t-4.5 13.5q0 5 2 16.5t5 25.5zM380 702q9 0 12 -3.5t3 -9.5q0 -24 -8 -44t-21.5 -34.5t-31.5 -22.5t-37 -8q-38 0 -74 31q-10 8 -21.5 18t-26.5 10q-19 0 -26.5 -19t-11.5 -38
h-41q-9 0 -12 3.5t-3 9.5q0 25 8.5 45t22 34.5t31.5 22t37 7.5q23 0 40 -9t34 -23q14 -11 24.5 -19.5t21.5 -8.5q18 0 26 17t13 41h41z" />
    <glyph glyph-name="Imacron" unicode="&#x12a;" horiz-adv-x="246" 
d="M170 0h-72q-14 0 -19 5t-5 14q0 6 3 25t8 41l122 608h72q14 0 19 -5t5 -14q0 -6 -3.5 -24t-7.5 -40zM161 848h222q11 0 15 -4.5t4 -11.5q0 -4 -1 -10.5t-2 -10.5l-7 -37h-222q-11 0 -15 4.5t-4 11.5q0 4 1 10.5t2 10.5z" />
    <glyph glyph-name="imacron" unicode="&#x12b;" horiz-adv-x="231" 
d="M167 510h70q16 0 20.5 -5t4.5 -13q0 -6 -2.5 -18.5t-4.5 -24.5l-92 -449h-70q-15 0 -19.5 5.5t-4.5 13.5q0 5 2 16.5t5 25.5zM121 679h222q11 0 15 -4.5t4 -11.5q0 -4 -1 -10.5t-2 -10.5l-7 -37h-222q-11 0 -15 4.5t-4 11.5q0 4 1 10.5t2 10.5z" />
    <glyph glyph-name="Ibreve" unicode="&#x12c;" horiz-adv-x="246" 
d="M170 0h-72q-14 0 -19 5t-5 14q0 6 3 25t8 41l122 608h72q14 0 19 -5t5 -14q0 -6 -3.5 -24t-7.5 -40zM235 856q0 -27 9.5 -38t32.5 -11q30 0 47 21.5t24 52.5h48q14 0 14 -11q0 -30 -13 -53t-33 -39t-44.5 -24t-48.5 -8q-42 0 -72.5 21t-30.5 75q0 20 4 39h45q12 0 15 -6
t3 -19z" />
    <glyph glyph-name="ibreve" unicode="&#x12d;" horiz-adv-x="231" 
d="M167 510h70q16 0 20.5 -5t4.5 -13q0 -6 -2.5 -18.5t-4.5 -24.5l-92 -449h-70q-15 0 -19.5 5.5t-4.5 13.5q0 5 2 16.5t5 25.5zM200 687q0 -27 9.5 -38t32.5 -11q32 0 48.5 21t22.5 52h48q14 0 14 -11q0 -26 -10.5 -48.5t-29 -39t-42.5 -26.5t-51 -10q-50 0 -79.5 22.5
t-29.5 73.5q0 20 4 39h45q12 0 15 -5.5t3 -18.5z" />
    <glyph glyph-name="Iogonek" unicode="&#x12e;" horiz-adv-x="246" 
d="M80 -184q-31 0 -53.5 13t-22.5 45q0 39 27 70t62 56q-19 1 -19 19q0 6 3 25t8 41l122 608h72q14 0 19 -5t5 -14q0 -6 -3 -23.5t-8 -39.5l-122 -611q-11 -7 -27 -18.5t-30.5 -25t-24.5 -28t-10 -29.5q0 -20 26 -20q14 0 24.5 1.5t14.5 1.5q9 0 9 -8q0 -2 -1 -9.5t-2 -12.5
l-4 -23q-29 -13 -65 -13z" />
    <glyph glyph-name="iogonek" unicode="&#x12f;" horiz-adv-x="231" 
d="M72 -184q-31 0 -53.5 13t-22.5 45q0 39 26.5 70.5t62.5 55.5q-11 2 -14 6.5t-3 11.5q0 5 2 17t5 26l91 449h69q16 0 20.5 -5t4.5 -13q0 -5 -2 -17t-5 -26l-91 -449q-11 -7 -27 -18.5t-30.5 -25t-24.5 -28t-10 -29.5q0 -20 26 -20q14 0 24.5 1.5t14.5 1.5q9 0 9 -8
q0 -2 -1 -9.5t-2 -12.5l-4 -23q-29 -13 -65 -13zM232 589q-29 0 -41.5 11.5t-12.5 29.5q0 32 18 50.5t53 18.5q29 0 42 -12t13 -29q0 -32 -18 -50.5t-54 -18.5z" />
    <glyph glyph-name="Idotaccent" unicode="&#x130;" horiz-adv-x="246" 
d="M170 0h-72q-14 0 -19 5t-5 14q0 6 3 25t8 41l122 608h72q14 0 19 -5t5 -14q0 -6 -3.5 -24t-7.5 -40zM266 757q-29 0 -41.5 11.5t-12.5 29.5q0 32 18 50.5t53 18.5q29 0 42 -12t13 -29q0 -32 -18 -50.5t-54 -18.5z" />
    <glyph glyph-name="dotlessi" unicode="&#x131;" horiz-adv-x="231" 
d="M167 510h70q16 0 20.5 -5t4.5 -13q0 -6 -2.5 -18.5t-4.5 -24.5l-92 -449h-70q-15 0 -19.5 5.5t-4.5 13.5q0 5 2 16.5t5 25.5z" />
    <glyph glyph-name="IJ" unicode="&#x132;" horiz-adv-x="597" 
d="M170 0h-72q-14 0 -19 5t-5 14q0 6 3 25t8 41l122 608h72q14 0 19 -5t5 -14q0 -6 -3.5 -24t-7.5 -40zM566 693h72q14 0 19 -5t5 -14q0 -3 -1.5 -12l-3.5 -21l-80 -386q-12 -56 -26.5 -104t-38 -83.5t-59.5 -56t-90 -20.5q-24 0 -44.5 4.5t-35 11.5t-23 15t-8.5 15
q0 8 2 15t7 21l9 26q12 -6 35 -12.5t49 -6.5q27 0 46 10t32 28.5t22 43.5t15 55z" />
    <glyph glyph-name="ij" unicode="&#x133;" horiz-adv-x="457" 
d="M167 510h70q16 0 20.5 -5t4.5 -13q0 -6 -2.5 -18.5t-4.5 -24.5l-92 -449h-70q-15 0 -19.5 5.5t-4.5 13.5q0 5 2 16.5t5 25.5zM233 589q-29 0 -41.5 11.5t-12.5 29.5q0 32 18 50.5t53 18.5q29 0 42 -12t13 -29q0 -32 -18 -50.5t-54 -18.5zM390 509h70q16 0 20.5 -5
t4.5 -13q0 -6 -2.5 -18.5t-4.5 -24.5l-80 -393q-11 -53 -28 -95.5t-40.5 -73t-53.5 -47t-67 -16.5q-19 0 -36 7.5t-17 26.5q0 13 4 28l5 18q5 -1 9 -1h9q25 0 43 9t32 29.5t24.5 54t20.5 83.5zM456 589q-29 0 -41.5 11.5t-12.5 29.5q0 32 18 50.5t53 18.5q29 0 42 -12
t13 -29q0 -32 -18 -50.5t-54 -18.5z" />
    <glyph glyph-name="Jcircumflex" unicode="&#x134;" horiz-adv-x="360" 
d="M329 693h72q14 0 19 -5t5 -14q0 -3 -1.5 -12l-3.5 -21l-80 -386q-12 -56 -26.5 -104t-38 -83.5t-59.5 -56t-90 -20.5q-24 0 -44.5 4.5t-35 11.5t-23 15t-8.5 15q0 8 2 15t7 21l9 26q12 -6 35 -12.5t49 -6.5q27 0 46 10t32 28.5t22 43.5t15 55zM326 745h-62q-12 0 -12 11
q0 6 11 20q26 29 55 58t51 49h64q11 0 17 -4t12 -16q13 -25 28 -57.5t26 -60.5h-57q-11 0 -16.5 4.5t-10.5 13.5l-29 63z" />
    <glyph glyph-name="jcircumflex" unicode="&#x135;" horiz-adv-x="234" 
d="M167 509h70q16 0 20.5 -5t4.5 -13q0 -6 -2.5 -18.5t-4.5 -24.5l-80 -393q-11 -53 -28 -95.5t-40.5 -73t-53.5 -47t-67 -16.5q-19 0 -36 7.5t-17 26.5q0 13 4 28l5 18q5 -1 9 -1h9q25 0 43 9t32 29.5t24.5 54t20.5 83.5zM169 573h-61q-11 0 -11 10q0 7 9 18q22 28 49.5 59
t57.5 61h61q11 0 17.5 -3.5t11.5 -16.5l52 -128h-57q-10 0 -14.5 3.5t-8.5 12.5l-30 74z" />
    <glyph glyph-name="Kcommaaccent" unicode="&#x136;" horiz-adv-x="505" 
d="M250 410q63 50 131.5 122.5t130.5 160.5h82q16 0 16 -14q0 -10 -13 -27q-23 -32 -52 -68t-63.5 -73.5t-73.5 -74.5t-81 -70q28 -35 53 -78.5t46.5 -91.5t39.5 -98t32 -98h-78q-17 0 -24.5 9t-11.5 21q-11 34 -25 72.5t-32 78.5t-40.5 80t-51.5 78l-67 -339h-72
q-14 0 -19 5t-5 13q0 7 3 26t8 41l122 608h72q14 0 19 -5t5 -14q0 -6 -3.5 -24t-7.5 -40zM216 -199q-13 0 -13 10q0 6 8 17l29 43q-11 3 -18.5 10.5t-7.5 21.5q0 24 16 39t46 15q23 0 35 -11t12 -28q0 -14 -7.5 -29t-18.5 -31t-23.5 -30.5t-23.5 -26.5h-34z" />
    <glyph glyph-name="kcommaaccent" unicode="&#x137;" horiz-adv-x="486" 
d="M209 718h68q26 0 26 -20q0 -5 -3 -18t-5 -24l-71 -348q75 52 134 107.5t91 93.5h82q8 0 11.5 -3.5t3.5 -8.5q0 -7 -5 -14t-10 -13q-7 -9 -27.5 -30.5t-51 -49.5t-68.5 -58.5t-80 -56.5q67 -70 111 -143.5t70 -131.5h-82q-15 0 -23.5 5t-14.5 18q-25 51 -64 112.5
t-88 111.5l-50 -247h-69q-25 0 -25 19q0 5 2 15.5t4 21.5zM213 -199q-13 0 -13 10q0 6 8 17l29 43q-11 3 -18.5 10.5t-7.5 21.5q0 24 16 39t46 15q23 0 35 -11t12 -28q0 -14 -7.5 -29t-18.5 -31t-23.5 -30.5t-23.5 -26.5h-34z" />
    <glyph glyph-name="kgreenlandic" unicode="&#x138;" horiz-adv-x="486" 
d="M167 510h68q26 0 26 -20q0 -5 -3 -18t-5 -24l-29 -140q37 26 71 53.5t63 54.5t52 51t39 43h82q8 0 11.5 -3.5t3.5 -8.5q0 -7 -5 -14t-10 -13q-7 -9 -27.5 -31t-51 -50t-68.5 -58.5t-80 -56.5q67 -70 111 -143.5t70 -131.5h-82q-15 0 -23.5 5t-14.5 18q-25 51 -64 112.5
t-88 111.5l-50 -247h-69q-25 0 -25 19q0 5 2 15.5t4 21.5z" />
    <glyph glyph-name="Lacute" unicode="&#x139;" horiz-adv-x="445" 
d="M186 88h235q23 0 23 -18q0 -4 -1 -12.5t-3 -15.5l-8 -42h-336q-14 0 -19 5t-5 14q0 6 3 23.5t8 38.5l122 612h73q14 0 19 -5t5 -14q0 -6 -3.5 -23.5t-8.5 -38.5zM281 745h-51q-12 0 -12 8q0 5 3 11q17 25 39.5 57t45.5 62h69q5 0 9.5 -3t4.5 -9q0 -5 -2.5 -11t-10.5 -14z
" />
    <glyph glyph-name="lacute" unicode="&#x13a;" horiz-adv-x="286" 
d="M184 133q-2 -8 -3 -16.5t-1 -16.5q0 -14 8.5 -18.5t17.5 -4.5q15 0 25.5 2t18.5 2q9 0 12.5 -6t5.5 -17l6 -39q-8 -5 -37.5 -14t-66.5 -9q-41 0 -67 19.5t-26 60.5q0 22 6 51l119 591h70q24 0 24 -19q0 -5 -2 -13t-4 -20zM286 759h-47q-12 0 -12 8q0 5 3 11
q14 22 31 46.5t36 50.5h65q8 0 11 -4t3 -9t-2.5 -10.5t-10.5 -13.5z" />
    <glyph glyph-name="Lcommaaccent" unicode="&#x13b;" horiz-adv-x="445" 
d="M186 88h235q23 0 23 -18q0 -4 -1 -12.5t-3 -15.5l-8 -42h-336q-14 0 -19 5t-5 14q0 6 3 23.5t8 38.5l122 612h73q14 0 19 -5t5 -14q0 -6 -3.5 -23.5t-8.5 -38.5zM183 -199q-13 0 -13 10q0 6 8 17l29 43q-11 3 -18.5 10.5t-7.5 21.5q0 24 16 39t46 15q23 0 35 -11t12 -28
q0 -14 -7.5 -29t-18.5 -31t-23.5 -30.5t-23.5 -26.5h-34z" />
    <glyph glyph-name="lcommaaccent" unicode="&#x13c;" horiz-adv-x="286" 
d="M184 133q-2 -8 -3 -16.5t-1 -16.5q0 -14 8.5 -18.5t17.5 -4.5q15 0 25.5 2t18.5 2q9 0 12.5 -6t5.5 -17l6 -39q-8 -5 -37.5 -14t-66.5 -9q-41 0 -67 19.5t-26 60.5q0 22 6 51l119 591h70q24 0 24 -19q0 -5 -2 -13t-4 -20zM100 -199q-13 0 -13 10q0 6 8 17l29 43
q-11 3 -18.5 10.5t-7.5 21.5q0 24 16 39t46 15q23 0 35 -11t12 -28q0 -14 -7.5 -29t-18.5 -31t-23.5 -30.5t-23.5 -26.5h-34z" />
    <glyph glyph-name="Lcaron" unicode="&#x13d;" horiz-adv-x="445" 
d="M186 88h235q23 0 23 -18q0 -4 -1 -12.5t-3 -15.5l-8 -42h-336q-14 0 -19 5t-5 14q0 6 3 23.5t8 38.5l122 612h73q14 0 19 -5t5 -14q0 -6 -3.5 -23.5t-8.5 -38.5zM451 718q19 0 19 -14q0 -5 -5 -22t-12 -38.5t-16 -45.5t-16 -43h-42q-16 0 -16 14q0 6 2 22t5.5 37
t7.5 44.5t8 45.5h65z" />
    <glyph glyph-name="lcaron" unicode="&#x13e;" horiz-adv-x="338" 
d="M184 133q-2 -8 -3 -16.5t-1 -16.5q0 -14 8.5 -18.5t17.5 -4.5q15 0 25.5 2t18.5 2q9 0 12.5 -6t5.5 -17l6 -39q-8 -5 -37.5 -14t-66.5 -9q-41 0 -67 19.5t-26 60.5q0 22 6 51l119 591h70q24 0 24 -19q0 -5 -2 -13t-4 -20zM421 718q19 0 19 -14q0 -5 -5 -22t-12 -38.5
t-16 -45.5t-16 -43h-42q-16 0 -16 14q0 6 2 22t5.5 37t7.5 44.5t8 45.5h65z" />
    <glyph glyph-name="Ldot" unicode="&#x13f;" horiz-adv-x="445" 
d="M186 88h235q23 0 23 -18q0 -4 -1 -12.5t-3 -15.5l-8 -42h-336q-14 0 -19 5t-5 14q0 6 3 23.5t8 38.5l122 612h73q14 0 19 -5t5 -14q0 -6 -3.5 -23.5t-8.5 -38.5zM402 304q-29 0 -41.5 11.5t-12.5 29.5q0 32 18 50.5t53 18.5q29 0 42 -12t13 -29q0 -32 -18 -50.5
t-54 -18.5z" />
    <glyph glyph-name="ldot" unicode="&#x140;" horiz-adv-x="343" 
d="M184 133q-2 -8 -3 -16.5t-1 -16.5q0 -14 8.5 -18.5t17.5 -4.5q15 0 25.5 2t18.5 2q9 0 12.5 -6t5.5 -17l6 -39q-8 -5 -37.5 -14t-66.5 -9q-41 0 -67 19.5t-26 60.5q0 22 6 51l119 591h70q24 0 24 -19q0 -5 -2 -13t-4 -20zM339 299q-29 0 -41.5 11.5t-12.5 29.5
q0 32 18 50.5t53 18.5q29 0 42 -12t13 -29q0 -32 -18 -50.5t-54 -18.5z" />
    <glyph glyph-name="Lslash" unicode="&#x141;" horiz-adv-x="445" 
d="M248 403l106 44q11 5 18.5 8t12.5 3q11 0 11 -10q0 -4 -2 -11.5t-5 -18.5l-11 -39l-147 -62l-45 -229h235q23 0 23 -18q0 -4 -1 -12.5t-11 -57.5h-336q-14 0 -19 5t-5 14q0 6 3.5 24.5t10.5 52.5l35 175l-48 -20q-11 -5 -18 -8t-13 -3q-11 0 -11 10q0 4 2 11.5t5 18.5
l11 39l89 37l67 337h73q13 0 18.5 -5t5.5 -14q0 -6 -3.5 -22.5t-8.5 -39.5z" />
    <glyph glyph-name="lslash" unicode="&#x142;" horiz-adv-x="286" 
d="M242 423l41 17q23 10 31 10q10 0 10 -10q0 -9 -13 -58l-84 -34l-43 -215q-2 -8 -3 -16.5t-1 -16.5q0 -12 7 -17.5t19 -5.5q15 0 25.5 2t18.5 2q9 0 13 -6t8 -37l3 -19q-8 -5 -37.5 -14t-66.5 -9q-43 0 -68 20.5t-25 59.5q0 22 6 51l36 179l-38 -15q-23 -10 -31 -10
q-10 0 -10 10q0 9 13 58l81 32l68 337h70q24 0 24 -19q0 -5 -2 -14.5t-4 -18.5z" />
    <glyph glyph-name="Nacute" unicode="&#x143;" horiz-adv-x="597" 
d="M525 0h-73q-24 0 -29 23q-8 30 -19.5 70.5t-25 86.5t-28.5 94.5t-29.5 95t-28 87.5t-24.5 72l-106 -529h-67q-23 0 -23 19q0 6 3 23.5t8 38.5l122 612h67q17 0 23.5 -4.5t11.5 -18.5q11 -30 30.5 -89t42 -129.5t45 -143.5t39.5 -133l104 518h66q14 0 19 -5t5 -14
q0 -6 -3.5 -23.5t-7.5 -38.5zM459 745h-51q-12 0 -12 8q0 5 3 11q17 25 39.5 57t45.5 62h69q5 0 9.5 -3t4.5 -9q0 -5 -2.5 -11t-10.5 -14z" />
    <glyph glyph-name="nacute" unicode="&#x144;" horiz-adv-x="530" 
d="M167 510h57q20 0 21 -12q1 -5 1 -9v-10v-21q24 23 65.5 43t91.5 20q58 0 94.5 -31.5t36.5 -97.5q0 -18 -3.5 -43.5t-9.5 -57.5l-59 -291h-68q-16 0 -21 5.5t-5 13.5q0 5 2.5 17t4.5 25l48 239q6 30 8.5 47t2.5 34q0 58 -69 58q-21 0 -39.5 -5.5t-34.5 -14t-28.5 -18.5
t-21.5 -19l-77 -382h-70q-15 0 -19.5 5.5t-4.5 13.5q0 5 2.5 18t4.5 24zM383 575h-46q-12 0 -12 8q0 5 3 11q16 24 37.5 54.5t41.5 59.5h67q8 0 11 -4t3 -9t-2.5 -10.5t-10.5 -13.5z" />
    <glyph glyph-name="Ncommaaccent" unicode="&#x145;" horiz-adv-x="597" 
d="M525 0h-73q-24 0 -29 23q-8 30 -19.5 70.5t-25 86.5t-28.5 94.5t-29.5 95t-28 87.5t-24.5 72l-106 -529h-67q-23 0 -23 19q0 6 3 23.5t8 38.5l122 612h67q17 0 23.5 -4.5t11.5 -18.5q11 -30 30.5 -89t42 -129.5t45 -143.5t39.5 -133l104 518h66q14 0 19 -5t5 -14
q0 -6 -3.5 -23.5t-7.5 -38.5zM242 -199q-13 0 -13 10q0 6 8 17l29 43q-11 3 -18.5 10.5t-7.5 21.5q0 24 16 39t46 15q23 0 35 -11t12 -28q0 -14 -7.5 -29t-18.5 -31t-23.5 -30.5t-23.5 -26.5h-34z" />
    <glyph glyph-name="ncommaaccent" unicode="&#x146;" horiz-adv-x="530" 
d="M167 510h57q20 0 21 -12q1 -5 1 -9v-10v-21q24 23 65.5 43t91.5 20q58 0 94.5 -31.5t36.5 -97.5q0 -18 -3.5 -43.5t-9.5 -57.5l-59 -291h-68q-16 0 -21 5.5t-5 13.5q0 5 2.5 17t4.5 25l48 239q6 30 8.5 47t2.5 34q0 58 -69 58q-21 0 -39.5 -5.5t-34.5 -14t-28.5 -18.5
t-21.5 -19l-77 -382h-70q-15 0 -19.5 5.5t-4.5 13.5q0 5 2.5 18t4.5 24zM212 -199q-13 0 -13 10q0 6 8 17l29 43q-11 3 -18.5 10.5t-7.5 21.5q0 24 16 39t46 15q23 0 35 -11t12 -28q0 -14 -7.5 -29t-18.5 -31t-23.5 -30.5t-23.5 -26.5h-34z" />
    <glyph glyph-name="Ncaron" unicode="&#x147;" horiz-adv-x="597" 
d="M525 0h-73q-24 0 -29 23q-8 30 -19.5 70.5t-25 86.5t-28.5 94.5t-29.5 95t-28 87.5t-24.5 72l-106 -529h-67q-23 0 -23 19q0 6 3 23.5t8 38.5l122 612h67q17 0 23.5 -4.5t11.5 -18.5q11 -30 30.5 -89t42 -129.5t45 -143.5t39.5 -133l104 518h66q14 0 19 -5t5 -14
q0 -6 -3.5 -23.5t-7.5 -38.5zM522 883h62q12 0 12 -11q0 -6 -11 -20q-26 -29 -55 -58t-51 -49h-64q-11 0 -17 4t-12 16q-13 25 -28 57.5t-26 60.5h57q11 0 16.5 -4.5t10.5 -13.5l29 -63z" />
    <glyph glyph-name="ncaron" unicode="&#x148;" horiz-adv-x="530" 
d="M167 510h57q20 0 21 -12q1 -5 1 -9v-10v-21q24 23 65.5 43t91.5 20q58 0 94.5 -31.5t36.5 -97.5q0 -18 -3.5 -43.5t-9.5 -57.5l-59 -291h-68q-16 0 -21 5.5t-5 13.5q0 5 2.5 17t4.5 25l48 239q6 30 8.5 47t2.5 34q0 58 -69 58q-21 0 -39.5 -5.5t-34.5 -14t-28.5 -18.5
t-21.5 -19l-77 -382h-70q-15 0 -19.5 5.5t-4.5 13.5q0 5 2.5 18t4.5 24zM447 721h58q13 0 13 -10q0 -5 -6 -14q-24 -34 -52.5 -64.5t-57.5 -59.5h-61q-11 0 -16.5 4t-11.5 17q-14 28 -28 62.5t-25 64.5h57q11 0 15.5 -3.5t9.5 -14.5l29 -72z" />
    <glyph glyph-name="napostrophe" unicode="&#x149;" horiz-adv-x="587" 
d="M224 510h57q20 0 21 -12q1 -5 1 -9v-10v-21q24 23 65.5 43t91.5 20q58 0 94.5 -31.5t36.5 -97.5q0 -18 -3.5 -43.5t-9.5 -57.5l-59 -291h-68q-16 0 -21 5.5t-5 13.5q0 5 2.5 17t4.5 25l48 239q6 30 8.5 47t2.5 34q0 58 -69 58q-21 0 -39.5 -5.5t-34.5 -14t-28.5 -18.5
t-21.5 -19l-77 -382h-70q-15 0 -19.5 5.5t-4.5 13.5q0 5 2.5 18t4.5 24zM145 541h-42q-12 0 -12 10q0 6 10 19l37 57q-30 8 -30 40q0 31 17.5 49t51.5 18q25 0 37.5 -12.5t12.5 -32.5q0 -24 -13 -46.5t-30 -46.5z" />
    <glyph glyph-name="Eng" unicode="&#x14a;" horiz-adv-x="597" 
d="M542 92q-12 -63 -28.5 -112.5t-39.5 -84.5t-54 -53.5t-71 -18.5q-19 0 -36 7.5t-17 26.5q0 13 4 28l5 18q5 -1 9 -1h9q24 0 41.5 8.5t29.5 24t19 36t12 44.5q-12 47 -32 116t-42.5 142t-44.5 141.5t-38 114.5l-106 -529h-67q-23 0 -23 19q0 6 3 23.5t8 38.5l122 612h67
q17 0 23.5 -4.5t11.5 -18.5q11 -30 30.5 -89t42 -129.5t45 -143.5t39.5 -133l104 518h66q14 0 19 -5t5 -14q0 -6 -3 -23.5t-8 -38.5z" />
    <glyph glyph-name="eng" unicode="&#x14b;" horiz-adv-x="530" 
d="M470 55q-11 -53 -28 -95.5t-40.5 -73t-53.5 -47t-67 -16.5q-19 0 -36 7.5t-17 26.5q0 13 4 28l5 18q5 -1 9 -1h9q25 0 43 9t31.5 29.5t24.5 54t21 83.5l45 222q6 30 8.5 47t2.5 34q0 58 -69 58q-20 0 -38 -5.5t-33.5 -14t-28 -18.5t-21.5 -19l-77 -382h-70
q-15 0 -19.5 5.5t-4.5 13.5q0 5 2.5 18t4.5 24l90 449h57q20 0 21 -12q1 -5 1 -9v-10v-21q24 23 65 43t89 20q58 0 94.5 -31.5t36.5 -97.5q0 -18 -3 -43.5t-10 -57.5z" />
    <glyph glyph-name="Omacron" unicode="&#x14c;" horiz-adv-x="610" 
d="M211 233q0 -32 7 -60t21 -49t34.5 -33t48.5 -12q53 0 93.5 35t68 90.5t41.5 124t14 134.5q0 31 -7 58.5t-20.5 47.5t-34 32t-48.5 12q-52 0 -92.5 -33t-68.5 -86.5t-42.5 -121.5t-14.5 -139zM316 -11q-97 0 -152.5 64t-55.5 185q0 97 24 182t67.5 148t103.5 99t132 36
q46 0 84.5 -16.5t65.5 -48t42 -77t15 -104.5q0 -96 -23.5 -181t-66.5 -149t-103 -101t-133 -37zM345 848h222q11 0 15 -4.5t4 -11.5q0 -4 -1 -10.5t-2 -10.5l-7 -37h-222q-11 0 -15 4.5t-4 11.5q0 4 1 10.5t2 10.5z" />
    <glyph glyph-name="omacron" unicode="&#x14d;" horiz-adv-x="518" 
d="M85 180q0 67 18 128.5t52 108.5t83.5 75.5t112.5 28.5q84 0 133 -48.5t49 -142.5q0 -66 -17 -128t-50.5 -109t-83 -75.5t-113.5 -28.5q-85 0 -134.5 47.5t-49.5 143.5zM183 182q0 -48 21 -79t67 -31q40 0 71 22t51.5 58.5t31 82.5t10.5 94q0 49 -20.5 79.5t-65.5 30.5
q-41 0 -72 -22.5t-52 -58.5t-31.5 -82t-10.5 -94zM274 679h222q11 0 15 -4.5t4 -11.5q0 -4 -1 -10.5t-2 -10.5l-7 -37h-222q-11 0 -15 4.5t-4 11.5q0 4 1 10.5t2 10.5z" />
    <glyph glyph-name="Obreve" unicode="&#x14e;" horiz-adv-x="610" 
d="M211 233q0 -32 7 -60t21 -49t34.5 -33t48.5 -12q53 0 93.5 35t68 90.5t41.5 124t14 134.5q0 31 -7 58.5t-20.5 47.5t-34 32t-48.5 12q-52 0 -92.5 -33t-68.5 -86.5t-42.5 -121.5t-14.5 -139zM316 -11q-97 0 -152.5 64t-55.5 185q0 97 24 182t67.5 148t103.5 99t132 36
q46 0 84.5 -16.5t65.5 -48t42 -77t15 -104.5q0 -96 -23.5 -181t-66.5 -149t-103 -101t-133 -37zM427 856q0 -27 9.5 -38t32.5 -11q30 0 47 21.5t24 52.5h48q14 0 14 -11q0 -30 -13 -53t-33 -39t-44.5 -24t-48.5 -8q-42 0 -72.5 21t-30.5 75q0 20 4 39h45q12 0 15 -6t3 -19z
" />
    <glyph glyph-name="obreve" unicode="&#x14f;" horiz-adv-x="518" 
d="M85 180q0 67 18 128.5t52 108.5t83.5 75.5t112.5 28.5q84 0 133 -48.5t49 -142.5q0 -66 -17 -128t-50.5 -109t-83 -75.5t-113.5 -28.5q-85 0 -134.5 47.5t-49.5 143.5zM183 182q0 -48 21 -79t67 -31q40 0 71 22t51.5 58.5t31 82.5t10.5 94q0 49 -20.5 79.5t-65.5 30.5
q-41 0 -72 -22.5t-52 -58.5t-31.5 -82t-10.5 -94zM346 687q0 -27 9.5 -38t32.5 -11q32 0 48.5 21t22.5 52h48q14 0 14 -11q0 -26 -10.5 -48.5t-29 -39t-42.5 -26.5t-51 -10q-50 0 -79.5 22.5t-29.5 73.5q0 20 4 39h45q12 0 15 -5.5t3 -18.5z" />
    <glyph glyph-name="Ohungarumlaut" unicode="&#x150;" horiz-adv-x="610" 
d="M211 233q0 -32 7 -60t21 -49t34.5 -33t48.5 -12q53 0 93.5 35t68 90.5t41.5 124t14 134.5q0 31 -7 58.5t-20.5 47.5t-34 32t-48.5 12q-52 0 -92.5 -33t-68.5 -86.5t-42.5 -121.5t-14.5 -139zM316 -11q-97 0 -152.5 64t-55.5 185q0 97 24 182t67.5 148t103.5 99t132 36
q46 0 84.5 -16.5t65.5 -48t42 -77t15 -104.5q0 -96 -23.5 -181t-66.5 -149t-103 -101t-133 -37zM549 745h-49q-12 0 -12 8q0 5 3 11q14 22 34 50.5t39 54.5h67q8 0 11 -4t3 -9t-2.5 -10.5t-10.5 -13.5zM392 745h-49q-12 0 -12 8q0 5 3 11q14 22 34 50.5t39 54.5h67
q8 0 11 -4t3 -9t-2.5 -10.5t-10.5 -13.5z" />
    <glyph glyph-name="ohungarumlaut" unicode="&#x151;" horiz-adv-x="518" 
d="M85 180q0 67 18 128.5t52 108.5t83.5 75.5t112.5 28.5q84 0 133 -48.5t49 -142.5q0 -66 -17 -128t-50.5 -109t-83 -75.5t-113.5 -28.5q-85 0 -134.5 47.5t-49.5 143.5zM183 182q0 -48 21 -79t67 -31q40 0 71 22t51.5 58.5t31 82.5t10.5 94q0 49 -20.5 79.5t-65.5 30.5
q-41 0 -72 -22.5t-52 -58.5t-31.5 -82t-10.5 -94zM470 575h-46q-12 0 -12 8q0 5 3 11q16 24 37.5 54.5t41.5 59.5h60q8 0 11 -4t3 -9q0 -12 -15 -28zM316 575h-46q-12 0 -12 8q0 5 3 11q16 24 37.5 54.5t41.5 59.5h60q8 0 11 -4t3 -9q0 -12 -15 -28z" />
    <glyph glyph-name="OE" unicode="&#x152;" horiz-adv-x="824" 
d="M463 704q46 0 85 -11h329q23 0 23 -18q0 -4 -1 -11.5t-3 -16.5l-8 -40h-266l-42 -213h212q22 0 22 -19q0 -4 -1 -12t-3 -16l-8 -40h-240l-44 -221h247q23 0 23 -18q0 -4 -1 -12.5t-3 -15.5l-8 -40h-360q-22 -5 -47 -8t-54 -3q-102 0 -154.5 58.5t-52.5 172.5
q0 83 23.5 169t68.5 156t111 114.5t152 44.5zM334 79q23 0 44.5 1.5t42.5 6.5l104 520q-12 3 -26.5 5t-31.5 2q-64 0 -111.5 -36.5t-79 -93.5t-47.5 -125.5t-16 -131.5q0 -69 27.5 -108.5t93.5 -39.5z" />
    <glyph glyph-name="oe" unicode="&#x153;" horiz-adv-x="803" 
d="M562 261q93 0 137 31t44 85q0 30 -18 48.5t-52 18.5q-36 0 -62 -17t-44 -43t-29.5 -59t-17.5 -64h42zM268 71q40 0 70 23t50.5 59.5t31 83.5t10.5 95q0 50 -20.5 78.5t-64.5 28.5q-39 0 -69.5 -23t-51 -60t-31 -84t-10.5 -95q0 -50 20.5 -78t64.5 -28zM757 35
q-31 -19 -72.5 -33t-90.5 -14q-54 0 -92 21t-57 69q-33 -42 -78.5 -66t-102.5 -24q-84 0 -131.5 47.5t-47.5 142.5q0 67 17.5 129t51 109.5t83 76t112.5 28.5q114 0 153 -90q32 40 76.5 65t105.5 25q68 0 109 -35.5t41 -101.5q0 -34 -13 -69t-44.5 -63t-85.5 -45.5
t-135 -17.5h-41q0 -57 20.5 -87.5t75.5 -30.5q21 0 39.5 3.5t33.5 8t26 8.5t18 4q10 0 14 -6.5t7 -18.5z" />
    <glyph glyph-name="Racute" unicode="&#x154;" horiz-adv-x="530" 
d="M165 0h-70q-23 0 -23 19q0 3 1.5 12.5t4 21.5l5 24t4.5 20l117 585q35 8 76 13t85 5q112 0 165 -44.5t53 -131.5q0 -74 -41 -131.5t-113 -86.5q14 -31 27 -72.5t23.5 -85t18 -83t10.5 -65.5h-77q-14 0 -20 6.5t-8 20.5q-3 25 -9.5 59.5t-15 70.5t-19 69.5t-20.5 58.5
q-8 -1 -17 -1.5t-18 -0.5h-82zM238 362h92q28 0 55 10t48.5 30t34.5 49.5t13 67.5q0 54 -29 77.5t-92 23.5q-21 0 -39 -1.5t-32 -3.5zM400 745h-51q-12 0 -12 8q0 5 3 11q17 25 39.5 57t45.5 62h69q5 0 9.5 -3t4.5 -9q0 -5 -2.5 -11t-10.5 -14z" />
    <glyph glyph-name="racute" unicode="&#x155;" horiz-adv-x="352" 
d="M410 419q-9 2 -17.5 2h-14.5q-36 0 -75 -15.5t-68 -44.5l-72 -361h-70q-15 0 -19.5 5.5t-4.5 13.5q0 5 2.5 18t4.5 24l90 449h60q9 0 15 -3.5t6 -14.5q0 -5 -0.5 -11.5t-1.5 -13.5l-2 -25q27 29 66.5 49.5t84.5 20.5q31 0 31 -22q0 -6 -2 -15l-4 -18zM331 575h-46
q-12 0 -12 8q0 5 3 11q16 24 37.5 54.5t41.5 59.5h67q8 0 11 -4t3 -9t-2.5 -10.5t-10.5 -13.5z" />
    <glyph glyph-name="Rcommaaccent" unicode="&#x156;" horiz-adv-x="530" 
d="M165 0h-70q-23 0 -23 19q0 3 1.5 12.5t4 21.5l5 24t4.5 20l117 585q35 8 76 13t85 5q112 0 165 -44.5t53 -131.5q0 -74 -41 -131.5t-113 -86.5q14 -31 27 -72.5t23.5 -85t18 -83t10.5 -65.5h-77q-14 0 -20 6.5t-8 20.5q-3 25 -9.5 59.5t-15 70.5t-19 69.5t-20.5 58.5
q-8 -1 -17 -1.5t-18 -0.5h-82zM238 362h92q28 0 55 10t48.5 30t34.5 49.5t13 67.5q0 54 -29 77.5t-92 23.5q-21 0 -39 -1.5t-32 -3.5zM226 -199q-13 0 -13 10q0 6 8 17l29 43q-11 3 -18.5 10.5t-7.5 21.5q0 24 16 39t46 15q23 0 35 -11t12 -28q0 -14 -7.5 -29t-18.5 -31
t-23.5 -30.5t-23.5 -26.5h-34z" />
    <glyph glyph-name="rcommaaccent" unicode="&#x157;" horiz-adv-x="352" 
d="M410 419q-9 2 -17.5 2h-14.5q-36 0 -75 -15.5t-68 -44.5l-72 -361h-70q-15 0 -19.5 5.5t-4.5 13.5q0 5 2.5 18t4.5 24l90 449h60q9 0 15 -3.5t6 -14.5q0 -5 -0.5 -11.5t-1.5 -13.5l-2 -25q27 29 66.5 49.5t84.5 20.5q31 0 31 -22q0 -6 -2 -15l-4 -18zM51 -199
q-13 0 -13 10q0 6 8 17l29 43q-11 3 -18.5 10.5t-7.5 21.5q0 24 16 39t46 15q23 0 35 -11t12 -28q0 -14 -7.5 -29t-18.5 -31t-23.5 -30.5t-23.5 -26.5h-34z" />
    <glyph glyph-name="Rcaron" unicode="&#x158;" horiz-adv-x="530" 
d="M165 0h-70q-23 0 -23 19q0 3 1.5 12.5t4 21.5l5 24t4.5 20l117 585q35 8 76 13t85 5q112 0 165 -44.5t53 -131.5q0 -74 -41 -131.5t-113 -86.5q14 -31 27 -72.5t23.5 -85t18 -83t10.5 -65.5h-77q-14 0 -20 6.5t-8 20.5q-3 25 -9.5 59.5t-15 70.5t-19 69.5t-20.5 58.5
q-8 -1 -17 -1.5t-18 -0.5h-82zM238 362h92q28 0 55 10t48.5 30t34.5 49.5t13 67.5q0 54 -29 77.5t-92 23.5q-21 0 -39 -1.5t-32 -3.5zM467 883h62q12 0 12 -11q0 -6 -11 -20q-26 -29 -55 -58t-51 -49h-64q-11 0 -17 4t-12 16q-13 25 -28 57.5t-26 60.5h57q11 0 16.5 -4.5
t10.5 -13.5l29 -63z" />
    <glyph glyph-name="rcaron" unicode="&#x159;" horiz-adv-x="352" 
d="M410 419q-9 2 -17.5 2h-14.5q-36 0 -75 -15.5t-68 -44.5l-72 -361h-70q-15 0 -19.5 5.5t-4.5 13.5q0 5 2.5 18t4.5 24l90 449h60q9 0 15 -3.5t6 -14.5q0 -5 -0.5 -11.5t-1.5 -13.5l-2 -25q27 29 66.5 49.5t84.5 20.5q31 0 31 -22q0 -6 -2 -15l-4 -18zM380 721h58
q13 0 13 -10q0 -5 -6 -14q-24 -34 -52.5 -64.5t-57.5 -59.5h-61q-11 0 -16.5 4t-11.5 17q-14 28 -28 62.5t-25 64.5h57q11 0 15.5 -3.5t9.5 -14.5l29 -72z" />
    <glyph glyph-name="Sacute" unicode="&#x15a;" horiz-adv-x="489" 
d="M250 -10q-54 0 -96 12t-61 24q-19 11 -28 19t-9 19q0 6 2 14t5 16l13 32q28 -17 71 -32t98 -15q29 0 55 7.5t45.5 22.5t31 37t11.5 51q0 40 -23.5 65.5t-76.5 52.5q-31 16 -58.5 33t-48.5 38.5t-33 49.5t-12 66q0 42 15 79t42.5 64t67.5 42.5t91 15.5q48 0 80.5 -8.5
t59.5 -22.5q20 -11 27 -19.5t7 -18.5q0 -11 -7 -28l-13 -29q-9 5 -24 11.5t-34.5 12.5t-43.5 10t-49 4q-57 0 -89 -29t-32 -72q0 -23 7.5 -39.5t21 -29.5t32.5 -23.5t42 -22.5q34 -18 62 -36.5t47 -41.5t29.5 -51.5t10.5 -65.5q0 -50 -18 -90t-49.5 -67.5t-74.5 -42
t-94 -14.5zM384 745h-51q-12 0 -12 8q0 5 3 11q17 25 39.5 57t45.5 62h69q5 0 9.5 -3t4.5 -9q0 -5 -2.5 -11t-10.5 -14z" />
    <glyph glyph-name="sacute" unicode="&#x15b;" horiz-adv-x="422" 
d="M207 -11q-41 0 -77.5 9t-56.5 18q-15 7 -22 13.5t-7 17.5q0 7 2.5 16t5.5 17l8 22q5 -3 19.5 -8t34 -10t42.5 -9t46 -4q22 0 43.5 4t38.5 13t27 24t10 38q0 24 -17.5 40.5t-65.5 33.5q-27 10 -51.5 21t-43.5 27t-30 37.5t-11 51.5q0 39 16 69t44 50.5t65.5 30.5t80.5 10
q48 0 80 -10t43 -15q14 -7 20 -14t6 -15q0 -11 -7 -30l-9 -23q-15 7 -51.5 17t-81.5 10q-18 0 -37 -3t-34.5 -11t-26 -22t-10.5 -37q0 -13 5.5 -22.5t17 -17t29 -15t41.5 -16.5q27 -11 50 -23t40 -28t26.5 -37.5t9.5 -51.5q0 -42 -17 -73.5t-45.5 -52.5t-67.5 -31.5
t-82 -10.5zM326 575h-46q-12 0 -12 8q0 5 3 11q16 24 37.5 54.5t41.5 59.5h67q8 0 11 -4t3 -9t-2.5 -10.5t-10.5 -13.5z" />
    <glyph glyph-name="Scircumflex" unicode="&#x15c;" horiz-adv-x="489" 
d="M250 -10q-54 0 -96 12t-61 24q-19 11 -28 19t-9 19q0 6 2 14t5 16l13 32q28 -17 71 -32t98 -15q29 0 55 7.5t45.5 22.5t31 37t11.5 51q0 40 -23.5 65.5t-76.5 52.5q-31 16 -58.5 33t-48.5 38.5t-33 49.5t-12 66q0 42 15 79t42.5 64t67.5 42.5t91 15.5q48 0 80.5 -8.5
t59.5 -22.5q20 -11 27 -19.5t7 -18.5q0 -11 -7 -28l-13 -29q-9 5 -24 11.5t-34.5 12.5t-43.5 10t-49 4q-57 0 -89 -29t-32 -72q0 -23 7.5 -39.5t21 -29.5t32.5 -23.5t42 -22.5q34 -18 62 -36.5t47 -41.5t29.5 -51.5t10.5 -65.5q0 -50 -18 -90t-49.5 -67.5t-74.5 -42
t-94 -14.5zM316 745h-62q-12 0 -12 11q0 6 11 20q26 29 55 58t51 49h64q11 0 17 -4t12 -16q13 -25 28 -57.5t26 -60.5h-57q-11 0 -16.5 4.5t-10.5 13.5l-29 63z" />
    <glyph glyph-name="scircumflex" unicode="&#x15d;" horiz-adv-x="422" 
d="M207 -11q-41 0 -77.5 9t-56.5 18q-15 7 -22 13.5t-7 17.5q0 7 2.5 16t5.5 17l8 22q5 -3 19.5 -8t34 -10t42.5 -9t46 -4q22 0 43.5 4t38.5 13t27 24t10 38q0 24 -17.5 40.5t-65.5 33.5q-27 10 -51.5 21t-43.5 27t-30 37.5t-11 51.5q0 39 16 69t44 50.5t65.5 30.5t80.5 10
q48 0 80 -10t43 -15q14 -7 20 -14t6 -15q0 -11 -7 -30l-9 -23q-15 7 -51.5 17t-81.5 10q-18 0 -37 -3t-34.5 -11t-26 -22t-10.5 -37q0 -13 5.5 -22.5t17 -17t29 -15t41.5 -16.5q27 -11 50 -23t40 -28t26.5 -37.5t9.5 -51.5q0 -42 -17 -73.5t-45.5 -52.5t-67.5 -31.5
t-82 -10.5zM253 573h-61q-11 0 -11 10q0 7 9 18q22 28 49.5 59t57.5 61h61q11 0 17.5 -3.5t11.5 -16.5l52 -128h-57q-10 0 -14.5 3.5t-8.5 12.5l-30 74z" />
    <glyph glyph-name="Scedilla" unicode="&#x15e;" horiz-adv-x="489" 
d="M486 204q0 -48 -16.5 -87t-46 -66t-70 -42.5t-88.5 -17.5l-23 -39l14 -5q23 -8 36.5 -23.5t13.5 -38.5q0 -39 -31.5 -60.5t-79.5 -21.5q-31 0 -53 8q-10 4 -10 13q0 6 3 14l5 17q7 -2 17 -3t21 -1q18 0 37 5.5t19 25.5q0 11 -8.5 15.5t-22.5 9.5l-13 4q-15 5 -15 13
q0 7 4.5 15t9.5 18l21 35q-41 5 -71.5 14.5t-45.5 19.5q-19 11 -28 19t-9 19q0 6 2 14t5 16l13 32q28 -17 71 -32t98 -15q29 0 55 7.5t45.5 22.5t31 37t11.5 51q0 40 -23.5 65.5t-76.5 52.5q-31 16 -58.5 33t-48.5 38.5t-33 49.5t-12 66q0 42 15 79t42.5 64t67.5 42.5
t91 15.5q48 0 80.5 -8.5t59.5 -22.5q20 -11 27 -19.5t7 -18.5q0 -11 -7 -28l-13 -29q-9 5 -24 11.5t-34.5 12.5t-43.5 10t-49 4q-57 0 -89 -29t-32 -72q0 -23 7.5 -39.5t21 -29.5t32.5 -23.5t42 -22.5q34 -18 62 -36.5t47 -41.5t29.5 -51.5t10.5 -65.5z" />
    <glyph glyph-name="scedilla" unicode="&#x15f;" horiz-adv-x="422" 
d="M419 157q0 -39 -14.5 -68.5t-39 -50.5t-58 -33t-72.5 -15l-23 -38l14 -5q23 -8 36.5 -23.5t13.5 -38.5q0 -39 -31.5 -60.5t-79.5 -21.5q-31 0 -53 8q-10 4 -10 13q0 6 8 31q7 -2 17 -3t21 -1q27 0 41.5 7.5t14.5 23.5q0 12 -10 17t-34 12q-15 5 -15 12t3.5 14.5
t19.5 34.5l11 18q-33 3 -61.5 10.5t-44.5 15.5q-15 7 -22 13.5t-7 17.5q0 7 2.5 16t5.5 17l8 22q5 -3 19.5 -8t34 -10t42.5 -9t46 -4q22 0 43.5 4t38.5 13t27 24t10 38q0 24 -17.5 40.5t-65.5 33.5q-27 10 -51.5 21t-43.5 27t-30 37.5t-11 51.5q0 39 16 69t44 50.5
t65.5 30.5t80.5 10t74 -8t47 -16t22 -15t6 -15q-1 -18 -16 -53q-15 7 -51.5 17t-81.5 10q-18 0 -37 -3t-34.5 -11t-26 -22t-10.5 -37q0 -13 5.5 -22.5t17 -17t29 -15t41.5 -16.5q27 -11 50 -23t40 -28t26.5 -37.5t9.5 -51.5z" />
    <glyph glyph-name="Scaron" unicode="&#x160;" horiz-adv-x="489" 
d="M250 -10q-54 0 -96 12t-61 24q-19 11 -28 19t-9 19q0 6 2 14t5 16l13 32q28 -17 71 -32t98 -15q29 0 55 7.5t45.5 22.5t31 37t11.5 51q0 40 -23.5 65.5t-76.5 52.5q-31 16 -58.5 33t-48.5 38.5t-33 49.5t-12 66q0 42 15 79t42.5 64t67.5 42.5t91 15.5q48 0 80.5 -8.5
t59.5 -22.5q20 -11 27 -19.5t7 -18.5q0 -11 -7 -28l-13 -29q-9 5 -24 11.5t-34.5 12.5t-43.5 10t-49 4q-57 0 -89 -29t-32 -72q0 -23 7.5 -39.5t21 -29.5t32.5 -23.5t42 -22.5q34 -18 62 -36.5t47 -41.5t29.5 -51.5t10.5 -65.5q0 -50 -18 -90t-49.5 -67.5t-74.5 -42
t-94 -14.5zM447 883h62q12 0 12 -11q0 -6 -11 -20q-26 -29 -55 -58t-51 -49h-64q-11 0 -17 4t-12 16q-13 25 -28 57.5t-26 60.5h57q11 0 16.5 -4.5t10.5 -13.5l29 -63z" />
    <glyph glyph-name="scaron" unicode="&#x161;" horiz-adv-x="422" 
d="M207 -11q-41 0 -77.5 9t-56.5 18q-15 7 -22 13.5t-7 17.5q0 7 2.5 16t5.5 17l8 22q5 -3 19.5 -8t34 -10t42.5 -9t46 -4q22 0 43.5 4t38.5 13t27 24t10 38q0 24 -17.5 40.5t-65.5 33.5q-27 10 -51.5 21t-43.5 27t-30 37.5t-11 51.5q0 39 16 69t44 50.5t65.5 30.5t80.5 10
q48 0 80 -10t43 -15q14 -7 20 -14t6 -15q0 -11 -7 -30l-9 -23q-15 7 -51.5 17t-81.5 10q-18 0 -37 -3t-34.5 -11t-26 -22t-10.5 -37q0 -13 5.5 -22.5t17 -17t29 -15t41.5 -16.5q27 -11 50 -23t40 -28t26.5 -37.5t9.5 -51.5q0 -42 -17 -73.5t-45.5 -52.5t-67.5 -31.5
t-82 -10.5zM391 721h58q13 0 13 -10q0 -5 -6 -14q-24 -34 -52.5 -64.5t-57.5 -59.5h-61q-11 0 -16.5 4t-11.5 17q-14 28 -28 62.5t-25 64.5h57q11 0 15.5 -3.5t9.5 -14.5l29 -72z" />
    <glyph glyph-name="uni0162" unicode="&#x162;" horiz-adv-x="500" 
d="M315 605h-150q-23 0 -23 18q0 12 12 70h430q22 0 22 -18q0 -4 -1 -12.5t-10 -57.5h-180l-121 -605h-16l-29 -48l14 -5q23 -8 36.5 -23.5t13.5 -38.5q0 -39 -31.5 -60.5t-79.5 -21.5q-31 0 -53 8q-10 4 -10 13q0 6 8 31q7 -2 17 -3t21 -1q26 0 41 7t15 24q0 11 -8.5 15.5
t-35.5 13.5q-15 5 -15 13q0 7 5 16.5t9 16.5l26 43q-14 0 -19 5t-5 14q0 6 3.5 25t8.5 41z" />
    <glyph glyph-name="uni0163" unicode="&#x163;" horiz-adv-x="356" 
d="M251 72q18 0 37 5t25 5q8 0 12 -5.5t7 -16.5l8 -36q-21 -12 -46.5 -19t-51.5 -10l-26 -43l14 -5q23 -8 36.5 -23.5t13.5 -38.5q0 -39 -31.5 -60.5t-79.5 -21.5q-31 0 -53 8q-10 4 -10 13q0 6 3 14l5 17q7 -2 17 -3t21 -1q18 0 37 5.5t19 25.5q0 11 -8.5 15.5t-22.5 9.5
l-13 4q-15 5 -15 13q0 7 4.5 15t9.5 18l24 40q-36 6 -56 30t-20 65q0 21 3.5 43t8.5 44l52 255h-42q-22 0 -22 17q0 6 2 17t4 24l4 18h68l27 131h70q24 0 24 -18q0 -10 -5 -32l-17 -81h102q23 0 23 -17q0 -5 -1.5 -11.5t-3.5 -17.5l-6 -30h-128l-59 -290q-2 -12 -3 -21
t-1 -16q0 -20 11.5 -27.5t28.5 -7.5z" />
    <glyph glyph-name="Tcaron" unicode="&#x164;" horiz-adv-x="500" 
d="M315 605h-150q-23 0 -23 18q0 4 1 12.5t3 15.5l8 42h430q22 0 22 -18q0 -4 -1 -12.5t-3 -15.5l-7 -42h-180l-121 -605h-72q-14 0 -19 5t-5 14q0 6 3.5 25t8.5 41zM475 883h62q12 0 12 -11q0 -6 -11 -20q-26 -29 -55 -58t-51 -49h-64q-11 0 -17 4t-12 16q-13 25 -28 57.5
t-26 60.5h57q11 0 16.5 -4.5t10.5 -13.5l29 -63z" />
    <glyph glyph-name="tcaron" unicode="&#x165;" horiz-adv-x="356" 
d="M175 434h-42q-23 0 -23 17q0 5 1.5 11.5t3.5 17.5l6 30h68l33 131h64q24 0 24 -18q0 -10 -5 -32l-17 -81h102q23 0 23 -17q0 -5 -1.5 -11.5t-3.5 -17.5l-6 -30h-128l-59 -290q-2 -12 -3 -21t-1 -16q0 -20 11.5 -27.5t28.5 -7.5q18 0 37 5t25 5q8 0 12 -5.5t7 -16.5l8 -36
q-26 -14 -58 -22t-65 -8q-50 0 -78 25t-28 73q0 21 3.5 43t8.5 44zM442 718q19 0 19 -14q0 -5 -4.5 -21t-11 -36.5t-15 -43t-15.5 -41.5h-40q-16 0 -16 14q0 6 1.5 21t4.5 34.5t6.5 42t7.5 44.5h63z" />
    <glyph glyph-name="Tbar" unicode="&#x166;" horiz-adv-x="500" 
d="M315 605h-150q-23 0 -23 18q0 4 1 10.5t11 59.5h430q22 0 22 -18q0 -9 -11 -70h-180l-49 -241h91q22 0 22 -19q0 -7 -10 -49h-116l-59 -296h-72q-14 0 -19 5t-5 14q0 6 3.5 24t8.5 42l42 211h-88q-21 0 -21 18q0 8 9 50h114z" />
    <glyph glyph-name="tbar" unicode="&#x167;" horiz-adv-x="356" 
d="M147 298l28 136h-42q-22 0 -22 17q0 6 2 17t4 24l4 18h68l27 131h70q24 0 24 -18q0 -10 -5 -32l-17 -81h102q23 0 23 -17q0 -5 -1.5 -11.5t-3.5 -17.5l-6 -30h-128l-28 -136h106q23 0 23 -17q0 -5 -1.5 -12t-3.5 -18l-4 -20h-134l-17 -87q-2 -12 -3 -21t-1 -16
q0 -20 11.5 -27.5t28.5 -7.5q18 0 37 5t25 5q8 0 12 -5.5t7 -16.5l8 -36q-26 -14 -58 -22t-65 -8q-50 0 -78 25t-28 73q0 21 3.5 43t8.5 44l10 52h-36q-22 0 -22 17q0 5 1 11t3 19l4 20h64z" />
    <glyph glyph-name="Utilde" unicode="&#x168;" horiz-adv-x="589" 
d="M221 259q-4 -19 -8 -44.5t-4 -48.5q0 -40 21 -64t76 -24q69 0 105.5 42.5t51.5 116.5l92 456h74q14 0 18.5 -5t4.5 -14q0 -6 -4 -27.5t-7 -36.5l-73 -365q-14 -69 -36.5 -118t-55.5 -79.5t-76.5 -44.5t-98.5 -14q-41 0 -76 9t-61 29t-41 52.5t-15 79.5q0 23 4.5 54.5
t9.5 59.5l84 420h73q14 0 19.5 -5t5.5 -14q0 -3 -1.5 -10.5t-3 -17t-4 -19.5t-3.5 -17zM598 874q9 0 12 -3.5t3 -9.5q0 -24 -8 -44t-21.5 -34.5t-31.5 -22.5t-37 -8q-38 0 -74 31q-14 13 -25 20.5t-23 7.5q-15 0 -24 -15t-14 -42h-41q-9 0 -12 3.5t-3 9.5q0 27 8.5 46
t22 33.5t31.5 22t37 7.5q23 0 40 -9t30.5 -20.5t26 -21t23.5 -9.5q16 0 25.5 16.5t13.5 41.5h41z" />
    <glyph glyph-name="utilde" unicode="&#x169;" horiz-adv-x="522" 
d="M493 208q-6 -29 -10.5 -62t-8 -63t-5.5 -53t-2 -30h-52q-14 0 -19.5 5t-7.5 18l-5 37q-28 -29 -69 -50t-92 -21q-61 0 -97.5 33.5t-36.5 99.5q0 13 3 38t10 59l59 291h69q15 0 20 -5.5t5 -13.5q0 -5 -2.5 -17t-4.5 -25l-48 -240q-6 -29 -8.5 -46t-2.5 -32q0 -60 67 -60
q20 0 38 5.5t34 14.5t28.5 19t21.5 19l77 381h69q15 0 20 -5t5 -13q0 -6 -2.5 -19t-4.5 -24zM529 702q9 0 12 -3.5t3 -9.5q0 -24 -8 -44t-21.5 -34.5t-31.5 -22.5t-37 -8q-38 0 -74 31q-10 8 -21.5 18t-26.5 10q-19 0 -26.5 -19t-11.5 -38h-41q-9 0 -12 3.5t-3 9.5
q0 25 8.5 45t22 34.5t31.5 22t37 7.5q23 0 40 -9t34 -23q14 -11 24.5 -19.5t21.5 -8.5q18 0 26 17t13 41h41z" />
    <glyph glyph-name="Umacron" unicode="&#x16a;" horiz-adv-x="589" 
d="M221 259q-4 -19 -8 -44.5t-4 -48.5q0 -40 21 -64t76 -24q69 0 105.5 42.5t51.5 116.5l92 456h74q14 0 18.5 -5t4.5 -14q0 -6 -4 -27.5t-7 -36.5l-73 -365q-14 -69 -36.5 -118t-55.5 -79.5t-76.5 -44.5t-98.5 -14q-41 0 -76 9t-61 29t-41 52.5t-15 79.5q0 23 4.5 54.5
t9.5 59.5l84 420h73q14 0 19.5 -5t5.5 -14q0 -3 -1.5 -10.5t-3 -17t-4 -19.5t-3.5 -17zM341 848h222q11 0 15 -4.5t4 -11.5q0 -4 -1 -10.5t-2 -10.5l-7 -37h-222q-11 0 -15 4.5t-4 11.5q0 4 1 10.5t2 10.5z" />
    <glyph glyph-name="umacron" unicode="&#x16b;" horiz-adv-x="522" 
d="M493 208q-6 -29 -10.5 -62t-8 -63t-5.5 -53t-2 -30h-52q-14 0 -19.5 5t-7.5 18l-5 37q-28 -29 -69 -50t-92 -21q-61 0 -97.5 33.5t-36.5 99.5q0 13 3 38t10 59l59 291h69q15 0 20 -5.5t5 -13.5q0 -5 -2.5 -17t-4.5 -25l-48 -240q-6 -29 -8.5 -46t-2.5 -32q0 -60 67 -60
q20 0 38 5.5t34 14.5t28.5 19t21.5 19l77 381h69q15 0 20 -5t5 -13q0 -6 -2.5 -19t-4.5 -24zM259 679h222q11 0 15 -4.5t4 -11.5q0 -4 -1 -10.5t-2 -10.5l-7 -37h-222q-11 0 -15 4.5t-4 11.5q0 4 1 10.5t2 10.5z" />
    <glyph glyph-name="Ubreve" unicode="&#x16c;" horiz-adv-x="589" 
d="M221 259q-4 -19 -8 -44.5t-4 -48.5q0 -40 21 -64t76 -24q69 0 105.5 42.5t51.5 116.5l92 456h74q14 0 18.5 -5t4.5 -14q0 -6 -4 -27.5t-7 -36.5l-73 -365q-14 -69 -36.5 -118t-55.5 -79.5t-76.5 -44.5t-98.5 -14q-41 0 -76 9t-61 29t-41 52.5t-15 79.5q0 23 4.5 54.5
t9.5 59.5l84 420h73q14 0 19.5 -5t5.5 -14q0 -3 -1.5 -10.5t-3 -17t-4 -19.5t-3.5 -17zM402 856q0 -27 9.5 -38t32.5 -11q30 0 47 21.5t24 52.5h48q14 0 14 -11q0 -30 -13 -53t-33 -39t-44.5 -24t-48.5 -8q-42 0 -72.5 21t-30.5 75q0 20 4 39h45q12 0 15 -6t3 -19z" />
    <glyph glyph-name="ubreve" unicode="&#x16d;" horiz-adv-x="522" 
d="M493 208q-6 -29 -10.5 -62t-8 -63t-5.5 -53t-2 -30h-52q-14 0 -19.5 5t-7.5 18l-5 37q-28 -29 -69 -50t-92 -21q-61 0 -97.5 33.5t-36.5 99.5q0 13 3 38t10 59l59 291h69q15 0 20 -5.5t5 -13.5q0 -5 -2.5 -17t-4.5 -25l-48 -240q-6 -29 -8.5 -46t-2.5 -32q0 -60 67 -60
q20 0 38 5.5t34 14.5t28.5 19t21.5 19l77 381h69q15 0 20 -5t5 -13q0 -6 -2.5 -19t-4.5 -24zM337 687q0 -27 9.5 -38t32.5 -11q32 0 48.5 21t22.5 52h48q14 0 14 -11q0 -26 -10.5 -48.5t-29 -39t-42.5 -26.5t-51 -10q-50 0 -79.5 22.5t-29.5 73.5q0 20 4 39h45q12 0 15 -5.5
t3 -18.5z" />
    <glyph glyph-name="Uring" unicode="&#x16e;" horiz-adv-x="589" 
d="M221 259q-4 -19 -8 -44.5t-4 -48.5q0 -40 21 -64t76 -24q69 0 105.5 42.5t51.5 116.5l92 456h74q14 0 18.5 -5t4.5 -14q0 -6 -4 -27.5t-7 -36.5l-73 -365q-14 -69 -36.5 -118t-55.5 -79.5t-76.5 -44.5t-98.5 -14q-41 0 -76 9t-61 29t-41 52.5t-15 79.5q0 23 4.5 54.5
t9.5 59.5l84 420h73q14 0 19.5 -5t5.5 -14q0 -3 -1.5 -10.5t-3 -17t-4 -19.5t-3.5 -17zM438 771q26 0 41.5 13.5t15.5 39.5q0 20 -12.5 35t-35.5 15q-26 0 -41.5 -14t-15.5 -41q0 -20 12.5 -33.5t35.5 -14.5zM438 724q-19 0 -37 5t-32 16t-22.5 27t-8.5 39q0 52 29.5 81
t77.5 29q19 0 37.5 -6t32.5 -17.5t22.5 -28.5t8.5 -39q0 -51 -30 -78.5t-78 -27.5z" />
    <glyph glyph-name="uring" unicode="&#x16f;" horiz-adv-x="522" 
d="M493 208q-6 -29 -10.5 -62t-8 -63t-5.5 -53t-2 -30h-52q-14 0 -19.5 5t-7.5 18l-5 37q-28 -29 -69 -50t-92 -21q-61 0 -97.5 33.5t-36.5 99.5q0 13 3 38t10 59l59 291h69q15 0 20 -5.5t5 -13.5q0 -5 -2.5 -17t-4.5 -25l-48 -240q-6 -29 -8.5 -46t-2.5 -32q0 -60 67 -60
q20 0 38 5.5t34 14.5t28.5 19t21.5 19l77 381h69q15 0 20 -5t5 -13q0 -6 -2.5 -19t-4.5 -24zM373 613q26 0 41.5 13.5t15.5 39.5q0 20 -12.5 35t-35.5 15q-26 0 -41.5 -14t-15.5 -41q0 -20 12.5 -33.5t35.5 -14.5zM373 566q-19 0 -37 5t-32 16t-22.5 27t-8.5 39
q0 52 29.5 81t77.5 29q19 0 37.5 -6t32.5 -17.5t22.5 -28.5t8.5 -39q0 -51 -30 -78.5t-78 -27.5z" />
    <glyph glyph-name="Uhungarumlaut" unicode="&#x170;" horiz-adv-x="589" 
d="M221 259q-4 -19 -8 -44.5t-4 -48.5q0 -40 21 -64t76 -24q69 0 105.5 42.5t51.5 116.5l92 456h74q14 0 18.5 -5t4.5 -14q0 -6 -4 -27.5t-7 -36.5l-73 -365q-14 -69 -36.5 -118t-55.5 -79.5t-76.5 -44.5t-98.5 -14q-41 0 -76 9t-61 29t-41 52.5t-15 79.5q0 23 4.5 54.5
t9.5 59.5l84 420h73q14 0 19.5 -5t5.5 -14q0 -3 -1.5 -10.5t-3 -17t-4 -19.5t-3.5 -17zM532 745h-49q-12 0 -12 8q0 5 3 11q14 22 34 50.5t39 54.5h67q8 0 11 -4t3 -9t-2.5 -10.5t-10.5 -13.5zM375 745h-49q-12 0 -12 8q0 5 3 11q14 22 34 50.5t39 54.5h67q8 0 11 -4t3 -9
t-2.5 -10.5t-10.5 -13.5z" />
    <glyph glyph-name="uhungarumlaut" unicode="&#x171;" horiz-adv-x="522" 
d="M493 208q-6 -29 -10.5 -62t-8 -63t-5.5 -53t-2 -30h-52q-14 0 -19.5 5t-7.5 18l-5 37q-28 -29 -69 -50t-92 -21q-61 0 -97.5 33.5t-36.5 99.5q0 13 3 38t10 59l59 291h69q15 0 20 -5.5t5 -13.5q0 -5 -2.5 -17t-4.5 -25l-48 -240q-6 -29 -8.5 -46t-2.5 -32q0 -60 67 -60
q20 0 38 5.5t34 14.5t28.5 19t21.5 19l77 381h69q15 0 20 -5t5 -13q0 -6 -2.5 -19t-4.5 -24zM463 575h-46q-12 0 -12 8q0 5 3 11q16 24 37.5 54.5t41.5 59.5h60q8 0 11 -4t3 -9q0 -12 -15 -28zM309 575h-46q-12 0 -12 8q0 5 3 11q16 24 37.5 54.5t41.5 59.5h60q8 0 11 -4
t3 -9q0 -12 -15 -28z" />
    <glyph glyph-name="Uogonek" unicode="&#x172;" horiz-adv-x="589" 
d="M296 -184q-31 0 -53.5 13.5t-22.5 44.5q0 33 21.5 62.5t51.5 52.5q-39 1 -73 10t-58.5 29.5t-39 52.5t-14.5 78q0 23 4.5 54.5t9.5 59.5l84 420h73q14 0 19.5 -5t5.5 -14q0 -3 -1.5 -12t-6 -30.5t-75.5 -372.5q-4 -19 -8 -44.5t-4 -48.5q0 -40 21 -64t76 -24
q69 0 105.5 42.5t51.5 116.5l92 456h74q14 0 18.5 -5t4.5 -14q0 -6 -4 -27.5t-7 -36.5l-73 -365q-20 -101 -57.5 -156t-90.5 -78q-25 -11 -47.5 -24.5t-40 -28t-28 -29.5t-10.5 -30q0 -20 26 -20q14 0 24.5 1.5t14.5 1.5q9 0 9 -8q0 -2 -1 -9.5t-6 -35.5q-29 -13 -65 -13z
" />
    <glyph glyph-name="uogonek" unicode="&#x173;" horiz-adv-x="522" 
d="M377 -184q-31 0 -53.5 13t-22.5 45q0 38 26.5 69.5t63.5 57.5l-8 59q-28 -29 -69 -50t-92 -21q-61 0 -97.5 33.5t-36.5 99.5q0 13 3 38t10 59l59 291h69q15 0 20 -5.5t5 -13.5q0 -5 -2.5 -17t-4.5 -25l-48 -240q-6 -29 -8.5 -46t-2.5 -32q0 -60 67 -60q20 0 38 5.5
t34 14.5t28.5 19t21.5 19l77 381h69q15 0 20 -5t5 -13q0 -6 -2.5 -19t-4.5 -24l-48 -241q-6 -29 -10.5 -62t-8 -63t-5.5 -53t-2 -30q-11 -8 -27 -19t-30.5 -24.5t-24.5 -28t-10 -29.5q0 -20 26 -20q14 0 24.5 1.5t14.5 1.5q9 0 9 -8q0 -2 -1 -9.5t-2 -12.5l-4 -23
q-29 -13 -65 -13z" />
    <glyph glyph-name="Wcircumflex" unicode="&#x174;" horiz-adv-x="777" 
d="M289 0h-88q-26 0 -29 25q-8 72 -12 146.5t-4 159.5q0 90 4.5 179t15.5 183h78q20 0 20 -19q0 -6 -0.5 -16.5t-2.5 -20.5q-9 -74 -14.5 -153t-5.5 -183q0 -48 1 -97t3 -101l206 528h54q18 0 25.5 -10.5t7.5 -27.5l4 -60q2 -31 3.5 -69t2.5 -78t1.5 -80t0.5 -74v-31
t-0.5 -23t-0.5 -28v-45q67 155 116 301.5t91 286.5h74q20 0 20 -16q0 -3 -1.5 -8.5t-3.5 -14.5q-16 -56 -41.5 -134t-58.5 -166t-72 -180t-81 -174h-93q-23 0 -23 26q0 38 -0.5 84t-1 103.5t-0.5 128.5v159zM467 745h-62q-12 0 -12 11q0 6 11 20q26 29 55 58t51 49h64
q11 0 17 -4t12 -16q13 -25 28 -57.5t26 -60.5h-57q-11 0 -16.5 4.5t-10.5 13.5l-29 63z" />
    <glyph glyph-name="wcircumflex" unicode="&#x175;" horiz-adv-x="693" 
d="M497 119q22 43 44.5 92t43 100t38.5 101.5t32 97.5h71q12 0 15.5 -4.5t3.5 -11.5q0 -8 -4 -23t-12 -36q-18 -52 -41.5 -108.5t-49.5 -113t-55.5 -111t-59.5 -102.5h-57q-18 0 -26 8t-10 26l-24 316l-163 -350h-58q-17 0 -25.5 5.5t-13.5 23.5q-20 88 -29 187t-9 209v36
t2 49h69q15 0 20.5 -5.5t5.5 -23.5q0 -8 -0.5 -34t-0.5 -71q0 -21 0.5 -51t2 -65.5t4.5 -74t8 -75.5l164 357h65q23 0 24 -23zM390 573h-61q-11 0 -11 10q0 7 9 18q22 28 49.5 59t57.5 61h61q11 0 17.5 -3.5t11.5 -16.5l52 -128h-57q-10 0 -14.5 3.5t-8.5 12.5l-30 74z" />
    <glyph glyph-name="Ycircumflex" unicode="&#x176;" horiz-adv-x="503" 
d="M605 651q-47 -95 -107.5 -190.5t-148.5 -201.5l-51 -259h-73q-14 0 -19 5t-5 13q0 7 3.5 26t8.5 41l37 182q-22 56 -38 108t-28 104t-20 104.5t-12 109.5h84q14 0 17 -6.5t5 -20.5q3 -30 7.5 -66.5t11.5 -76.5t17 -82.5t24 -85.5q33 42 62.5 86.5t55 88.5t46 85.5
t34.5 77.5h73q23 0 23 -17q0 -11 -7 -25zM342 745h-62q-12 0 -12 11q0 6 11 20q26 29 55 58t51 49h64q11 0 17 -4t12 -16q13 -25 28 -57.5t26 -60.5h-57q-11 0 -16.5 4.5t-10.5 13.5l-29 63z" />
    <glyph glyph-name="ycircumflex" unicode="&#x177;" horiz-adv-x="471" 
d="M50 -174q-23 0 -38.5 9.5t-15.5 26.5q0 9 3 26l4 20q5 -1 14.5 -1.5t17.5 -0.5q44 0 80.5 30t78.5 89q-17 37 -31 83.5t-24.5 98t-16.5 107t-6 111.5v36t2 49h72q14 0 19 -6t5 -25v-51q0 -91 9 -172t31 -150q57 91 102.5 191.5t83.5 212.5h70q12 0 15.5 -4.5t3.5 -11.5
q0 -8 -4.5 -22.5t-11.5 -36.5q-13 -39 -36 -91t-52.5 -108.5t-63 -113t-66.5 -103.5q-65 -92 -122 -142.5t-123 -50.5zM279 573h-61q-11 0 -11 10q0 7 9 18q22 28 49.5 59t57.5 61h61q11 0 17.5 -3.5t11.5 -16.5l52 -128h-57q-10 0 -14.5 3.5t-8.5 12.5l-30 74z" />
    <glyph glyph-name="Ydieresis" unicode="&#x178;" horiz-adv-x="503" 
d="M605 651q-47 -95 -107.5 -190.5t-148.5 -201.5l-51 -259h-73q-14 0 -19 5t-5 13q0 7 3.5 26t8.5 41l37 182q-22 56 -38 108t-28 104t-20 104.5t-12 109.5h84q14 0 17 -6.5t5 -20.5q3 -30 7.5 -66.5t11.5 -76.5t17 -82.5t24 -85.5q33 42 62.5 86.5t55 88.5t46 85.5
t34.5 77.5h73q23 0 23 -17q0 -11 -7 -25zM303 759q-27 0 -39.5 11t-12.5 28q0 30 17.5 48.5t51.5 18.5q27 0 40 -11.5t13 -27.5q0 -30 -17.5 -48.5t-52.5 -18.5zM488 759q-27 0 -39.5 11t-12.5 28q0 30 17.5 48.5t51.5 18.5q27 0 40 -11.5t13 -27.5q0 -30 -17.5 -48.5
t-52.5 -18.5z" />
    <glyph glyph-name="Zacute" unicode="&#x179;" horiz-adv-x="482" 
d="M451 0h-397q-23 0 -23 18q0 13 10 65q40 55 89 119.5t102.5 132.5t110 137t112.5 133h-273q-23 0 -23 18q0 4 2 16.5t10 53.5h385q22 0 22 -18q0 -10 -11 -68q-60 -69 -119 -140t-113 -138t-101 -128.5t-83 -112.5h290q22 0 22 -18q0 -7 -2.5 -21t-9.5 -49zM400 745h-51
q-12 0 -12 8q0 5 3 11q17 25 39.5 57t45.5 62h69q5 0 9.5 -3t4.5 -9q0 -5 -2.5 -11t-10.5 -14z" />
    <glyph glyph-name="zacute" unicode="&#x17a;" horiz-adv-x="445" 
d="M403 0h-346q-12 0 -16 4.5t-4 12.5t5 31l6 29q66 78 153 170.5t177 182.5h-227q-21 0 -21 17q0 6 5 31l7 32h338q12 0 16 -4.5t4 -12.5q0 -5 -2 -13.5t-4 -19.5l-6 -30q-49 -48 -97 -97t-91.5 -94.5t-81 -86t-64.5 -72.5h240q21 0 21 -17q0 -7 -5 -30zM353 575h-46
q-12 0 -12 8q0 5 3 11q16 24 37.5 54.5t41.5 59.5h67q8 0 11 -4t3 -9t-2.5 -10.5t-10.5 -13.5z" />
    <glyph glyph-name="Zdotaccent" unicode="&#x17b;" horiz-adv-x="482" 
d="M451 0h-397q-23 0 -23 18q0 13 10 65q40 55 89 119.5t102.5 132.5t110 137t112.5 133h-273q-23 0 -23 18q0 4 2 16.5t10 53.5h385q22 0 22 -18q0 -10 -11 -68q-60 -69 -119 -140t-113 -138t-101 -128.5t-83 -112.5h290q22 0 22 -18q0 -7 -2.5 -21t-9.5 -49zM387 757
q-29 0 -41.5 11.5t-12.5 29.5q0 32 18 50.5t53 18.5q29 0 42 -12t13 -29q0 -32 -18 -50.5t-54 -18.5z" />
    <glyph glyph-name="zdotaccent" unicode="&#x17c;" horiz-adv-x="445" 
d="M403 0h-346q-12 0 -16 4.5t-4 12.5t5 31l6 29q66 78 153 170.5t177 182.5h-227q-21 0 -21 17q0 6 5 31l7 32h338q12 0 16 -4.5t4 -12.5q0 -5 -2 -13.5t-4 -19.5l-6 -30q-49 -48 -97 -97t-91.5 -94.5t-81 -86t-64.5 -72.5h240q21 0 21 -17q0 -7 -5 -30zM339 589
q-29 0 -41.5 11.5t-12.5 29.5q0 32 18 50.5t53 18.5q29 0 42 -12t13 -29q0 -32 -18 -50.5t-54 -18.5z" />
    <glyph glyph-name="Zcaron" unicode="&#x17d;" horiz-adv-x="482" 
d="M451 0h-397q-23 0 -23 18q0 13 10 65q40 55 89 119.5t102.5 132.5t110 137t112.5 133h-273q-23 0 -23 18q0 4 2 16.5t10 53.5h385q22 0 22 -18q0 -10 -11 -68q-60 -69 -119 -140t-113 -138t-101 -128.5t-83 -112.5h290q22 0 22 -18q0 -7 -2.5 -21t-9.5 -49zM468 883h62
q12 0 12 -11q0 -6 -11 -20q-26 -29 -55 -58t-51 -49h-64q-11 0 -17 4t-12 16q-13 25 -28 57.5t-26 60.5h57q11 0 16.5 -4.5t10.5 -13.5l29 -63z" />
    <glyph glyph-name="zcaron" unicode="&#x17e;" horiz-adv-x="445" 
d="M403 0h-346q-12 0 -16 4.5t-4 12.5t5 31l6 29q66 78 153 170.5t177 182.5h-227q-21 0 -21 17q0 6 5 31l7 32h338q12 0 16 -4.5t4 -12.5q0 -5 -2 -13.5t-4 -19.5l-6 -30q-49 -48 -97 -97t-91.5 -94.5t-81 -86t-64.5 -72.5h240q21 0 21 -17q0 -7 -5 -30zM415 721h58
q13 0 13 -10q0 -5 -6 -14q-24 -34 -52.5 -64.5t-57.5 -59.5h-61q-11 0 -16.5 4t-11.5 17q-14 28 -28 62.5t-25 64.5h57q11 0 15.5 -3.5t9.5 -14.5l29 -72z" />
    <glyph glyph-name="longs" unicode="&#x17f;" horiz-adv-x="268" 
d="M-46 -95q5 -1 10 -1h10q51 0 82 42.5t50 143.5l87 465q7 38 22.5 70t38 55t51 36t62.5 13q15 0 31.5 -3t29.5 -8.5t21.5 -14t8.5 -19.5q0 -6 -3 -18l-9 -30q-14 5 -29 8.5t-33 3.5q-45 0 -63.5 -24.5t-28.5 -76.5l-87 -455q-7 -38 -21.5 -84.5t-39 -86.5t-60.5 -67
t-85 -27q-18 0 -35.5 7.5t-17.5 29.5q0 9 3 21z" />
    <glyph glyph-name="florin" unicode="&#x192;" horiz-adv-x="349" 
d="M194 434h-43q-23 0 -23 17q0 4 1 10t3 14l7 35h70l9 45q7 38 23.5 70t40 55t54 36t66.5 13q18 0 36.5 -3t34 -9t25.5 -14.5t10 -18.5q0 -6 -3 -18l-9 -30q-16 6 -35 10t-42 4q-47 0 -69 -27.5t-33 -75.5l-8 -37h90q23 0 23 -17q0 -4 -1 -10t-3 -14l-7 -35h-116l-65 -342
q-7 -38 -21.5 -84.5t-39 -86.5t-60.5 -67t-85 -27q-18 0 -35.5 7.5t-17.5 29.5q0 9 3 21l5 20q5 -1 10 -1h10q51 0 82 42.5t50 143.5z" />
    <glyph glyph-name="Scommaaccent" unicode="&#x218;" horiz-adv-x="489" 
d="M250 -10q-54 0 -96 12t-61 24q-19 11 -28 19t-9 19q0 6 2 14t5 16l13 32q28 -17 71 -32t98 -15q29 0 55 7.5t45.5 22.5t31 37t11.5 51q0 40 -23.5 65.5t-76.5 52.5q-31 16 -58.5 33t-48.5 38.5t-33 49.5t-12 66q0 42 15 79t42.5 64t67.5 42.5t91 15.5q48 0 80.5 -8.5
t59.5 -22.5q20 -11 27 -19.5t7 -18.5q0 -11 -7 -28l-13 -29q-9 5 -24 11.5t-34.5 12.5t-43.5 10t-49 4q-57 0 -89 -29t-32 -72q0 -23 7.5 -39.5t21 -29.5t32.5 -23.5t42 -22.5q34 -18 62 -36.5t47 -41.5t29.5 -51.5t10.5 -65.5q0 -50 -18 -90t-49.5 -67.5t-74.5 -42
t-94 -14.5zM189 -199q-13 0 -13 10q0 6 8 17l29 43q-11 3 -18.5 10.5t-7.5 21.5q0 24 16 39t46 15q23 0 35 -11t12 -28q0 -14 -7.5 -29t-18.5 -31t-23.5 -30.5t-23.5 -26.5h-34z" />
    <glyph glyph-name="scommaaccent" unicode="&#x219;" horiz-adv-x="422" 
d="M207 -11q-41 0 -77.5 9t-56.5 18q-15 7 -22 13.5t-7 17.5q0 7 2.5 16t5.5 17l8 22q5 -3 19.5 -8t34 -10t42.5 -9t46 -4q22 0 43.5 4t38.5 13t27 24t10 38q0 24 -17.5 40.5t-65.5 33.5q-27 10 -51.5 21t-43.5 27t-30 37.5t-11 51.5q0 39 16 69t44 50.5t65.5 30.5t80.5 10
q48 0 80 -10t43 -15q14 -7 20 -14t6 -15q0 -11 -7 -30l-9 -23q-15 7 -51.5 17t-81.5 10q-18 0 -37 -3t-34.5 -11t-26 -22t-10.5 -37q0 -13 5.5 -22.5t17 -17t29 -15t41.5 -16.5q27 -11 50 -23t40 -28t26.5 -37.5t9.5 -51.5q0 -42 -17 -73.5t-45.5 -52.5t-67.5 -31.5
t-82 -10.5zM158 -199q-13 0 -13 10q0 6 8 17l29 43q-11 3 -18.5 10.5t-7.5 21.5q0 24 16 39t46 15q23 0 35 -11t12 -28q0 -14 -7.5 -29t-18.5 -31t-23.5 -30.5t-23.5 -26.5h-34z" />
    <glyph glyph-name="uni021A" unicode="&#x21a;" horiz-adv-x="500" 
d="M315 605h-150q-23 0 -23 18q0 4 1 12.5t3 15.5l8 42h430q22 0 22 -18q0 -4 -1 -12.5t-3 -15.5l-7 -42h-180l-121 -605h-72q-14 0 -19 5t-5 14q0 6 3.5 25t8.5 41zM181 -199q-13 0 -13 10q0 6 8 17l29 43q-11 3 -18.5 10.5t-7.5 21.5q0 24 16 39t46 15q23 0 35 -11t12 -28
q0 -14 -7.5 -29t-18.5 -31t-23.5 -30.5t-23.5 -26.5h-34z" />
    <glyph glyph-name="uni021B" unicode="&#x21b;" horiz-adv-x="356" 
d="M175 434h-42q-23 0 -23 17q0 5 1.5 11.5t3.5 17.5l6 30h68l33 131h64q24 0 24 -18q0 -10 -5 -32l-17 -81h102q23 0 23 -17q0 -5 -1.5 -11.5t-3.5 -17.5l-6 -30h-128l-59 -290q-2 -12 -3 -21t-1 -16q0 -20 11.5 -27.5t28.5 -7.5q18 0 37 5t25 5q8 0 12 -5.5t7 -16.5l8 -36
q-26 -14 -58 -22t-65 -8q-50 0 -78 25t-28 73q0 21 3.5 43t8.5 44zM142 -199q-13 0 -13 10q0 6 8 17l29 43q-11 3 -18.5 10.5t-7.5 21.5q0 24 16 39t46 15q23 0 35 -11t12 -28q0 -14 -7.5 -29t-18.5 -31t-23.5 -30.5t-23.5 -26.5h-34z" />
    <glyph glyph-name="dotlessj" unicode="&#x237;" horiz-adv-x="234" 
d="M167 509h70q16 0 20.5 -5t4.5 -13q0 -6 -2.5 -18.5t-4.5 -24.5l-80 -393q-11 -53 -28 -95.5t-40.5 -73t-53.5 -47t-67 -16.5q-19 0 -36 7.5t-17 26.5q0 13 4 28l5 18q5 -1 9 -1h9q25 0 43 9t32 29.5t24.5 54t20.5 83.5z" />
    <glyph glyph-name="circumflex" unicode="&#x2c6;" horiz-adv-x="356" 
d="M178 573h-61q-11 0 -11 10q0 7 9 18q22 28 49.5 59t57.5 61h61q11 0 17.5 -3.5t11.5 -16.5l52 -128h-57q-10 0 -14.5 3.5t-8.5 12.5l-30 74z" />
    <glyph glyph-name="caron" unicode="&#x2c7;" horiz-adv-x="356" 
d="M293 721h58q13 0 13 -10q0 -5 -6 -14q-24 -34 -52.5 -64.5t-57.5 -59.5h-61q-11 0 -16.5 4t-11.5 17q-14 28 -28 62.5t-25 64.5h57q11 0 15.5 -3.5t9.5 -14.5l29 -72z" />
    <glyph glyph-name="uni02C9" unicode="&#x2c9;" horiz-adv-x="434" 
d="M171 679h238q11 0 15 -4.5t4 -11.5q0 -4 -1 -10.5t-2 -10.5l-8 -37h-238q-11 0 -15 4.5t-4 11.5q0 4 1 10.5t2 10.5z" />
    <glyph glyph-name="breve" unicode="&#x2d8;" horiz-adv-x="385" 
d="M196 687q0 -27 9.5 -38t32.5 -11q32 0 48.5 21t22.5 52h48q14 0 14 -11q0 -26 -10.5 -48.5t-29 -39t-42.5 -26.5t-51 -10q-50 0 -79.5 22.5t-29.5 73.5q0 20 4 39h45q12 0 15 -5.5t3 -18.5z" />
    <glyph glyph-name="dotaccent" unicode="&#x2d9;" horiz-adv-x="434" 
d="M298 589q-29 0 -41.5 11.5t-12.5 29.5q0 32 18 50.5t53 18.5q29 0 42 -12t13 -29q0 -32 -18 -50.5t-54 -18.5z" />
    <glyph glyph-name="ring" unicode="&#x2da;" horiz-adv-x="416" 
d="M230 613q26 0 41.5 13.5t15.5 39.5q0 20 -12.5 35t-35.5 15q-26 0 -41.5 -14t-15.5 -41q0 -20 12.5 -33.5t35.5 -14.5zM230 566q-19 0 -37 5t-32 16t-22.5 27t-8.5 39q0 52 29.5 81t77.5 29q19 0 37.5 -6t32.5 -17.5t22.5 -28.5t8.5 -39q0 -51 -30 -78.5t-78 -27.5z" />
    <glyph glyph-name="ogonek" unicode="&#x2db;" horiz-adv-x="345" 
d="M209 -184q-31 0 -53.5 13t-22.5 45q0 39 27 70.5t63 56.5h78q-11 -7 -27 -18.5t-31 -25t-25.5 -28.5t-10.5 -30q0 -20 26 -20q14 0 24.5 1.5t14.5 1.5q9 0 9 -8q0 -2 -1 -9.5t-2 -12.5l-4 -23q-29 -13 -65 -13z" />
    <glyph glyph-name="tilde" unicode="&#x2dc;" horiz-adv-x="362" 
d="M391 702q9 0 12 -3.5t3 -9.5q0 -24 -8 -44t-21.5 -34.5t-31.5 -22.5t-37 -8q-38 0 -74 31q-10 8 -21.5 18t-26.5 10q-19 0 -26.5 -19t-11.5 -38h-41q-9 0 -12 3.5t-3 9.5q0 25 8.5 45t22 34.5t31.5 22t37 7.5q23 0 40 -9t34 -23q14 -11 24.5 -19.5t21.5 -8.5q18 0 26 17
t13 41h41z" />
    <glyph glyph-name="hungarumlaut" unicode="&#x2dd;" horiz-adv-x="436" 
d="M301 575h-46q-12 0 -12 8q0 5 3 11q16 24 37.5 54.5t41.5 59.5h60q8 0 11 -4t3 -9q0 -12 -15 -28zM147 575h-46q-12 0 -12 8q0 5 3 11q16 24 37.5 54.5t41.5 59.5h60q8 0 11 -4t3 -9q0 -12 -15 -28z" />
    <glyph glyph-name="uni0394" unicode="&#x394;" horiz-adv-x="524" 
d="M57 0q-12 0 -17 5t-5 13q0 10 3 19.5t8 23.5q38 107 112.5 268t195.5 364h89q28 0 34 -31q11 -68 20 -171.5t9 -224.5q0 -74 -2 -140t-6 -126h-441zM397 611q-69 -127 -129.5 -257.5t-110.5 -268.5h247q2 45 5.5 119t3.5 181q0 68 -4 128t-12 98z" />
    <glyph glyph-name="Omega" unicode="&#x3a9;" horiz-adv-x="635" 
d="M581 0h-194q-12 0 -16 4.5t-4 12.5q0 5 1.5 15t3.5 22l7 31q78 63 122 157.5t44 214.5q0 34 -5.5 63t-18.5 49.5t-33.5 32t-51.5 11.5q-47 0 -84.5 -30t-64.5 -78t-41.5 -108t-14.5 -119q0 -23 2.5 -48t7.5 -48.5t13 -45t19 -37.5l7.5 -12t2.5 -10t-3 -19t-4 -18l-8 -40
h-184q-21 0 -21 17q0 8 5 33l7 36h120q-31 40 -49 97t-18 111q0 79 23 153t64.5 131t99 91t126.5 34q53 0 92 -19t64.5 -51.5t38 -76.5t12.5 -94q0 -65 -12 -119t-34 -99.5t-53 -84.5t-70 -73h93q21 0 21 -17q0 -8 -5 -33z" />
    <glyph glyph-name="uni03BC" unicode="&#x3bc;" horiz-adv-x="528" 
d="M118 -170h-71q-19 0 -19 15q0 3 1 9t4 22l129 634h69q15 0 20 -5.5t5 -13.5q0 -5 -2.5 -17t-4.5 -25l-48 -240q-6 -29 -8.5 -46t-2.5 -32q0 -60 67 -60q20 0 38.5 5.5t35 14.5t30 19t22.5 19l77 381h69q15 0 20 -5t5 -13q0 -6 -2.5 -19t-4.5 -24l-48 -241
q-6 -29 -10.5 -62t-8 -63t-5.5 -53t-2 -30h-52q-14 0 -19.5 5t-7.5 18l-5 42q-27 -28 -67 -52t-93 -24q-18 0 -38 6.5t-34 20.5z" />
    <glyph glyph-name="pi" unicode="&#x3c0;" horiz-adv-x="537" 
d="M123 509h465q11 0 15 -4.5t4 -11.5q0 -4 -1 -10.5t-2 -10.5l-9 -41h-55l-88 -431h-70q-15 0 -19.5 5.5t-4.5 13.5q0 5 2 16.5t5 25.5l75 370h-174l-89 -431h-70q-15 0 -19.5 5.5t-4.5 13.5q0 5 2 16.5t5 25.5l75 370h-35q-11 0 -15 4.5t-4 11.5q0 4 1 10.5t2 10.5z" />
    <glyph glyph-name="Wgrave" unicode="&#x1e80;" horiz-adv-x="777" 
d="M289 0h-88q-26 0 -29 25q-8 72 -12 146.5t-4 159.5q0 90 4.5 179t15.5 183h78q20 0 20 -19q0 -6 -0.5 -16.5t-2.5 -20.5q-9 -74 -14.5 -153t-5.5 -183q0 -48 1 -97t3 -101l206 528h54q18 0 25.5 -10.5t7.5 -27.5l4 -60q2 -31 3.5 -69t2.5 -78t1.5 -80t0.5 -74v-31
t-0.5 -23t-0.5 -28v-45q67 155 116 301.5t91 286.5h74q20 0 20 -16q0 -3 -1.5 -8.5t-3.5 -14.5q-16 -56 -41.5 -134t-58.5 -166t-72 -180t-81 -174h-93q-23 0 -23 26q0 38 -0.5 84t-1 103.5t-0.5 128.5v159zM476 745q-14 0 -22 14l-77 124h81q8 0 12.5 -2t9.5 -13
q13 -27 24.5 -57.5t23.5 -65.5h-52z" />
    <glyph glyph-name="wgrave" unicode="&#x1e81;" horiz-adv-x="693" 
d="M497 119q22 43 44.5 92t43 100t38.5 101.5t32 97.5h71q12 0 15.5 -4.5t3.5 -11.5q0 -8 -4 -23t-12 -36q-18 -52 -41.5 -108.5t-49.5 -113t-55.5 -111t-59.5 -102.5h-57q-18 0 -26 8t-10 26l-24 316l-163 -350h-58q-17 0 -25.5 5.5t-13.5 23.5q-20 88 -29 187t-9 209v36
t2 49h69q15 0 20.5 -5.5t5.5 -23.5q0 -8 -0.5 -34t-0.5 -71q0 -21 0.5 -51t2 -65.5t4.5 -74t8 -75.5l164 357h65q23 0 24 -23zM398 693q12 -28 23 -56t25 -62h-48q-13 0 -23 14l-76 119h78q13 0 21 -15z" />
    <glyph glyph-name="Wacute" unicode="&#x1e82;" horiz-adv-x="777" 
d="M289 0h-88q-26 0 -29 25q-8 72 -12 146.5t-4 159.5q0 90 4.5 179t15.5 183h78q20 0 20 -19q0 -6 -0.5 -16.5t-2.5 -20.5q-9 -74 -14.5 -153t-5.5 -183q0 -48 1 -97t3 -101l206 528h54q18 0 25.5 -10.5t7.5 -27.5l4 -60q2 -31 3.5 -69t2.5 -78t1.5 -80t0.5 -74v-31
t-0.5 -23t-0.5 -28v-45q67 155 116 301.5t91 286.5h74q20 0 20 -16q0 -3 -1.5 -8.5t-3.5 -14.5q-16 -56 -41.5 -134t-58.5 -166t-72 -180t-81 -174h-93q-23 0 -23 26q0 38 -0.5 84t-1 103.5t-0.5 128.5v159zM528 745h-51q-12 0 -12 8q0 5 3 11q17 25 39.5 57t45.5 62h69
q5 0 9.5 -3t4.5 -9q0 -5 -2.5 -11t-10.5 -14z" />
    <glyph glyph-name="wacute" unicode="&#x1e83;" horiz-adv-x="693" 
d="M497 119q22 43 44.5 92t43 100t38.5 101.5t32 97.5h71q12 0 15.5 -4.5t3.5 -11.5q0 -8 -4 -23t-12 -36q-18 -52 -41.5 -108.5t-49.5 -113t-55.5 -111t-59.5 -102.5h-57q-18 0 -26 8t-10 26l-24 316l-163 -350h-58q-17 0 -25.5 5.5t-13.5 23.5q-20 88 -29 187t-9 209v36
t2 49h69q15 0 20.5 -5.5t5.5 -23.5q0 -8 -0.5 -34t-0.5 -71q0 -21 0.5 -51t2 -65.5t4.5 -74t8 -75.5l164 357h65q23 0 24 -23zM455 575h-46q-12 0 -12 8q0 5 3 11q16 24 37.5 54.5t41.5 59.5h67q8 0 11 -4t3 -9t-2.5 -10.5t-10.5 -13.5z" />
    <glyph glyph-name="Wdieresis" unicode="&#x1e84;" horiz-adv-x="777" 
d="M289 0h-88q-26 0 -29 25q-8 72 -12 146.5t-4 159.5q0 90 4.5 179t15.5 183h78q20 0 20 -19q0 -6 -0.5 -16.5t-2.5 -20.5q-9 -74 -14.5 -153t-5.5 -183q0 -48 1 -97t3 -101l206 528h54q18 0 25.5 -10.5t7.5 -27.5l4 -60q2 -31 3.5 -69t2.5 -78t1.5 -80t0.5 -74v-31
t-0.5 -23t-0.5 -28v-45q67 155 116 301.5t91 286.5h74q20 0 20 -16q0 -3 -1.5 -8.5t-3.5 -14.5q-16 -56 -41.5 -134t-58.5 -166t-72 -180t-81 -174h-93q-23 0 -23 26q0 38 -0.5 84t-1 103.5t-0.5 128.5v159zM438 759q-27 0 -39.5 11t-12.5 28q0 30 17.5 48.5t51.5 18.5
q27 0 40 -11.5t13 -27.5q0 -30 -17.5 -48.5t-52.5 -18.5zM623 759q-27 0 -39.5 11t-12.5 28q0 30 17.5 48.5t51.5 18.5q27 0 40 -11.5t13 -27.5q0 -30 -17.5 -48.5t-52.5 -18.5z" />
    <glyph glyph-name="wdieresis" unicode="&#x1e85;" horiz-adv-x="693" 
d="M497 119q22 43 44.5 92t43 100t38.5 101.5t32 97.5h71q12 0 15.5 -4.5t3.5 -11.5q0 -8 -4 -23t-12 -36q-18 -52 -41.5 -108.5t-49.5 -113t-55.5 -111t-59.5 -102.5h-57q-18 0 -26 8t-10 26l-24 316l-163 -350h-58q-17 0 -25.5 5.5t-13.5 23.5q-20 88 -29 187t-9 209v36
t2 49h69q15 0 20.5 -5.5t5.5 -23.5q0 -8 -0.5 -34t-0.5 -71q0 -21 0.5 -51t2 -65.5t4.5 -74t8 -75.5l164 357h65q23 0 24 -23zM352 589q-28 0 -40.5 11.5t-12.5 28.5q0 31 17.5 49.5t52.5 18.5q28 0 41 -11.5t13 -28.5q0 -31 -18 -49.5t-53 -18.5zM541 589q-28 0 -40.5 11.5
t-12.5 28.5q0 31 17.5 49.5t52.5 18.5q28 0 41 -11.5t13 -28.5q0 -31 -18 -49.5t-53 -18.5z" />
    <glyph glyph-name="Ygrave" unicode="&#x1ef2;" horiz-adv-x="503" 
d="M605 651q-47 -95 -107.5 -190.5t-148.5 -201.5l-51 -259h-73q-14 0 -19 5t-5 13q0 7 3.5 26t8.5 41l37 182q-22 56 -38 108t-28 104t-20 104.5t-12 109.5h84q14 0 17 -6.5t5 -20.5q3 -30 7.5 -66.5t11.5 -76.5t17 -82.5t24 -85.5q33 42 62.5 86.5t55 88.5t46 85.5
t34.5 77.5h73q23 0 23 -17q0 -11 -7 -25zM385 745q-14 0 -22 14l-77 124h81q8 0 12.5 -2t9.5 -13q13 -27 24.5 -57.5t23.5 -65.5h-52z" />
    <glyph glyph-name="ygrave" unicode="&#x1ef3;" horiz-adv-x="471" 
d="M50 -174q-23 0 -38.5 9.5t-15.5 26.5q0 9 3 26l4 20q5 -1 14.5 -1.5t17.5 -0.5q44 0 80.5 30t78.5 89q-17 37 -31 83.5t-24.5 98t-16.5 107t-6 111.5v36t2 49h72q14 0 19 -6t5 -25v-51q0 -91 9 -172t31 -150q57 91 102.5 191.5t83.5 212.5h70q12 0 15.5 -4.5t3.5 -11.5
q0 -8 -4.5 -22.5t-11.5 -36.5q-13 -39 -36 -91t-52.5 -108.5t-63 -113t-66.5 -103.5q-65 -92 -122 -142.5t-123 -50.5zM319 693q12 -28 23 -56t25 -62h-48q-13 0 -23 14l-76 119h78q13 0 21 -15z" />
    <glyph glyph-name="endash" unicode="&#x2013;" horiz-adv-x="500" 
d="M562 270h-519l17 90h519z" />
    <glyph glyph-name="emdash" unicode="&#x2014;" horiz-adv-x="1000" 
d="M1062 270h-1019l17 90h1019z" />
    <glyph glyph-name="quoteleft" unicode="&#x2018;" horiz-adv-x="206" 
d="M135 514q0 29 14.5 55t33.5 53l51 73h44q15 0 15 -11q0 -8 -11 -22l-54 -82q17 -3 27.5 -13t10.5 -30q0 -33 -19.5 -53t-55.5 -20q-27 0 -41.5 13.5t-14.5 36.5z" />
    <glyph glyph-name="quoteright" unicode="&#x2019;" horiz-adv-x="206" 
d="M290 646q0 -29 -14 -55.5t-34 -52.5l-51 -72h-44q-15 0 -15 10q0 7 11 23l54 81q-17 4 -27.5 14t-10.5 30q0 33 19.5 53t55.5 20q27 0 41.5 -14t14.5 -37z" />
    <glyph glyph-name="quotesinglbase" unicode="&#x201a;" horiz-adv-x="206" 
d="M179 71q0 -29 -14 -55.5t-34 -52.5l-51 -72h-44q-15 0 -15 10q0 7 11 23l54 81q-17 4 -27.5 14t-10.5 30q0 33 19.5 53t55.5 20q27 0 41.5 -14t14.5 -37z" />
    <glyph glyph-name="quotedblleft" unicode="&#x201c;" horiz-adv-x="376" 
d="M305 514q0 29 14.5 55t33.5 53l51 73h44q15 0 15 -11q0 -8 -11 -22l-54 -82q17 -3 27.5 -13t10.5 -30q0 -33 -19.5 -53t-55.5 -20q-27 0 -41.5 13.5t-14.5 36.5zM135 514q0 29 14.5 55t33.5 53l51 73h44q15 0 15 -11q0 -8 -11 -22l-54 -82q17 -3 27.5 -13t10.5 -30
q0 -33 -19.5 -53t-55.5 -20q-27 0 -41.5 13.5t-14.5 36.5z" />
    <glyph glyph-name="quotedblright" unicode="&#x201d;" horiz-adv-x="376" 
d="M460 646q0 -29 -14 -55.5t-34 -52.5l-51 -72h-44q-15 0 -15 10q0 7 11 23l54 81q-17 4 -27.5 14t-10.5 30q0 33 19.5 53t55.5 20q27 0 41.5 -14t14.5 -37zM290 646q0 -29 -14 -55.5t-34 -52.5l-51 -72h-44q-15 0 -15 10q0 7 11 23l54 81q-17 4 -27.5 14t-10.5 30
q0 33 19.5 53t55.5 20q27 0 41.5 -14t14.5 -37z" />
    <glyph glyph-name="quotedblbase" unicode="&#x201e;" horiz-adv-x="376" 
d="M348 71q0 -29 -14 -55.5t-34 -52.5l-51 -72h-44q-15 0 -15 10q0 7 11 23l54 81q-17 4 -27.5 14t-10.5 30q0 33 19.5 53t55.5 20q27 0 41.5 -14t14.5 -37zM179 71q0 -29 -14 -55.5t-34 -52.5l-51 -72h-44q-15 0 -15 10q0 7 11 23l54 81q-17 4 -27.5 14t-10.5 30
q0 33 19.5 53t55.5 20q27 0 41.5 -14t14.5 -37z" />
    <glyph glyph-name="dagger" unicode="&#x2020;" horiz-adv-x="406" 
d="M347 508h112q23 0 23 -18q0 -5 -2.5 -19t-4.5 -25l-5 -24h-139l-65 -327q-8 -38 -20.5 -87.5t-25.5 -90.5h-51q-20 0 -20 18q0 6 2 24.5t5.5 42.5t7.5 49t8 44l65 327h-110q-23 0 -23 18q0 4 1 11.5t3 16.5l8 40h138l38 185h64q14 0 19 -5t5 -14q0 -5 -3 -20l-6 -30z" />
    <glyph glyph-name="daggerdbl" unicode="&#x2021;" horiz-adv-x="471" 
d="M274 422h-110q-23 0 -23 18q0 4 1 11.5t3 16.5l8 40h138l38 185h64q14 0 19 -5t5 -14q0 -5 -3 -20l-6 -30l-24 -116h112q23 0 23 -18q0 -5 -2.5 -19t-4.5 -25l-5 -24h-139l-46 -234h110q23 0 23 -18q0 -4 -1 -11.5t-3 -16.5l-8 -40h-138l-38 -185h-64q-14 0 -19 5t-5 14
q0 5 3 20l6 30l24 116h-112q-23 0 -23 18q0 5 2.5 19t4.5 25l5 24h139z" />
    <glyph glyph-name="bullet" unicode="&#x2022;" horiz-adv-x="383" 
d="M242 213q-57 0 -90 27t-33 78q0 76 43 119t114 43q57 0 91 -26t34 -79q0 -76 -43.5 -119t-115.5 -43z" />
    <glyph glyph-name="ellipsis" unicode="&#x2026;" horiz-adv-x="688" 
d="M107 -6q-28 0 -42.5 14.5t-14.5 37.5q0 38 21 56.5t56 18.5q28 0 42.5 -14t14.5 -36q0 -38 -20.5 -57.5t-56.5 -19.5zM344 -6q-28 0 -42.5 14.5t-14.5 37.5q0 38 21 56.5t56 18.5q28 0 42.5 -14t14.5 -36q0 -38 -20.5 -57.5t-56.5 -19.5zM581 -6q-28 0 -42.5 14.5
t-14.5 37.5q0 38 21 56.5t56 18.5q28 0 42.5 -14t14.5 -36q0 -38 -20.5 -57.5t-56.5 -19.5z" />
    <glyph glyph-name="perthousand" unicode="&#x2030;" horiz-adv-x="1144" 
d="M250 382q22 0 40 16t31 40t19.5 53t6.5 56q0 33 -10.5 53t-37.5 20q-23 0 -40.5 -16t-30.5 -40t-19.5 -53t-6.5 -55q0 -35 10.5 -54.5t37.5 -19.5zM240 314q-51 0 -83.5 35t-32.5 99q0 51 14 94.5t39 76t59 51t75 18.5q50 0 82 -34.5t32 -98.5q0 -51 -13.5 -95
t-38.5 -76.5t-59 -51t-74 -18.5zM624 58q22 0 40 16t31 40t19.5 53t6.5 56q0 33 -10.5 53t-37.5 20q-23 0 -40.5 -16t-30.5 -40t-19.5 -53t-6.5 -55q0 -35 10.5 -54.5t37.5 -19.5zM614 -10q-51 0 -83.5 35t-32.5 99q0 51 14 94.5t39 76t59 51t75 18.5q50 0 82 -34.5
t32 -98.5q0 -51 -13.5 -95t-38.5 -76.5t-59 -51t-74 -18.5zM974 58q22 0 40 16t31 40t19.5 53t6.5 56q0 33 -10.5 53t-37.5 20q-23 0 -40.5 -16t-30.5 -40t-19.5 -53t-6.5 -55q0 -35 10.5 -54.5t37.5 -19.5zM964 -10q-51 0 -83.5 35t-32.5 99q0 51 14 94.5t39 76t59 51
t75 18.5q50 0 82 -34.5t32 -98.5q0 -51 -13.5 -95t-38.5 -76.5t-59 -51t-74 -18.5zM257 0h-53q-19 0 -19 14q0 8 8 19l475 644h53q19 0 19 -14q0 -8 -8 -19z" />
    <glyph glyph-name="guilsinglleft" unicode="&#x2039;" horiz-adv-x="258" 
d="M208 449h67q16 0 16 -13q0 -4 -1.5 -9t-6.5 -13l-108 -160l44 -185h-64q-12 0 -18.5 5.5t-10.5 20.5l-43 166z" />
    <glyph glyph-name="guilsinglright" unicode="&#x203a;" horiz-adv-x="258" 
d="M137 69h-67q-16 0 -16 13q0 4 1.5 9t6.5 13l108 160l-44 185h64q12 0 18.5 -5.5t10.5 -20.5l43 -166z" />
    <glyph glyph-name="fraction" unicode="&#x2044;" horiz-adv-x="350" 
d="M29 0h-53q-19 0 -19 14q0 8 8 19l475 644h53q19 0 19 -14q0 -8 -8 -19z" />
    <glyph glyph-name="zerosuperior" unicode="&#x2070;" 
d="M116 406q0 54 13 104.5t37.5 89t60.5 62t82 23.5q56 0 87.5 -33t31.5 -100q0 -50 -12 -99t-36.5 -89t-61 -64.5t-84.5 -24.5q-56 0 -87 32.5t-31 98.5zM189 403q0 -66 53 -66q26 0 47 20.5t35.5 51.5t22 67.5t7.5 67.5q0 13 -1.5 27t-7 25.5t-15.5 18.5t-28 7
q-27 0 -48 -21.5t-35.5 -54t-22 -71t-7.5 -72.5z" />
    <glyph glyph-name="foursuperior" unicode="&#x2074;" 
d="M293 437l42 173q-20 -16 -43 -39t-44 -47t-38 -47.5t-27 -39.5h110zM395 676q18 0 18 -14q0 -7 -2.5 -20t-4.5 -21l-38 -184h32q15 0 15 -10q0 -7 -1.5 -14.5l-2.5 -12.5l-5 -23h-50l-19 -96h-48q-21 0 -21 17q0 2 0.5 8.5t2.5 14.5l11 56h-164q-16 0 -16 12q0 2 0.5 6.5
t1.5 9.5l4 16q14 28 37.5 62t52.5 68.5t62.5 66.5t67.5 58h67z" />
    <glyph glyph-name="fivesuperior" unicode="&#x2075;" 
d="M258 614l-23 -87q7 1 17 1.5t19 0.5q55 0 89 -26.5t34 -77.5q0 -35 -15 -62.5t-40 -47t-57 -30t-66 -10.5q-18 0 -33.5 2.5t-32.5 7t-29 12t-12 18.5q0 8 6 22l9 20q15 -8 39.5 -14.5t53.5 -6.5q45 0 73.5 23t28.5 61q0 24 -19.5 38t-51.5 14q-26 -1 -42 -4t-34 -4
q-15 0 -15 15q0 4 1.5 10.5t6.5 25.5l41 161h198q21 0 21 -17q0 -5 -1 -13t-6 -32h-160z" />
    <glyph glyph-name="sixsuperior" unicode="&#x2076;" 
d="M415 612q-9 5 -29 10.5t-43 5.5q-46 0 -81 -29t-53 -89q14 14 37.5 23t47.5 9q47 0 80 -31t33 -85q0 -30 -11 -57.5t-31.5 -48t-49 -33t-63.5 -12.5q-58 0 -92.5 38.5t-34.5 103.5q0 61 16.5 110.5t46 84.5t69 54t86.5 19q11 0 25.5 -2.5t28 -7.5t23 -11.5t9.5 -15.5
q0 -4 -2 -9l-4 -10zM335 420q0 24 -14.5 42.5t-43.5 18.5q-21 0 -41 -8.5t-33 -22.5q-4 -16 -5 -27.5t-1 -23.5q0 -10 3 -21.5t10 -21t18.5 -15.5t28.5 -6t31 7t24.5 19t16.5 27.5t6 31.5z" />
    <glyph glyph-name="sevensuperior" unicode="&#x2077;" 
d="M182 676h242q21 0 21 -17q0 -4 -5 -34q-60 -86 -113 -172t-87 -171h-51q-19 0 -19 14q0 8 6 22.5t13 27.5q32 65 75.5 133t91.5 135h-160q-21 0 -21 17q0 5 7 45z" />
    <glyph glyph-name="eightsuperior" unicode="&#x2078;" 
d="M428 587q0 -32 -18 -58.5t-50 -42.5q20 -11 32.5 -31.5t12.5 -46.5q0 -60 -42 -96.5t-113 -36.5q-56 0 -91 27.5t-35 74.5q0 40 21.5 70t60.5 46q-18 12 -27 30.5t-9 36.5q0 27 10 50t28.5 39.5t44 26t56.5 9.5q23 0 44.5 -6t38 -18t26.5 -30.5t10 -43.5zM197 384
q0 -19 14.5 -33.5t43.5 -14.5q37 0 57.5 20.5t20.5 49.5q0 22 -13 37.5t-45 15.5q-37 0 -57.5 -22.5t-20.5 -52.5zM289 518q32 0 50.5 19t18.5 46q0 16 -11.5 29.5t-37.5 13.5q-30 0 -49 -18.5t-19 -44.5q0 -17 11 -31t37 -14z" />
    <glyph glyph-name="ninesuperior" unicode="&#x2079;" 
d="M131 351q12 -6 33.5 -11.5t44.5 -5.5q46 0 82.5 30t51.5 90q-14 -14 -37.5 -23t-47.5 -9q-47 0 -80 30.5t-33 83.5q0 31 10.5 58t30 47.5t47.5 32t63 11.5q58 0 94.5 -38.5t36.5 -103.5q0 -60 -16 -109.5t-44.5 -84.5t-67.5 -54.5t-85 -19.5q-13 0 -29.5 2t-31.5 6.5
t-25.5 12.5t-10.5 19q0 4 2 9l4 10zM217 542q0 -23 14.5 -41t43.5 -18q21 0 41 8.5t33 22.5q6 18 6 41q0 26 -16 48t-48 22q-34 0 -54 -24t-20 -59z" />
    <glyph glyph-name="zeroinferior" unicode="&#x2080;" 
d="M71 126q0 54 13 104.5t37.5 89t60.5 62t82 23.5q56 0 87.5 -33t31.5 -100q0 -50 -12 -99t-36.5 -89t-61 -64.5t-84.5 -24.5q-56 0 -87 32.5t-31 98.5zM144 123q0 -66 53 -66q26 0 47 20.5t35.5 51.5t22 67.5t7.5 67.5q0 13 -1.5 27t-7 25.5t-15.5 18.5t-28 7
q-27 0 -48 -21.5t-35.5 -54t-22 -71t-7.5 -72.5z" />
    <glyph glyph-name="oneinferior" unicode="&#x2081;" 
d="M253 321q-16 -5 -33 -11t-32 -11.5t-26 -9t-14 -3.5q-12 0 -12 13q0 5 3 19l5 27q26 11 53 22t51 19.5t42.5 13.5t27.5 5q23 0 23 -20q0 -5 -4 -22l-73 -362h-51q-20 0 -20 17q0 7 2.5 20t4.5 24z" />
    <glyph glyph-name="twoinferior" unicode="&#x2082;" 
d="M213 207q47 29 73 49.5t26 48.5q0 20 -15.5 29.5t-42.5 9.5q-21 0 -37.5 -4t-29.5 -8.5t-22.5 -8t-15.5 -3.5q-11 0 -11 12q0 2 0.5 7t1.5 12l4 21q17 11 48.5 22t72.5 11q25 0 47.5 -5.5t39 -17t26 -29t9.5 -41.5q0 -26 -11.5 -47t-30 -39t-41.5 -33.5t-45 -28.5
q-37 -23 -65.5 -46.5t-40.5 -54.5h168q21 0 21 -17q0 -9 -5 -29l-4 -16h-252q-11 0 -14.5 6t-3.5 13q0 2 0.5 7t3.5 13q14 42 46 83.5t100 83.5z" />
    <glyph glyph-name="threeinferior" unicode="&#x2083;" 
d="M181 176q-11 0 -14.5 3t-3.5 11q0 2 0.5 8t2.5 14l4 22h48q24 0 41 6t28 15.5t16 21t5 22.5q0 21 -16.5 33.5t-45.5 12.5q-40 0 -64.5 -10t-35.5 -10q-10 0 -10 10q0 2 0.5 7.5t2.5 9.5l5 25q20 11 48.5 19t63.5 8q56 0 90.5 -24.5t34.5 -72.5q0 -34 -22 -61t-60 -43
q25 -10 40 -28.5t15 -46.5q0 -31 -13.5 -55.5t-36 -42t-52 -26.5t-60.5 -9q-21 0 -42 2.5t-37.5 7.5t-27 12t-10.5 15q0 6 1.5 10t3.5 12l8 23q20 -9 44 -14.5t54 -5.5q42 0 67.5 20t25.5 54q0 23 -18 34t-48 11h-32z" />
    <glyph glyph-name="fourinferior" unicode="&#x2084;" 
d="M248 156l42 173q-20 -16 -43 -39t-44 -47t-38 -47.5t-27 -39.5h110zM350 395q18 0 18 -14q0 -7 -2.5 -20t-4.5 -21l-38 -184h32q15 0 15 -10q0 -7 -1.5 -14.5l-2.5 -12.5l-5 -23h-50l-19 -96h-48q-21 0 -21 17q0 2 0.5 8.5t2.5 14.5l11 56h-164q-16 0 -16 12q0 2 0.5 6.5
t1.5 9.5l4 16q14 28 37.5 62t52.5 68.5t62.5 66.5t67.5 58h67z" />
    <glyph glyph-name="fiveinferior" unicode="&#x2085;" 
d="M213 333l-23 -87q7 1 17 1.5t19 0.5q55 0 89 -26.5t34 -77.5q0 -35 -15 -62.5t-40 -47t-57 -30t-66 -10.5q-18 0 -33.5 2.5t-32.5 7t-29 12t-12 18.5q0 8 6 22l9 20q15 -8 39.5 -14.5t53.5 -6.5q45 0 73.5 23t28.5 61q0 24 -19.5 38t-51.5 14q-26 -1 -42 -4t-34 -4
q-15 0 -15 15q0 4 1.5 10.5t6.5 25.5l41 161h198q21 0 21 -17q0 -5 -1 -13t-6 -32h-160z" />
    <glyph glyph-name="sixinferior" unicode="&#x2086;" 
d="M370 335q-9 5 -29 10.5t-43 5.5q-46 0 -81 -29t-53 -89q14 14 37.5 23t47.5 9q47 0 80 -31t33 -85q0 -30 -11 -57.5t-31.5 -48t-49 -33t-63.5 -12.5q-58 0 -92.5 38.5t-34.5 103.5q0 61 16.5 110.5t46 84.5t69 54t86.5 19q11 0 25.5 -2.5t28 -7.5t23 -11.5t9.5 -15.5
q0 -4 -2 -9l-4 -10zM290 143q0 24 -14.5 42.5t-43.5 18.5q-21 0 -41 -8.5t-33 -22.5q-4 -16 -5 -27.5t-1 -23.5q0 -10 3 -21.5t10 -21t18.5 -15.5t28.5 -6t31 7t24.5 19t16.5 27.5t6 31.5z" />
    <glyph glyph-name="seveninferior" unicode="&#x2087;" 
d="M137 395h242q21 0 21 -17q0 -4 -5 -34q-60 -86 -113 -172t-87 -171h-51q-19 0 -19 14q0 8 6 22.5t13 27.5q32 65 75.5 133t91.5 135h-160q-21 0 -21 17q0 5 7 45z" />
    <glyph glyph-name="eightinferior" unicode="&#x2088;" 
d="M383 310q0 -32 -18 -58.5t-50 -42.5q20 -11 32.5 -31.5t12.5 -46.5q0 -60 -42 -96.5t-113 -36.5q-56 0 -91 27.5t-35 74.5q0 40 21.5 70t60.5 46q-18 12 -27 30.5t-9 36.5q0 27 10 50t28.5 39.5t44 26t56.5 9.5q23 0 44.5 -6t38 -18t26.5 -30.5t10 -43.5zM152 107
q0 -19 14.5 -33.5t43.5 -14.5q37 0 57.5 20.5t20.5 49.5q0 22 -13 37.5t-45 15.5q-37 0 -57.5 -22.5t-20.5 -52.5zM244 241q32 0 50.5 19t18.5 46q0 16 -11.5 29.5t-37.5 13.5q-30 0 -49 -18.5t-19 -44.5q0 -17 11 -31t37 -14z" />
    <glyph glyph-name="nineinferior" unicode="&#x2089;" 
d="M86 70q12 -6 33.5 -11.5t44.5 -5.5q46 0 82.5 30t51.5 90q-14 -14 -37.5 -23t-47.5 -9q-47 0 -80 30.5t-33 83.5q0 31 10.5 58t30 47.5t47.5 32t63 11.5q58 0 94.5 -38.5t36.5 -103.5q0 -60 -16 -109.5t-44.5 -84.5t-67.5 -54.5t-85 -19.5q-13 0 -29.5 2t-31.5 6.5
t-25.5 12.5t-10.5 19q0 4 2 9l4 10zM172 261q0 -23 14.5 -41t43.5 -18q21 0 41 8.5t33 22.5q6 18 6 41q0 26 -16 48t-48 22q-34 0 -54 -24t-20 -59z" />
    <glyph glyph-name="Euro" unicode="&#x20ac;" horiz-adv-x="536" 
d="M467 233h-200q1 -82 25.5 -117.5t87.5 -35.5q27 0 49.5 6t44.5 15q7 3 14 5.5t12 2.5q9 0 13 -8.5t9 -22.5l14 -40q-24 -15 -69 -32t-105 -17q-53 0 -91 16t-62.5 45.5t-36 71.5t-11.5 94v8.5t1 8.5h-43q-23 0 -23 18q0 7 10 49h60q6 45 18 89h-40q-23 0 -23 18
q0 4 2 13.5t8 35.5h75q21 51 50.5 94.5t67 75.5t83.5 50t99 18q22 0 45.5 -3.5t42 -10t30.5 -15.5t12 -19q0 -12 -7 -31l-13 -32q-13 6 -41.5 13.5t-60.5 7.5q-35 0 -64 -11.5t-53.5 -31.5t-44 -47t-34.5 -58h161q23 0 23 -18q0 -5 -1.5 -13.5t-7.5 -35.5h-204
q-12 -44 -18 -89h183q22 0 22 -18q0 -4 -1 -11.5t-8 -37.5z" />
    <glyph glyph-name="uni20B9" unicode="&#x20b9;" horiz-adv-x="536" 
d="M569 434h-87q-17 -69 -73 -114t-145 -57q22 -24 47.5 -58t49.5 -70t44 -71.5t30 -63.5h-83q-14 0 -21.5 5.5t-14.5 16.5q-29 51 -70 112t-89 115q-8 9 -10.5 15t-2.5 16q0 3 0.5 8t1.5 12l3 25h52q28 0 56.5 6t53 18.5t42 33.5t25.5 51h-208q-23 0 -23 18q0 4 1.5 12
t3.5 16l5 21h235q0 58 -30 83.5t-87 25.5h-73q-23 0 -23 18q0 4 1.5 12t3.5 16l5 21h396q23 0 23 -18q0 -5 -1.5 -13.5t-3.5 -15.5l-4 -20h-154q23 -20 33 -49t11 -60h66q23 0 23 -18q0 -5 -1.5 -13.5t-3.5 -15.5z" />
    <glyph glyph-name="afii61289" unicode="&#x2113;" horiz-adv-x="433" 
d="M367 544q0 63 -14 85t-43 22q-26 0 -40.5 -18t-14.5 -70v-243q34 19 56 43.5t34.5 53t17 60.5t4.5 67zM121 187q-10 -5 -17.5 -1.5t-7.5 15.5v50l69 35v247q0 92 32 144t110 52q42 0 68.5 -15t41.5 -40.5t20.5 -59.5t5.5 -72q0 -57 -11 -101t-33.5 -79t-58.5 -64.5
t-85 -56.5v-50q0 -33 4 -55.5t13.5 -36.5t25.5 -20t41 -6q26 0 45.5 4t31.5 4q13 0 17 -6.5t4 -16.5v-45q-22 -8 -52 -15t-65 -7q-44 0 -73.5 12t-47.5 38.5t-26 67.5t-8 99z" />
    <glyph glyph-name="trademark" unicode="&#x2122;" horiz-adv-x="700" 
d="M527 693q11 0 15 -5.5t6 -16.5l24 -189l113 211h59q7 0 12.5 -2.5t5.5 -11.5q0 -14 -13.5 -103.5t-43.5 -254.5h-41q-14 0 -18 5t-4 12q0 4 1 11t2 12q11 60 23.5 125t22.5 120l-107 -192h-36q-10 0 -13.5 4t-4.5 12l-26 176l-61 -285h-43q-13 0 -16.5 5t-3.5 12
q0 6 5 29q10 46 18.5 84t18 75.5t20 77t23.5 89.5h62zM163 693h226q23 0 23 -18q0 -3 -0.5 -9t-2.5 -13l-4 -21h-92l-64 -311h-40q-15 0 -19 5t-4 13q0 7 4 26t9 43l45 224h-66q-22 0 -22 16q0 8 3 25z" />
    <glyph glyph-name="uni2126" unicode="&#x2126;" horiz-adv-x="635" 
d="M581 0h-194q-12 0 -16 4.5t-4 12.5q0 5 1.5 15t3.5 22l7 31q78 63 122 157.5t44 214.5q0 34 -5.5 63t-18.5 49.5t-33.5 32t-51.5 11.5q-47 0 -84.5 -30t-64.5 -78t-41.5 -108t-14.5 -119q0 -23 2.5 -48t7.5 -48.5t13 -45t19 -37.5l7.5 -12t2.5 -10t-3 -19t-4 -18l-8 -40
h-184q-21 0 -21 17q0 8 5 33l7 36h120q-31 40 -49 97t-18 111q0 79 23 153t64.5 131t99 91t126.5 34q53 0 92 -19t64.5 -51.5t38 -76.5t12.5 -94q0 -65 -12 -119t-34 -99.5t-53 -84.5t-70 -73h93q21 0 21 -17q0 -8 -5 -33z" />
    <glyph glyph-name="estimated" unicode="&#x212e;" horiz-adv-x="621" 
d="M225 262v-181q59 -59 145 -59q63 0 109 28.5t84 91.5l35 -21q-23 -36 -46.5 -61.5t-51 -42t-59.5 -24t-71 -7.5q-59 0 -106.5 21.5t-81.5 59t-52 87.5t-18 108t18 108.5t52 87.5t81.5 58.5t106.5 21.5q58 0 105.5 -20.5t81.5 -57t53 -87t19 -111.5h-404zM516 298v145
q-63 60 -147 60t-144 -60v-145h291z" />
    <glyph glyph-name="onethird" unicode="&#x2153;" horiz-adv-x="901" 
d="M274 0h-53q-19 0 -19 14q0 8 8 19l475 644h53q19 0 19 -14q0 -8 -8 -19zM280 601q-16 -5 -33 -11t-32 -11.5t-26 -9t-14 -3.5q-12 0 -12 13q0 5 3 19l5 27q26 11 53 22t51 19.5t42.5 13.5t27.5 5q23 0 23 -20q0 -5 -4 -22l-73 -362h-51q-20 0 -20 17q0 7 2.5 20t4.5 24z
M671 179q-11 0 -14.5 3t-3.5 11q0 2 0.5 8t2.5 14l4 22h48q24 0 41 6t28 15.5t16 21t5 22.5q0 21 -16.5 33.5t-45.5 12.5q-40 0 -64.5 -10t-35.5 -10q-10 0 -10 10q0 2 0.5 7.5t2.5 9.5l5 25q20 11 48.5 19t63.5 8q56 0 90.5 -24.5t34.5 -72.5q0 -34 -22 -61t-60 -43
q25 -10 40 -28.5t15 -46.5q0 -31 -13.5 -55.5t-36 -42t-52 -26.5t-60.5 -9q-21 0 -42 2.5t-37.5 7.5t-27 12t-10.5 15q0 6 1.5 10t3.5 12l8 23q20 -9 44 -14.5t54 -5.5q42 0 67.5 20t25.5 54q0 23 -18 34t-48 11h-32z" />
    <glyph glyph-name="twothirds" unicode="&#x2154;" horiz-adv-x="901" 
d="M332 0h-53q-19 0 -19 14q0 8 8 19l475 644h53q19 0 19 -14q0 -8 -8 -19zM262 487q47 29 73 49.5t26 48.5q0 20 -15.5 29.5t-42.5 9.5q-21 0 -37.5 -4t-29.5 -8.5t-22.5 -8t-15.5 -3.5q-11 0 -11 12q0 2 0.5 7t1.5 12l4 21q17 11 48.5 22t72.5 11q25 0 47.5 -5.5t39 -17
t26 -29t9.5 -41.5q0 -26 -11.5 -47t-30 -39t-41.5 -33.5t-45 -28.5q-37 -23 -65.5 -46.5t-40.5 -54.5h168q21 0 21 -17q0 -9 -5 -29l-4 -16h-252q-11 0 -14.5 6t-3.5 13q0 2 0.5 7t3.5 13q14 42 46 83.5t100 83.5zM709 179q-11 0 -14.5 3t-3.5 11q0 2 0.5 8t2.5 14l4 22h48
q24 0 41 6t28 15.5t16 21t5 22.5q0 21 -16.5 33.5t-45.5 12.5q-40 0 -64.5 -10t-35.5 -10q-10 0 -10 10q0 2 0.5 7.5t2.5 9.5l5 25q20 11 48.5 19t63.5 8q56 0 90.5 -24.5t34.5 -72.5q0 -34 -22 -61t-60 -43q25 -10 40 -28.5t15 -46.5q0 -31 -13.5 -55.5t-36 -42t-52 -26.5
t-60.5 -9q-21 0 -42 2.5t-37.5 7.5t-27 12t-10.5 15q0 6 1.5 10t3.5 12l8 23q20 -9 44 -14.5t54 -5.5q42 0 67.5 20t25.5 54q0 23 -18 34t-48 11h-32z" />
    <glyph glyph-name="onefifth" unicode="&#x2155;" horiz-adv-x="901" 
d="M279 0h-53q-19 0 -19 14q0 8 8 19l475 644h53q19 0 19 -14q0 -8 -8 -19zM286 601q-16 -5 -33 -11t-32 -11.5t-26 -9t-14 -3.5q-12 0 -12 13q0 5 3 19l5 27q26 11 53 22t51 19.5t42.5 13.5t27.5 5q23 0 23 -20q0 -5 -4 -22l-73 -362h-51q-20 0 -20 17q0 7 2.5 20t4.5 24z
M709 337l-23 -87q7 1 17 1.5t19 0.5q55 0 89 -26.5t34 -77.5q0 -35 -15 -62.5t-40 -47t-57 -30t-66 -10.5q-18 0 -33.5 2.5t-32.5 7t-29 12t-12 18.5q0 8 6 22l9 20q15 -8 39.5 -14.5t53.5 -6.5q45 0 73.5 23t28.5 61q0 24 -19.5 38t-51.5 14q-26 -1 -42 -4t-34 -4
q-15 0 -15 15q0 4 1.5 10.5t6.5 25.5l41 161h198q21 0 21 -17q0 -5 -1 -13t-6 -32h-160z" />
    <glyph glyph-name="twofifths" unicode="&#x2156;" horiz-adv-x="901" 
d="M345 0h-53q-19 0 -19 14q0 8 8 19l475 644h53q19 0 19 -14q0 -8 -8 -19zM262 487q47 29 73 49.5t26 48.5q0 20 -15.5 29.5t-42.5 9.5q-21 0 -37.5 -4t-29.5 -8.5t-22.5 -8t-15.5 -3.5q-11 0 -11 12q0 2 0.5 7t1.5 12l4 21q17 11 48.5 22t72.5 11q25 0 47.5 -5.5t39 -17
t26 -29t9.5 -41.5q0 -26 -11.5 -47t-30 -39t-41.5 -33.5t-45 -28.5q-37 -23 -65.5 -46.5t-40.5 -54.5h168q21 0 21 -17q0 -9 -5 -29l-4 -16h-252q-11 0 -14.5 6t-3.5 13q0 2 0.5 7t3.5 13q14 42 46 83.5t100 83.5zM752 337l-23 -87q7 1 17 1.5t19 0.5q55 0 89 -26.5
t34 -77.5q0 -35 -15 -62.5t-40 -47t-57 -30t-66 -10.5q-18 0 -33.5 2.5t-32.5 7t-29 12t-12 18.5q0 8 6 22l9 20q15 -8 39.5 -14.5t53.5 -6.5q45 0 73.5 23t28.5 61q0 24 -19.5 38t-51.5 14q-26 -1 -42 -4t-34 -4q-15 0 -15 15q0 4 1.5 10.5t6.5 25.5l41 161h198
q21 0 21 -17q0 -5 -1 -13t-6 -32h-160z" />
    <glyph glyph-name="threefifths" unicode="&#x2157;" horiz-adv-x="901" 
d="M308 0h-53q-19 0 -19 14q0 8 8 19l475 644h53q19 0 19 -14q0 -8 -8 -19zM725 337l-23 -87q7 1 17 1.5t19 0.5q55 0 89 -26.5t34 -77.5q0 -35 -15 -62.5t-40 -47t-57 -30t-66 -10.5q-18 0 -33.5 2.5t-32.5 7t-29 12t-12 18.5q0 8 6 22l9 20q15 -8 39.5 -14.5t53.5 -6.5
q45 0 73.5 23t28.5 61q0 24 -19.5 38t-51.5 14q-26 -1 -42 -4t-34 -4q-15 0 -15 15q0 4 1.5 10.5t6.5 25.5l41 161h198q21 0 21 -17q0 -5 -1 -13t-6 -32h-160zM229 456q-11 0 -14.5 3t-3.5 11q0 2 0.5 8t2.5 14l4 22h48q24 0 41 6t28 15.5t16 21t5 22.5q0 21 -16.5 33.5
t-45.5 12.5q-40 0 -64.5 -10t-35.5 -10q-10 0 -10 10q0 2 0.5 7.5t2.5 9.5l5 25q20 11 48.5 19t63.5 8q56 0 90.5 -24.5t34.5 -72.5q0 -34 -22 -61t-60 -43q25 -10 40 -28.5t15 -46.5q0 -31 -13.5 -55.5t-36 -42t-52 -26.5t-60.5 -9q-21 0 -42 2.5t-37.5 7.5t-27 12
t-10.5 15q0 6 1.5 10t3.5 12l8 23q20 -9 44 -14.5t54 -5.5q42 0 67.5 20t25.5 54q0 23 -18 34t-48 11h-32z" />
    <glyph glyph-name="fourfifths" unicode="&#x2158;" horiz-adv-x="901" 
d="M333 0h-53q-19 0 -19 14q0 8 8 19l475 644h53q19 0 19 -14q0 -8 -8 -19zM745 337l-23 -87q7 1 17 1.5t19 0.5q55 0 89 -26.5t34 -77.5q0 -35 -15 -62.5t-40 -47t-57 -30t-66 -10.5q-18 0 -33.5 2.5t-32.5 7t-29 12t-12 18.5q0 8 6 22l9 20q15 -8 39.5 -14.5t53.5 -6.5
q45 0 73.5 23t28.5 61q0 24 -19.5 38t-51.5 14q-26 -1 -42 -4t-34 -4q-15 0 -15 15q0 4 1.5 10.5t6.5 25.5l41 161h198q21 0 21 -17q0 -5 -1 -13t-6 -32h-160zM304 437l42 173q-20 -16 -43 -39t-44 -47t-38 -47.5t-27 -39.5h110zM406 676q18 0 18 -14q0 -7 -2.5 -20
t-4.5 -21l-38 -184h32q15 0 15 -10q0 -7 -1.5 -14.5l-2.5 -12.5l-5 -23h-50l-19 -96h-48q-21 0 -21 17q0 2 0.5 8.5t2.5 14.5l11 56h-164q-16 0 -16 12q0 2 0.5 6.5t1.5 9.5l4 16q14 28 37.5 62t52.5 68.5t62.5 66.5t67.5 58h67z" />
    <glyph glyph-name="onesixth" unicode="&#x2159;" horiz-adv-x="901" 
d="M282 0h-53q-19 0 -19 14q0 8 8 19l475 644h53q19 0 19 -14q0 -8 -8 -19zM285 601q-16 -5 -33 -11t-32 -11.5t-26 -9t-14 -3.5q-12 0 -12 13q0 5 3 19l5 27q26 11 53 22t51 19.5t42.5 13.5t27.5 5q23 0 23 -20q0 -5 -4 -22l-73 -362h-51q-20 0 -20 17q0 7 2.5 20t4.5 24z
M857 332q-9 5 -29 10.5t-43 5.5q-46 0 -81 -29t-53 -89q14 14 37.5 23t47.5 9q47 0 80 -31t33 -85q0 -30 -11 -57.5t-31.5 -48t-49 -33t-63.5 -12.5q-58 0 -92.5 38.5t-34.5 103.5q0 61 16.5 110.5t46 84.5t69 54t86.5 19q11 0 25.5 -2.5t28 -7.5t23 -11.5t9.5 -15.5
q0 -4 -2 -9l-4 -10zM777 140q0 24 -14.5 42.5t-43.5 18.5q-21 0 -41 -8.5t-33 -22.5q-4 -16 -5 -27.5t-1 -23.5q0 -10 3 -21.5t10 -21t18.5 -15.5t28.5 -6t31 7t24.5 19t16.5 27.5t6 31.5z" />
    <glyph glyph-name="fivesixths" unicode="&#x215a;" horiz-adv-x="901" 
d="M317 0h-53q-19 0 -19 14q0 8 8 19l475 644h53q19 0 19 -14q0 -8 -8 -19zM875 332q-9 5 -29 10.5t-43 5.5q-46 0 -81 -29t-53 -89q14 14 37.5 23t47.5 9q47 0 80 -31t33 -85q0 -30 -11 -57.5t-31.5 -48t-49 -33t-63.5 -12.5q-58 0 -92.5 38.5t-34.5 103.5q0 61 16.5 110.5
t46 84.5t69 54t86.5 19q11 0 25.5 -2.5t28 -7.5t23 -11.5t9.5 -15.5q0 -4 -2 -9l-4 -10zM795 140q0 24 -14.5 42.5t-43.5 18.5q-21 0 -41 -8.5t-33 -22.5q-4 -16 -5 -27.5t-1 -23.5q0 -10 3 -21.5t10 -21t18.5 -15.5t28.5 -6t31 7t24.5 19t16.5 27.5t6 31.5zM272 614
l-23 -87q7 1 17 1.5t19 0.5q55 0 89 -26.5t34 -77.5q0 -35 -15 -62.5t-40 -47t-57 -30t-66 -10.5q-18 0 -33.5 2.5t-32.5 7t-29 12t-12 18.5q0 8 6 22l9 20q15 -8 39.5 -14.5t53.5 -6.5q45 0 73.5 23t28.5 61q0 24 -19.5 38t-51.5 14q-26 -1 -42 -4t-34 -4q-15 0 -15 15
q0 4 1.5 10.5t6.5 25.5l41 161h198q21 0 21 -17q0 -5 -1 -13t-6 -32h-160z" />
    <glyph glyph-name="oneeighth" unicode="&#x215b;" horiz-adv-x="901" 
d="M270 0h-53q-19 0 -19 14q0 8 8 19l475 644h53q19 0 19 -14q0 -8 -8 -19zM278 601q-16 -5 -33 -11t-32 -11.5t-26 -9t-14 -3.5q-12 0 -12 13q0 5 3 19l5 27q26 11 53 22t51 19.5t42.5 13.5t27.5 5q23 0 23 -20q0 -5 -4 -22l-73 -362h-51q-20 0 -20 17q0 7 2.5 20t4.5 24z
M863 310q0 -32 -18 -58.5t-50 -42.5q20 -11 32.5 -31.5t12.5 -46.5q0 -60 -42 -96.5t-113 -36.5q-56 0 -91 27.5t-35 74.5q0 40 21.5 70t60.5 46q-18 12 -27 30.5t-9 36.5q0 27 10 50t28.5 39.5t44 26t56.5 9.5q23 0 44.5 -6t38 -18t26.5 -30.5t10 -43.5zM632 107
q0 -19 14.5 -33.5t43.5 -14.5q37 0 57.5 20.5t20.5 49.5q0 22 -13 37.5t-45 15.5q-37 0 -57.5 -22.5t-20.5 -52.5zM724 241q32 0 50.5 19t18.5 46q0 16 -11.5 29.5t-37.5 13.5q-30 0 -49 -18.5t-19 -44.5q0 -17 11 -31t37 -14z" />
    <glyph glyph-name="threeeighths" unicode="&#x215c;" horiz-adv-x="901" 
d="M303 0h-53q-19 0 -19 14q0 8 8 19l475 644h53q19 0 19 -14q0 -8 -8 -19zM881 310q0 -32 -18 -58.5t-50 -42.5q20 -11 32.5 -31.5t12.5 -46.5q0 -60 -42 -96.5t-113 -36.5q-56 0 -91 27.5t-35 74.5q0 40 21.5 70t60.5 46q-18 12 -27 30.5t-9 36.5q0 27 10 50t28.5 39.5
t44 26t56.5 9.5q23 0 44.5 -6t38 -18t26.5 -30.5t10 -43.5zM650 107q0 -19 14.5 -33.5t43.5 -14.5q37 0 57.5 20.5t20.5 49.5q0 22 -13 37.5t-45 15.5q-37 0 -57.5 -22.5t-20.5 -52.5zM742 241q32 0 50.5 19t18.5 46q0 16 -11.5 29.5t-37.5 13.5q-30 0 -49 -18.5t-19 -44.5
q0 -17 11 -31t37 -14zM225 456q-11 0 -14.5 3t-3.5 11q0 2 0.5 8t2.5 14l4 22h48q24 0 41 6t28 15.5t16 21t5 22.5q0 21 -16.5 33.5t-45.5 12.5q-40 0 -64.5 -10t-35.5 -10q-10 0 -10 10q0 2 0.5 7.5t2.5 9.5l5 25q20 11 48.5 19t63.5 8q56 0 90.5 -24.5t34.5 -72.5
q0 -34 -22 -61t-60 -43q25 -10 40 -28.5t15 -46.5q0 -31 -13.5 -55.5t-36 -42t-52 -26.5t-60.5 -9q-21 0 -42 2.5t-37.5 7.5t-27 12t-10.5 15q0 6 1.5 10t3.5 12l8 23q20 -9 44 -14.5t54 -5.5q42 0 67.5 20t25.5 54q0 23 -18 34t-48 11h-32z" />
    <glyph glyph-name="fiveeighths" unicode="&#x215d;" horiz-adv-x="901" 
d="M314 0h-53q-19 0 -19 14q0 8 8 19l475 644h53q19 0 19 -14q0 -8 -8 -19zM271 614l-23 -87q7 1 17 1.5t19 0.5q55 0 89 -26.5t34 -77.5q0 -35 -15 -62.5t-40 -47t-57 -30t-66 -10.5q-18 0 -33.5 2.5t-32.5 7t-29 12t-12 18.5q0 8 6 22l9 20q15 -8 39.5 -14.5t53.5 -6.5
q45 0 73.5 23t28.5 61q0 24 -19.5 38t-51.5 14q-26 -1 -42 -4t-34 -4q-15 0 -15 15q0 4 1.5 10.5t6.5 25.5l41 161h198q21 0 21 -17q0 -5 -1 -13t-6 -32h-160zM889 310q0 -32 -18 -58.5t-50 -42.5q20 -11 32.5 -31.5t12.5 -46.5q0 -60 -42 -96.5t-113 -36.5q-56 0 -91 27.5
t-35 74.5q0 40 21.5 70t60.5 46q-18 12 -27 30.5t-9 36.5q0 27 10 50t28.5 39.5t44 26t56.5 9.5q23 0 44.5 -6t38 -18t26.5 -30.5t10 -43.5zM658 107q0 -19 14.5 -33.5t43.5 -14.5q37 0 57.5 20.5t20.5 49.5q0 22 -13 37.5t-45 15.5q-37 0 -57.5 -22.5t-20.5 -52.5zM750 241
q32 0 50.5 19t18.5 46q0 16 -11.5 29.5t-37.5 13.5q-30 0 -49 -18.5t-19 -44.5q0 -17 11 -31t37 -14z" />
    <glyph glyph-name="seveneighths" unicode="&#x215e;" horiz-adv-x="901" 
d="M272 0h-53q-19 0 -19 14q0 8 8 19l475 644h53q19 0 19 -14q0 -8 -8 -19zM871 310q0 -32 -18 -58.5t-50 -42.5q20 -11 32.5 -31.5t12.5 -46.5q0 -60 -42 -96.5t-113 -36.5q-56 0 -91 27.5t-35 74.5q0 40 21.5 70t60.5 46q-18 12 -27 30.5t-9 36.5q0 27 10 50t28.5 39.5
t44 26t56.5 9.5q23 0 44.5 -6t38 -18t26.5 -30.5t10 -43.5zM640 107q0 -19 14.5 -33.5t43.5 -14.5q37 0 57.5 20.5t20.5 49.5q0 22 -13 37.5t-45 15.5q-37 0 -57.5 -22.5t-20.5 -52.5zM732 241q32 0 50.5 19t18.5 46q0 16 -11.5 29.5t-37.5 13.5q-30 0 -49 -18.5t-19 -44.5
q0 -17 11 -31t37 -14zM188 676h242q21 0 21 -17q0 -4 -5 -34q-60 -86 -113 -172t-87 -171h-51q-19 0 -19 14q0 8 6 22.5t13 27.5q32 65 75.5 133t91.5 135h-160q-21 0 -21 17q0 5 7 45z" />
    <glyph glyph-name="partialdiff" unicode="&#x2202;" horiz-adv-x="530" 
d="M341 386q-44 0 -75.5 -19.5t-51.5 -50.5t-29.5 -70t-9.5 -77q0 -20 4.5 -38t14 -31.5t25 -21.5t37.5 -8q39 0 70 25t55 65.5t40 92t25 104.5q-20 13 -48.5 21t-56.5 8zM462 481q0 64 -30 101.5t-105 37.5q-38 0 -61.5 -6t-35.5 -6q-14 0 -14 13q0 7 3 25l5 30
q25 11 58.5 18.5t75.5 7.5q51 0 88.5 -18t62.5 -50.5t37.5 -77.5t12.5 -99q0 -80 -19 -163.5t-57 -151.5t-96 -111.5t-136 -43.5q-43 0 -75.5 14t-54.5 38t-33 56.5t-11 68.5q0 54 16.5 107.5t49 97t81 70.5t111.5 27q37 0 69 -8.5t54 -22.5q2 11 3 24t1 22z" />
    <glyph glyph-name="Delta" unicode="&#x2206;" horiz-adv-x="524" 
d="M57 0q-12 0 -17 5t-5 13q0 10 3 19.5t8 23.5q38 107 112.5 268t195.5 364h89q28 0 34 -31q11 -68 20 -171.5t9 -224.5q0 -74 -2 -140t-6 -126h-441zM397 611q-69 -127 -129.5 -257.5t-110.5 -268.5h247q2 45 5.5 119t3.5 181q0 68 -4 128t-12 98z" />
    <glyph glyph-name="product" unicode="&#x220f;" horiz-adv-x="610" 
d="M226 693h418q16 0 20.5 -5t4.5 -13q0 -5 -2 -17t-5 -26l-147 -728h-69q-16 0 -20.5 5t-4.5 13q0 5 2 17t5 26l130 645h-250l-142 -706h-69q-16 0 -20.5 5t-4.5 13q0 5 2 17t5 26z" />
    <glyph glyph-name="summation" unicode="&#x2211;" horiz-adv-x="471" 
d="M432 -96h-395q-23 0 -23 18q0 4 10 66q59 87 123.5 170.5t124.5 155.5l-114 276l-5 12.5t-3 17.5q0 11 3 24.5l5 22.5l6 26h387q22 0 22 -18q0 -4 -1 -12.5t-11 -56.5h-309l125 -303q-72 -85 -133 -162t-112 -150h290q22 0 22 -18q0 -8 -12 -69z" />
    <glyph glyph-name="minus" unicode="&#x2212;" horiz-adv-x="536" 
d="M147 384h368q11 0 15 -4.5t4 -11.5q0 -4 -1 -10.5t-2 -10.5l-10 -47h-368q-11 0 -15 4.5t-4 11.5q0 4 1 10.5t2 10.5z" />
    <glyph glyph-name="uni2215" unicode="&#x2215;" horiz-adv-x="350" 
d="M29 0h-53q-19 0 -19 14q0 8 8 19l475 644h53q19 0 19 -14q0 -8 -8 -19z" />
    <glyph glyph-name="uni2219" unicode="&#x2219;" horiz-adv-x="214" 
d="M167 276q-28 0 -42.5 14.5t-14.5 37.5q0 38 21 56.5t56 18.5q28 0 42.5 -14t14.5 -36q0 -38 -20.5 -57.5t-56.5 -19.5z" />
    <glyph glyph-name="radical" unicode="&#x221a;" horiz-adv-x="542" 
d="M109 393l112 31l16 4t9 1q17 0 20 -20l30 -281l298 640h73q16 0 16 -13q0 -4 -2.5 -11t-6.5 -15l-340 -729h-82q-14 0 -19.5 6t-6.5 19l-42 311l-33 -9q-11 -3 -18.5 -5t-12.5 -2t-8 3t-3 12v58z" />
    <glyph glyph-name="infinity" unicode="&#x221e;" horiz-adv-x="568" 
d="M330 263q-33 -43 -65.5 -62.5t-74.5 -19.5q-23 0 -42 9.5t-32.5 26t-21 38.5t-7.5 46q0 34 11 64.5t31 53.5t48 36.5t63 13.5q40 0 70 -21.5t44 -60.5q33 43 65.5 62.5t74.5 19.5q23 0 42 -9.5t32.5 -26t21 -38.5t7.5 -46q0 -34 -11 -64.5t-31 -53.5t-48 -36.5t-63 -13.5
q-40 0 -70 21.5t-44 60.5zM449 250q32 0 53.5 26.5t21.5 60.5q0 22 -11 42.5t-39 20.5q-29 0 -52 -20t-46 -55q8 -32 24.5 -53.5t48.5 -21.5zM235 400q-32 0 -53.5 -26.5t-21.5 -60.5q0 -22 11 -42.5t39 -20.5q29 0 52 20t46 55q-8 32 -24.5 53.5t-48.5 21.5z" />
    <glyph glyph-name="integral" unicode="&#x222b;" horiz-adv-x="319" 
d="M251 124q-9 -99 -50.5 -159.5t-117.5 -60.5q-12 0 -25 2t-24.5 6.5t-18.5 10.5t-7 15q0 5 2.5 14t4.5 17l5 19q21 -6 41 -6q25 0 42.5 12t28.5 36t17.5 58.5t10.5 79.5l32 383q3 38 13 74.5t28.5 65t47.5 46t70 17.5q12 0 26 -2t26.5 -6.5t21 -11t8.5 -14.5t-3.5 -19.5
t-6.5 -21.5l-4 -13q-14 5 -27.5 7.5t-25.5 2.5q-20 0 -33.5 -9t-22.5 -25.5t-13.5 -39t-6.5 -49.5z" />
    <glyph glyph-name="approxequal" unicode="&#x2248;" horiz-adv-x="536" 
d="M548 513q14 0 18 -5t4 -14q0 -29 -11 -53.5t-30 -42.5t-44 -28t-53 -10q-30 0 -55 12t-46 29q-19 16 -36 27t-36 11q-25 0 -36.5 -21t-19.5 -55h-46q-14 0 -18.5 5t-4.5 14q0 28 11.5 52.5t30 42.5t43.5 28.5t52 10.5q29 0 57.5 -14.5t53.5 -34.5q19 -15 32.5 -23
t31.5 -8q26 0 37 21t18 56h47zM505 313q14 0 18 -5t4 -14q0 -29 -11 -53.5t-30 -42.5t-44 -28t-53 -10q-30 0 -55 12t-46 29q-19 16 -36 27t-36 11q-25 0 -36.5 -21t-19.5 -55h-46q-14 0 -18.5 5t-4.5 14q0 28 11.5 52.5t30 42.5t43.5 28.5t52 10.5q29 0 57.5 -14.5
t53.5 -34.5q19 -15 32.5 -23t31.5 -8q26 0 37 21t18 56h47z" />
    <glyph glyph-name="notequal" unicode="&#x2260;" horiz-adv-x="536" 
d="M443 479h87q22 0 22 -19q0 -4 -11 -63h-142l-63 -119h159q22 0 22 -19q0 -4 -1 -10.5t-10 -52.5h-214l-66 -125h-50q-11 0 -11 9q0 3 3.5 11t7.5 16l47 89h-76q-22 0 -22 18q0 4 1.5 16t9.5 48h131l63 119h-148q-22 0 -22 18q0 14 11 64h203l68 127h50q11 0 11 -9
q0 -5 -3 -11.5t-8 -15.5z" />
    <glyph glyph-name="lessequal" unicode="&#x2264;" horiz-adv-x="536" 
d="M123 81h332q11 0 15 -4.5t4 -11.5q0 -4 -1 -10.5t-11 -54.5h-332q-11 0 -15 4.5t-4 11.5q0 4 1 10.5t11 54.5zM258 340l207 -108q9 -5 13 -8.5t4 -11.5q0 -3 -1 -8.5t-14 -69.5l-291 159q-11 6 -15.5 10.5t-4.5 13.5q0 4 1 9.5t2 10.5l8 41l348 165q13 6 21 6
q12 0 12 -12q0 -3 -1 -8.5t-3 -14.5l-10 -49z" />
    <glyph glyph-name="greaterequal" unicode="&#x2265;" horiz-adv-x="536" 
d="M114 81h332q11 0 15 -4.5t4 -11.5q0 -4 -1 -10.5t-2 -10.5l-9 -44h-332q-11 0 -15 4.5t-4 11.5q0 4 1 10.5t2 10.5zM422 343l-207 108q-9 5 -13 8.5t-4 11.5q0 3 1 8.5t3 13.5l11 56l291 -159q11 -6 15.5 -10.5t4.5 -13.5q0 -4 -1 -9.5t-2 -10.5l-8 -41l-348 -165
q-14 -6 -21 -6q-12 0 -12 12q0 3 1 9t3 14l10 49z" />
    <glyph glyph-name="lozenge" unicode="&#x25ca;" horiz-adv-x="495" 
d="M293 0h-73q-13 0 -18.5 4.5t-7.5 12.5l-101 322l242 338h73q12 0 16.5 -4.5t7.5 -12.5l103 -321zM365 583l-172 -248l69 -241l173 249z" />
    <glyph glyph-name="fi" unicode="&#xf001;" horiz-adv-x="555" 
d="M209 510l11 52q17 78 61.5 122.5t107.5 44.5q13 0 27.5 -2.5t26.5 -7.5t20 -13t8 -18q0 -6 -3 -18l-9 -29q-25 11 -51 11q-38 0 -59 -27.5t-32 -77.5l-8 -37h250q16 0 20.5 -5t4.5 -13q0 -5 -2 -17t-5 -26l-91 -449h-69q-16 0 -20.5 5t-4.5 13q0 5 2 17t5 26l75 373h-179
l-65 -342q-7 -38 -21.5 -84.5t-39 -86.5t-60.5 -67t-85 -27q-18 0 -35.5 7.5t-17.5 29.5q0 9 3 21l5 20q5 -1 10 -1h10q51 0 82 42.5t50 143.5l63 344h-43q-22 0 -22 17q0 8 2.5 23t7.5 36h70zM556 589q-29 0 -41.5 11.5t-12.5 29.5q0 32 18 50.5t53 18.5q29 0 42 -12
t13 -29q0 -32 -18 -50.5t-54 -18.5z" />
    <glyph glyph-name="fl" unicode="&#xf002;" horiz-adv-x="620" 
d="M209 510l11 52q17 78 61.5 122.5t107.5 44.5q13 0 29 -3t29.5 -8t23 -13.5t9.5 -18.5q0 -11 -6 -28l-6 -19q-29 13 -60 13q-38 0 -59 -27.5t-32 -77.5l-8 -37h185l42 208h70q24 0 24 -19q0 -5 -2 -14.5t-4 -18.5l-104 -523q-4 -20 -5 -27.5t-1 -15.5q0 -12 7 -17.5
t19 -5.5q15 0 25.5 2t18.5 2q9 0 13 -6.5t7 -29.5l4 -26q-8 -5 -39 -14t-65 -9q-43 0 -68 20.5t-25 59.5q0 22 6 51l62 307h-184l-65 -342q-7 -38 -21.5 -84.5t-39 -86.5t-60.5 -67t-85 -27q-25 0 -39 9.5t-14 27.5q0 9 3 21l5 20q9 -1 20 -1q51 0 82 42.5t50 143.5l63 344
h-43q-22 0 -22 17q0 8 10 59h70z" />
    <glyph glyph-name="oneseventh" unicode="&#xf506;" horiz-adv-x="901" 
d="M263 0h-53q-19 0 -19 14q0 8 8 19l475 644h53q19 0 19 -14q0 -8 -8 -19zM272 601q-16 -5 -33 -11t-32 -11.5t-26 -9t-14 -3.5q-12 0 -12 13q0 5 3 19l5 27q26 11 53 22t51 19.5t42.5 13.5t27.5 5q23 0 23 -20q0 -5 -4 -22l-73 -362h-51q-20 0 -20 17q0 7 2.5 20t4.5 24z
M630 396h242q21 0 21 -17q0 -4 -5 -34q-60 -86 -113 -172t-87 -171h-51q-19 0 -19 14q0 8 6 22.5t13 27.5q32 65 75.5 133t91.5 135h-160q-21 0 -21 17q0 5 7 45z" />
    <glyph glyph-name="twosevenths" unicode="&#xf507;" horiz-adv-x="901" 
d="M325 0h-53q-19 0 -19 14q0 8 8 19l475 644h53q19 0 19 -14q0 -8 -8 -19zM258 487q47 29 73 49.5t26 48.5q0 20 -15.5 29.5t-42.5 9.5q-21 0 -37.5 -4t-29.5 -8.5t-22.5 -8t-15.5 -3.5q-11 0 -11 12q0 2 0.5 7t1.5 12l4 21q17 11 48.5 22t72.5 11q25 0 47.5 -5.5t39 -17
t26 -29t9.5 -41.5q0 -26 -11.5 -47t-30 -39t-41.5 -33.5t-45 -28.5q-37 -23 -65.5 -46.5t-40.5 -54.5h168q21 0 21 -17q0 -9 -5 -29l-4 -16h-252q-11 0 -14.5 6t-3.5 13q0 2 0.5 7t3.5 13q14 42 46 83.5t100 83.5zM671 396h242q21 0 21 -17q0 -4 -5 -34q-60 -86 -113 -172
t-87 -171h-51q-19 0 -19 14q0 8 6 22.5t13 27.5q32 65 75.5 133t91.5 135h-160q-21 0 -21 17q0 5 7 45z" />
    <glyph glyph-name="threesevenths" unicode="&#xf508;" horiz-adv-x="901" 
d="M295 0h-53q-19 0 -19 14q0 8 8 19l475 644h53q19 0 19 -14q0 -8 -8 -19zM648 396h242q21 0 21 -17q0 -4 -5 -34q-60 -86 -113 -172t-87 -171h-51q-19 0 -19 14q0 8 6 22.5t13 27.5q32 65 75.5 133t91.5 135h-160q-21 0 -21 17q0 5 7 45zM223 456q-11 0 -14.5 3t-3.5 11
q0 2 0.5 8t2.5 14l4 22h48q24 0 41 6t28 15.5t16 21t5 22.5q0 21 -16.5 33.5t-45.5 12.5q-40 0 -64.5 -10t-35.5 -10q-10 0 -10 10q0 2 0.5 7.5t2.5 9.5l5 25q20 11 48.5 19t63.5 8q56 0 90.5 -24.5t34.5 -72.5q0 -34 -22 -61t-60 -43q25 -10 40 -28.5t15 -46.5
q0 -31 -13.5 -55.5t-36 -42t-52 -26.5t-60.5 -9q-21 0 -42 2.5t-37.5 7.5t-27 12t-10.5 15q0 6 1.5 10t3.5 12l8 23q20 -9 44 -14.5t54 -5.5q42 0 67.5 20t25.5 54q0 23 -18 34t-48 11h-32z" />
    <glyph glyph-name="foursevenths" unicode="&#xf509;" horiz-adv-x="901" 
d="M314 0h-53q-19 0 -19 14q0 8 8 19l475 644h53q19 0 19 -14q0 -8 -8 -19zM293 437l42 173q-20 -16 -43 -39t-44 -47t-38 -47.5t-27 -39.5h110zM395 676q18 0 18 -14q0 -7 -2.5 -20t-4.5 -21l-38 -184h32q15 0 15 -10q0 -7 -1.5 -14.5l-2.5 -12.5l-5 -23h-50l-19 -96h-48
q-21 0 -21 17q0 2 0.5 8.5t2.5 14.5l11 56h-164q-16 0 -16 12q0 2 0.5 6.5t1.5 9.5l4 16q14 28 37.5 62t52.5 68.5t62.5 66.5t67.5 58h67zM666 396h242q21 0 21 -17q0 -4 -5 -34q-60 -86 -113 -172t-87 -171h-51q-19 0 -19 14q0 8 6 22.5t13 27.5q32 65 75.5 133t91.5 135
h-160q-21 0 -21 17q0 5 7 45z" />
    </font>
</defs>
</svg>
