<?xml version="1.0" encoding="utf-8"?>
<!-- Generator: Adobe Illustrator 22.0.0, SVG Export Plug-In . SVG Version: 6.00 Build 0)  -->
<svg version="1.1" id="Layer_1" xmlns="http://www.w3.org/2000/svg" xmlns:xlink="http://www.w3.org/1999/xlink" x="0px" y="0px"
	 viewBox="0 0 422 171.5" style="enable-background:new 0 0 422 171.5;" xml:space="preserve">
<style type="text/css">
	.st0{fill:#233969;}
	.st1{fill:#F5F4F1;}
	.st2{fill:none;stroke:#233969;stroke-miterlimit:10;}
</style>
<g>
	<circle class="st0" cx="119.5" cy="87.5" r="15"/>
	<circle class="st1" cx="119.5" cy="87.5" r="13"/>
	<g>
		<circle class="st0" cx="114.5" cy="94.5" r="2"/>
		<circle class="st1" cx="114.5" cy="94.5" r="1"/>
	</g>
	<g>
		<circle class="st0" cx="128.5" cy="86.5" r="2"/>
		<circle class="st1" cx="128.5" cy="86.5" r="1"/>
	</g>
	<circle class="st0" cx="112.5" cy="79.5" r="1"/>
	<circle class="st0" cx="123.5" cy="80.5" r="3"/>
	<circle class="st1" cx="123.5" cy="80.5" r="2"/>
</g>
<g>
	<path class="st0" d="M331.6,91c-0.4-0.4-0.4-1,0-1.4l0,0c0.4-0.4,1-0.4,1.4,0l9.9,9.9c0.4,0.4,0.4,1,0,1.4l0,0
		c-0.4,0.4-1,0.4-1.4,0L331.6,91z"/>
	<path class="st0" d="M340.2,90.3c-0.4-0.4-0.4-1,0-1.4l0,0c0.4-0.4,1-0.4,1.4,0l9.9,9.9c0.4,0.4,0.4,1,0,1.4l0,0
		c-0.4,0.4-1,0.4-1.4,0L340.2,90.3z"/>
	<path class="st0" d="M332.3,98.2c-0.4-0.4-1-0.4-1.4,0l0,0c-0.4,0.4-0.4,1,0,1.4l9.9,9.9c0.4,0.4,1,0.4,1.4,0l0,0
		c0.4-0.4,0.4-1,0-1.4L332.3,98.2z"/>
	<path class="st0" d="M340.7,109.5c-3-3-3-7.8,0-10.8c3-3,7.8-3,10.8,0c3,3,3,7.8,0,10.8C348.5,112.5,343.7,112.5,340.7,109.5z"/>
	<path class="st1" d="M342,100c2.3-2.3,6-2.3,8.2,0c2.3,2.3,2.3,6,0,8.2c-2.3,2.3-6,2.3-8.2,0C339.7,106,339.7,102.3,342,100z"/>
</g>
<g>
	<rect x="230.5" y="95.5" class="st0" width="2" height="4"/>
	<rect x="225.5" y="100.5" class="st0" width="4" height="2"/>
	<rect x="230.5" y="103.5" class="st0" width="2" height="4"/>
	<rect x="233.5" y="100.5" class="st0" width="4" height="2"/>
</g>
<g>
	<rect x="372.7" y="153.5" class="st0" width="10" height="2"/>
	<rect x="384.7" y="153.5" class="st0" width="2" height="2"/>
	<rect x="388.7" y="153.5" class="st0" width="2" height="2"/>
	<polygon class="st0" points="362.7,153.5 353.7,153.5 353.7,155.5 362.7,155.5 370.7,155.5 370.7,153.5 	"/>
</g>
<g>
	<rect x="176.5" y="98.5" class="st0" width="19" height="2"/>
	<rect x="183.5" y="103.5" class="st0" width="8" height="2"/>
	<rect x="172.5" y="98.5" class="st0" width="2" height="2"/>
</g>
<g>
	<rect x="284.5" y="61.5" class="st0" width="25" height="2"/>
	<rect x="311.5" y="61.5" class="st0" width="8" height="2"/>
	<rect x="321.5" y="61.5" class="st0" width="2" height="2"/>
	<rect x="284.5" y="65.5" class="st0" width="9" height="2"/>
	<rect x="295.5" y="65.5" class="st0" width="2" height="2"/>
</g>
<circle class="st0" cx="16.5" cy="153.5" r="2"/>
<circle class="st1" cx="211" cy="88.5" r="1"/>
<g>
	<circle class="st0" cx="56.5" cy="55.5" r="2"/>
	<circle class="st1" cx="56.5" cy="55.5" r="1"/>
</g>
<circle class="st0" cx="195.5" cy="53.5" r="2"/>
<circle class="st1" cx="195.5" cy="53.5" r="1"/>
<g>
	<circle class="st2" cx="397.5" cy="51.5" r="2"/>
	<circle class="st1" cx="397.5" cy="51.5" r="1"/>
</g>
<path class="st0" d="M291,88c0,0,0,2-2,2c2,0,2,2,2,2s0-2,2-2C291,90,291,88,291,88z"/>
<rect x="150.5" y="137.5" class="st0" width="3" height="2"/>
<rect x="146.5" y="137.5" class="st0" width="2" height="2"/>
<polygon class="st0" points="227.5,15.5 226.5,15.5 226.5,13.5 225.5,13.5 224.5,13.5 224.5,15.5 222.5,15.5 222.5,16.5 222.5,17.5 
	224.5,17.5 224.5,18.5 224.5,19.5 226.5,19.5 226.5,18.5 226.5,17.5 228.5,17.5 228.5,16.5 228.5,15.5 "/>
<g>
	<rect x="271" y="73" class="st0" width="1" height="3"/>
	<rect x="270" y="74" class="st0" width="3" height="1"/>
</g>
<g>
	<circle class="st0" cx="293" cy="105.5" r="1"/>
</g>
<g>
	<path class="st0" d="M288,124.5c0,0,0,2-2,2c2,0,2,2,2,2s0-2,2-2C288,126.5,288,124.5,288,124.5z"/>
</g>
<path class="st0" d="M165.8,153.5c0,0,0,2-2,2c2,0,2,2,2,2s0-2,2-2C165.8,155.5,165.8,153.5,165.8,153.5z"/>
<g>
	<rect x="125.5" y="49.2" transform="matrix(0.7071 -0.7071 0.7071 0.7071 2.0847 104.3761)" class="st0" width="3" height="1"/>
	<rect x="121.3" y="53.4" transform="matrix(0.7071 -0.7071 0.7071 0.7071 -2.1579 102.6188)" class="st0" width="3" height="1"/>
	<rect x="126.5" y="52.4" transform="matrix(0.7071 -0.7071 0.7071 0.7071 -0.9153 105.6188)" class="st0" width="1" height="3"/>
	<rect x="122.3" y="48.2" transform="matrix(0.7071 -0.7071 0.7071 0.7071 0.8421 101.3763)" class="st0" width="1" height="3"/>
</g>
<g>
	<rect x="168.5" y="82.5" class="st0" width="1" height="2"/>
	<rect x="168.5" y="87.5" class="st0" width="1" height="2"/>
	<rect x="170.5" y="85.5" class="st0" width="2" height="1"/>
	<rect x="165.5" y="85.5" class="st0" width="2" height="1"/>
</g>
<g>
	<rect x="145" y="81.5" class="st0" width="1" height="1"/>
	<rect x="145" y="83.5" class="st0" width="1" height="1"/>
	<rect x="146" y="82.5" class="st0" width="1" height="1"/>
	<rect x="144" y="82.5" class="st0" width="1" height="1"/>
</g>
<g>
	<rect x="200.1" y="71.7" transform="matrix(0.7071 -0.7071 0.7071 0.7071 7.7025 163.0096)" class="st0" width="1" height="1"/>
	<rect x="198.7" y="73.1" transform="matrix(0.7071 -0.7071 0.7071 0.7071 6.2879 162.423)" class="st0" width="1" height="1"/>
	<rect x="200.1" y="73.1" transform="matrix(0.7071 -0.7071 0.7071 0.7071 6.7025 163.4239)" class="st0" width="1" height="1"/>
	<rect x="198.7" y="71.7" transform="matrix(0.7071 -0.7071 0.7071 0.7071 7.2879 162.0088)" class="st0" width="1" height="1"/>
</g>
<g>
	<rect x="249.5" y="143.4" class="st0" width="1" height="1"/>
	<rect x="248.5" y="144.4" class="st0" width="1" height="1"/>
	<rect x="249.5" y="145.4" class="st0" width="1" height="1"/>
	<rect x="250.5" y="144.4" class="st0" width="1" height="1"/>
</g>
<rect x="168.5" y="34.5" class="st0" width="2" height="2"/>
<rect x="180" y="125.5" class="st0" width="2" height="2"/>
<g>
	<rect x="81.5" y="109.5" class="st0" width="28" height="2"/>
	<rect x="73.5" y="109.5" class="st0" width="6" height="2"/>
	<rect x="69.5" y="109.5" class="st0" width="2" height="2"/>
</g>
<g>
	<rect x="77.3" y="145.9" transform="matrix(0.7071 -0.7071 0.7071 0.7071 -80.6064 98.2274)" class="st0" width="2" height="1"/>
	<rect x="77.8" y="148.9" transform="matrix(0.7071 -0.7071 0.7071 0.7071 -83.1064 99.2629)" class="st0" width="1" height="2"/>
	<rect x="74.2" y="145.4" transform="matrix(0.7071 -0.7071 0.7071 0.7071 -81.6419 95.7274)" class="st0" width="1" height="2"/>
	<rect x="73.7" y="149.4" transform="matrix(0.7071 -0.7071 0.7071 0.7071 -84.1419 96.7629)" class="st0" width="2" height="1"/>
</g>
<g>
	<polygon class="st0" points="74.1,94.5 71.5,99.7 68.9,94.5 	"/>
	<polygon class="st1" points="71.5,97.5 72.5,95.5 70.5,95.5 	"/>
</g>
<g>
	<rect x="285.5" y="136.5" class="st0" width="33" height="2"/>
	<rect x="320.5" y="136.5" class="st0" width="4" height="2"/>
</g>
<rect x="310.5" y="99.5" class="st0" width="2" height="4"/>
<rect x="310.5" y="105.5" class="st0" width="2" height="4"/>
<rect x="313.5" y="103.5" class="st0" width="9" height="2"/>
<rect x="307.5" y="103.5" class="st0" width="2" height="2"/>
<g>
	<circle class="st0" cx="205.5" cy="124.5" r="12"/>
	<circle class="st1" cx="205.5" cy="124.5" r="10"/>
	<circle class="st0" cx="205.5" cy="124.5" r="8"/>
	<circle class="st1" cx="205.5" cy="124.5" r="6"/>
	<circle class="st0" cx="215.5" cy="119.5" r="3"/>
	<circle class="st1" cx="215.5" cy="119.5" r="1.2"/>
	<path class="st0" d="M201,125.3c-0.5-0.1-0.9-0.8-0.8-1.6c0.1-0.8,0.6-1.4,1.2-1.3c0.5,0.1,0.9,0.8,0.8,1.6
		C202,124.7,201.5,125.3,201,125.3z"/>
	<path class="st1" d="M201.1,124.7c-0.3,0-0.5-0.5-0.5-0.9c0.1-0.5,0.4-0.8,0.7-0.8c0.3,0,0.5,0.5,0.5,0.9
		C201.7,124.4,201.4,124.7,201.1,124.7z"/>
	<path class="st0" d="M208.1,120c0,0.9-1,1.6-2.3,1.6c-1.3,0-2.3-0.7-2.3-1.6c0-0.9,1-1.6,2.3-1.6C207,118.4,208.1,119.1,208.1,120z
		"/>
	<path class="st1" d="M207.1,120c0,0.5-0.6,0.9-1.4,0.9c-0.8,0-1.4-0.4-1.4-0.9c0-0.5,0.6-0.9,1.4-0.9
		C206.5,119,207.1,119.4,207.1,120z"/>
	<path class="st0" d="M210.9,126.7c0.5,0.5,0.2,1.4-0.5,2.1c-0.7,0.7-1.7,0.8-2.2,0.3c-0.5-0.5-0.2-1.4,0.5-2.1
		C209.5,126.3,210.5,126.2,210.9,126.7z"/>
	<path class="st1" d="M210.4,127.2c0.3,0.3,0.1,0.9-0.3,1.3c-0.4,0.4-1,0.5-1.3,0.2c-0.3-0.3-0.1-0.9,0.3-1.3
		C209.5,127,210.1,126.9,210.4,127.2z"/>
	<path class="st0" d="M203.6,129.4c-0.2,0.4-0.9,0.4-1.5,0.1c-0.6-0.3-0.8-0.9-0.6-1.3c0.2-0.4,0.9-0.4,1.5-0.1
		C203.6,128.4,203.8,129,203.6,129.4z"/>
	<path class="st1" d="M203.2,129.1c-0.1,0.2-0.5,0.3-0.9,0.1c-0.3-0.2-0.5-0.5-0.4-0.8c0.1-0.2,0.5-0.3,0.9-0.1
		C203.2,128.5,203.3,128.9,203.2,129.1z"/>
</g>
<circle class="st0" cx="116.5" cy="128.5" r="7"/>
<circle class="st1" cx="116.5" cy="128.5" r="5"/>
<path class="st0" d="M122.5,126c0,0.3-0.2,0.5-0.5,0.5h-6c-0.3,0-0.5-0.2-0.5-0.5l0,0c0-0.3,0.2-0.5,0.5-0.5h6
	C122.3,125.5,122.5,125.7,122.5,126L122.5,126z"/>
<path class="st0" d="M122.5,130c0,0.3-0.2,0.5-0.5,0.5h-3c-0.3,0-0.5-0.2-0.5-0.5l0,0c0-0.3,0.2-0.5,0.5-0.5h3
	C122.3,129.5,122.5,129.7,122.5,130L122.5,130z"/>
<path class="st0" d="M120.5,133c0,0.3-0.2,0.5-0.5,0.5h-4c-0.3,0-0.5-0.2-0.5-0.5l0,0c0-0.3,0.2-0.5,0.5-0.5h4
	C120.3,132.5,120.5,132.7,120.5,133L120.5,133z"/>
<path class="st0" d="M114.5,131c0,0.3-0.2,0.5-0.5,0.5h-3c-0.3,0-0.5-0.2-0.5-0.5l0,0c0-0.3,0.2-0.5,0.5-0.5h3
	C114.3,130.5,114.5,130.7,114.5,131L114.5,131z"/>
<path class="st0" d="M115.5,128c0,0.3-0.2,0.5-0.5,0.5h-4c-0.3,0-0.5-0.2-0.5-0.5l0,0c0-0.3,0.2-0.5,0.5-0.5h4
	C115.3,127.5,115.5,127.7,115.5,128L115.5,128z"/>
<path class="st0" d="M115.5,124c0,0.3-0.2,0.5-0.5,0.5h-2c-0.3,0-0.5-0.2-0.5-0.5l0,0c0-0.3,0.2-0.5,0.5-0.5h2
	C115.3,123.5,115.5,123.7,115.5,124L115.5,124z"/>
<g>
	<circle class="st0" cx="246.6" cy="59.4" r="16"/>
	<circle class="st1" cx="246.6" cy="59.4" r="14"/>
	<path class="st0" d="M251.8,44.3l-20.3,20.3c0.5,1.3,1.1,2.6,1.9,3.8l2.6-2.6c-0.2-1.5,0.2-3.1,1.4-4.2c1.2-1.2,2.7-1.6,4.2-1.4
		l14-14C254.4,45.4,253.1,44.8,251.8,44.3z"/>
	<path class="st0" d="M243,63c1.2,1.2,1.2,3.1,0,4.2c-1.2,1.2-3.1,1.2-4.2,0c-1.2-1.2-1.2-3.1,0-4.2C240,61.8,241.9,61.8,243,63z"/>
	<path class="st0" d="M246.2,62.6l-0.7,0.7c0.7,1.8,0.3,3.9-1.1,5.4c-1.4,1.4-3.6,1.8-5.4,1.1l-1.4,1.4c-0.3,0.3-0.6,0.8-0.7,1.2
		c1.3,1,2.7,1.7,4.3,2.3l8.4-8.4c1-1,1-2.6,0-3.5C248.8,61.6,247.2,61.6,246.2,62.6z"/>
	<path class="st0" d="M261.3,53.2l-4.3,4.3c0.5,1.1,0.3,2.5-0.6,3.4c-0.9,0.9-2.3,1.1-3.4,0.6l-0.1,0.1c-0.8,0.8-0.8,2,0,2.8
		c0.8,0.8,2,0.8,2.8,0l6.7-6.7C262.3,56.1,261.9,54.6,261.3,53.2z"/>
	<path class="st0" d="M255.8,57.3c0.8,0.8,0.8,2,0,2.8c-0.8,0.8-2,0.8-2.8,0c-0.8-0.8-0.8-2,0-2.8C253.7,56.5,255,56.5,255.8,57.3z"
		/>
	<path class="st0" d="M249.4,43.7c-0.9-0.2-1.9-0.3-2.8-0.3c-0.3,0-0.7,0-1,0.1l-5,5c-0.6,0.6-0.6,1.5,0,2.1c0.6,0.6,1.5,0.6,2.1,0
		l6.4-6.4C249.2,44.1,249.3,43.9,249.4,43.7z"/>
</g>
</svg>
